<svg data-name="Group 99" xmlns="http://www.w3.org/2000/svg" width="20.491" height="17.521" viewBox="0 0 20.491 17.521"><path data-name="Path 14" d="M10.246 14.008A23.9 23.9 0 0 1 0 11.83v3.861a1.86 1.86 0 0 0 1.831 1.831h16.78a1.86 1.86 0 0 0 1.831-1.831V11.83a23.5 23.5 0 0 1-10.196 2.178z" fill="#c9ced8"/><path data-name="Path 15" d="M18.611 2.92H14.6V1.089A1.1 1.1 0 0 0 13.513 0H6.93a1.1 1.1 0 0 0-1.089 1.089V2.92h-4.01A1.86 1.86 0 0 0 0 4.752v6.336a22.716 22.716 0 0 0 10.246 2.227 22.87 22.87 0 0 0 10.246-2.227V4.752a1.87 1.87 0 0 0-1.881-1.832zm-6.93 8.513h-2.92v-1.187h2.92zm1.485-8.513H7.325V1.435h5.841z" fill="#c9ced8"/></svg>