<svg data-name="Layer 1" xmlns="http://www.w3.org/2000/svg" width="321.68" height="36.07" viewBox="0 0 321.68 36.07"><ellipse cx="287.437" cy="18.832" rx="8.053" ry="9" fill="#dc143c"/><path d="M16.903 19.761a5.039 5.039 0 0 0-1.707-4.008 6.5 6.5 0 0 0-4.49-1.5q-1.281 0-2.041.037c-.5.012-.872.025-1.132.037v9.649a2.216 2.216 0 0 0 .723 1.818 4.927 4.927 0 0 0 2.858.575 5.43 5.43 0 0 0 4.3-1.688 7.28 7.28 0 0 0 1.489-4.92zm4.6.315a7.327 7.327 0 0 1-.8 3.488 6.773 6.773 0 0 1-2.116 2.45 9.282 9.282 0 0 1-2.85 1.373 11.954 11.954 0 0 1-3.269.445H0v-1.317q.446-.038 1.3-.149a5.071 5.071 0 0 0 1.224-.3 1.7 1.7 0 0 0 .817-.686 2.371 2.371 0 0 0 .241-1.132V5.325a2.62 2.62 0 0 0-.223-1.113 1.569 1.569 0 0 0-.835-.779 5.224 5.224 0 0 0-1.243-.427 9.1 9.1 0 0 0-1.15-.186V1.503h19.778v6.438h-1.392a8.724 8.724 0 0 0-1.633-3.061 3.929 3.929 0 0 0-2.319-1.763q-.574-.073-1.373-.111t-1.818-.037H7.537v9.722l1.818-.037q.909-.018 1.763-.018a19.537 19.537 0 0 1 3.971.389 9.992 9.992 0 0 1 3.34 1.262 6.327 6.327 0 0 1 2.245 2.319 6.775 6.775 0 0 1 .831 3.47zm21.67 7.422q-.872.315-1.54.5a4.953 4.953 0 0 1-1.484.2 3.721 3.721 0 0 1-2.32-.668 3.181 3.181 0 0 1-1.092-1.98h-.112a9.017 9.017 0 0 1-2.6 2.041 7.2 7.2 0 0 1-3.322.7 4.746 4.746 0 0 1-3.392-1.259 4.363 4.363 0 0 1-1.318-3.3 5.62 5.62 0 0 1 .3-1.892 4.517 4.517 0 0 1 .891-1.5 4.309 4.309 0 0 1 1.224-.983 10.268 10.268 0 0 1 1.429-.706q.836-.315 3.377-1.169a25.211 25.211 0 0 0 3.451-1.336v-1.84a7.177 7.177 0 0 0-.111-.928 3.729 3.729 0 0 0-.427-1.3 3.562 3.562 0 0 0-1.06-1.186 3.056 3.056 0 0 0-1.912-.52 4.252 4.252 0 0 0-1.595.3 2.776 2.776 0 0 0-1.021.594 5.355 5.355 0 0 0 .167 1.094 5.4 5.4 0 0 1 .186 1.336 1.586 1.586 0 0 1-.594 1.188 2.271 2.271 0 0 1-1.614.538 1.551 1.551 0 0 1-1.373-.649 2.7 2.7 0 0 1-.427-1.485 2.657 2.657 0 0 1 .594-1.633 6.212 6.212 0 0 1 1.577-1.391 8.276 8.276 0 0 1 2.022-.872 7.74 7.74 0 0 1 2.32-.372 14.461 14.461 0 0 1 2.709.223 4.9 4.9 0 0 1 2.115.909 4.217 4.217 0 0 1 1.429 1.874 7.758 7.758 0 0 1 .5 3.025q0 2.653-.056 4.713-.057 2.037-.057 4.468a2.351 2.351 0 0 0 .241 1.151 2.116 2.116 0 0 0 .78.723 1.851 1.851 0 0 0 .872.186q.612.018 1.243.019zm-6.476-9.8q-1.577.464-2.764.909a11.145 11.145 0 0 0-2.208 1.114 4.964 4.964 0 0 0-1.466 1.5 3.741 3.741 0 0 0-.538 2.04 2.912 2.912 0 0 0 .8 2.264 2.985 2.985 0 0 0 2.059.724 4.257 4.257 0 0 0 2.32-.631 6.914 6.914 0 0 0 1.688-1.521zm26.532-5.993a9.376 9.376 0 0 1 1.691 3.027 11.567 11.567 0 0 1 .612 3.915 10.54 10.54 0 0 1-.724 3.971 9.7 9.7 0 0 1-1.911 3.043 9 9 0 0 1-2.76 1.971 7.759 7.759 0 0 1-3.229.686 8.3 8.3 0 0 1-2.709-.371 6.412 6.412 0 0 1-1.726-.872h-.148v5.492a2.184 2.184 0 0 0 .26 1.114 1.5 1.5 0 0 0 .8.649 7.7 7.7 0 0 0 1.261.316 8.841 8.841 0 0 0 1.367.186v1.243H45.79v-1.243q.575-.038 1.113-.093a5.185 5.185 0 0 0 .965-.185 1.253 1.253 0 0 0 .779-.65 2.5 2.5 0 0 0 .223-1.094V13.341a2.245 2.245 0 0 0-.279-1.076 2.364 2.364 0 0 0-.723-.835 2.508 2.508 0 0 0-.928-.334 7.669 7.669 0 0 0-1.15-.167V9.723l6.234-.409.26.223v2.06l.148.037a8.022 8.022 0 0 1 2.394-1.856 6.113 6.113 0 0 1 2.839-.742 6.718 6.718 0 0 1 3.117.724 7.659 7.659 0 0 1 2.449 1.948zm-3.022 13.158a8.359 8.359 0 0 0 1.094-2.672 15.067 15.067 0 0 0 .353-3.4 13.753 13.753 0 0 0-.3-2.8 7.989 7.989 0 0 0-.928-2.486 5.177 5.177 0 0 0-1.651-1.744 4.367 4.367 0 0 0-2.449-.668 4.274 4.274 0 0 0-2.338.612 6.9 6.9 0 0 0-1.67 1.429v10.82a4.184 4.184 0 0 0 .538 1.039 5.155 5.155 0 0 0 .853.928 5.6 5.6 0 0 0 1.244.761 4.256 4.256 0 0 0 1.633.278 4.056 4.056 0 0 0 2-.538 4.729 4.729 0 0 0 1.621-1.559zm27.162 2.969h-8.387v-1.225q.835-.092 1.411-.185.593-.093.593-.483a1.3 1.3 0 0 0-.185-.519q-.186-.352-.371-.65-.463-.723-1.281-1.929-.8-1.226-1.966-2.913-.966 1.206-1.782 2.356-.816 1.132-1.707 2.412a4.8 4.8 0 0 0-.278.464 1.131 1.131 0 0 0-.13.445.8.8 0 0 0 .52.687 4.764 4.764 0 0 0 1.595.352v1.188h-6.772v-1.15a7.237 7.237 0 0 0 2.022-.891 7.159 7.159 0 0 0 1.429-1.317q.576-.743 1.6-2.041 1.04-1.3 2.672-3.526-.947-1.354-2.32-3.3-1.354-1.966-2.245-3.265a4.213 4.213 0 0 0-1.113-1.132 2.93 2.93 0 0 0-1.744-.445V9.532h7.96v1.23a9.026 9.026 0 0 0-1.173.07c-.384.049-.575.161-.575.334a.791.791 0 0 0 .111.371 5.047 5.047 0 0 0 .278.445l1.262 1.95q.872 1.317 1.874 2.783.649-.891 1.5-2.078.871-1.188 1.6-2.264a2.627 2.627 0 0 0 .148-.315 1.132 1.132 0 0 0 .074-.39q0-.39-.649-.612a6.061 6.061 0 0 0-1.206-.334v-1.19h6.753v1.15a7.7 7.7 0 0 0-2.227.891 5.67 5.67 0 0 0-1.354 1.169q-.612.761-1.466 1.874-.835 1.113-2.357 3.117 1.689 2.376 2.747 3.9t2.133 3.135a5.046 5.046 0 0 0 1.188 1.3 3.542 3.542 0 0 0 1.818.538zm20.409-.334q-.871.315-1.54.5a4.953 4.953 0 0 1-1.484.2 3.721 3.721 0 0 1-2.32-.668 3.186 3.186 0 0 1-1.095-1.985h-.111a9.007 9.007 0 0 1-2.6 2.041 7.2 7.2 0 0 1-3.321.7 4.746 4.746 0 0 1-3.393-1.254 4.363 4.363 0 0 1-1.318-3.3 5.62 5.62 0 0 1 .3-1.892 4.517 4.517 0 0 1 .891-1.5 4.309 4.309 0 0 1 1.224-.983 10.268 10.268 0 0 1 1.429-.706q.836-.315 3.377-1.169a25.267 25.267 0 0 0 3.451-1.336v-1.84a7.177 7.177 0 0 0-.111-.928 3.729 3.729 0 0 0-.427-1.3 3.562 3.562 0 0 0-1.057-1.187 3.056 3.056 0 0 0-1.912-.52 4.252 4.252 0 0 0-1.595.3 2.776 2.776 0 0 0-1.021.594 5.355 5.355 0 0 0 .167 1.094 5.4 5.4 0 0 1 .186 1.336 1.586 1.586 0 0 1-.594 1.188 2.271 2.271 0 0 1-1.614.538 1.551 1.551 0 0 1-1.373-.649 2.7 2.7 0 0 1-.427-1.485 2.657 2.657 0 0 1 .594-1.633 6.212 6.212 0 0 1 1.577-1.391 8.276 8.276 0 0 1 2.022-.872 7.74 7.74 0 0 1 2.32-.372 14.461 14.461 0 0 1 2.709.223 4.9 4.9 0 0 1 2.115.909 4.217 4.217 0 0 1 1.429 1.874 7.758 7.758 0 0 1 .5 3.025q0 2.653-.056 4.713-.055 2.04-.056 4.471a2.351 2.351 0 0 0 .241 1.151 2.116 2.116 0 0 0 .78.723 1.851 1.851 0 0 0 .872.186q.612.018 1.243.019zm-6.476-9.8q-1.577.464-2.764.909a11.145 11.145 0 0 0-2.208 1.114 4.964 4.964 0 0 0-1.466 1.5 3.741 3.741 0 0 0-.538 2.04 2.912 2.912 0 0 0 .8 2.264 2.985 2.985 0 0 0 2.059.724 4.257 4.257 0 0 0 2.32-.631 6.914 6.914 0 0 0 1.688-1.521zm25.957-2.3h-1.132a10.216 10.216 0 0 0-.5-1.224 11.271 11.271 0 0 0-.7-1.336 6.064 6.064 0 0 0-.928-1.206 1.778 1.778 0 0 0-1.057-.612c-.384-.038-.811-.062-1.281-.075s-.872-.037-1.206-.037v13.624a1.9 1.9 0 0 0 .26 1.039 1.668 1.668 0 0 0 .779.631 3.9 3.9 0 0 0 .928.279 10.033 10.033 0 0 0 1.021.129v1.222h-9.315v-1.225c.285-.024.606-.049.965-.074a3.711 3.711 0 0 0 .891-.148 1.305 1.305 0 0 0 .76-.575 2.074 2.074 0 0 0 .26-1.1v-13.8q-.594.018-1.336.056-.742.018-1.169.056a1.724 1.724 0 0 0-1.039.612 8.537 8.537 0 0 0-.946 1.206 10.658 10.658 0 0 0-.724 1.41q-.333.761-.464 1.15h-1.131V9.532h17.07zm23.767 12.434h-8.943v-1.225l.872-.074a3.434 3.434 0 0 0 .8-.148 1.478 1.478 0 0 0 .8-.575 1.968 1.968 0 0 0 .279-1.1v-5.821h-8.146v5.643a1.9 1.9 0 0 0 .26 1.039 1.668 1.668 0 0 0 .779.631 3.676 3.676 0 0 0 .835.279 7.944 7.944 0 0 0 .946.129v1.222h-8.943v-1.225l.872-.074a3.434 3.434 0 0 0 .8-.148 1.311 1.311 0 0 0 .761-.575 2.083 2.083 0 0 0 .26-1.1V12.84a1.87 1.87 0 0 0-.26-1.021 1.629 1.629 0 0 0-.78-.649 3.62 3.62 0 0 0-.946-.3c-.3-.049-.575-.087-.835-.111V9.532h8.944v1.23q-.538.036-.947.092c-.259.038-.5.081-.723.13a1.27 1.27 0 0 0-.78.594 2.174 2.174 0 0 0-.241 1.076v4.713h8.146V12.84a1.87 1.87 0 0 0-.26-1.021 1.631 1.631 0 0 0-.779-.649 3.627 3.627 0 0 0-.947-.3c-.3-.049-.575-.087-.835-.111V9.532h8.944v1.23c-.359.024-.674.055-.947.092s-.5.081-.723.13a1.266 1.266 0 0 0-.779.594 2.163 2.163 0 0 0-.242 1.076v11.878a2.206 2.206 0 0 0 .223 1.058 1.482 1.482 0 0 0 .761.612 3.659 3.659 0 0 0 .835.279 7.916 7.916 0 0 0 .946.129zm17.162-5.715a3.556 3.556 0 0 0-1.132-2.653 4.522 4.522 0 0 0-3.3-1.113 12.4 12.4 0 0 0-1.5.074q-.594.055-.909.055v6.532a1.332 1.332 0 0 0 .557 1.169 3.907 3.907 0 0 0 2.059.389 4.767 4.767 0 0 0 2.1-.408 3.267 3.267 0 0 0 1.3-1.039 4.012 4.012 0 0 0 .649-1.429 6.461 6.461 0 0 0 .176-1.577zm3.748.093a4.944 4.944 0 0 1-.631 2.542 5.515 5.515 0 0 1-1.633 1.744 7.589 7.589 0 0 1-2.227 1 9.672 9.672 0 0 1-2.56.334h-9.648v-1.223l.872-.074a3.413 3.413 0 0 0 .8-.148 1.308 1.308 0 0 0 .761-.575 2.083 2.083 0 0 0 .26-1.1V12.84a1.87 1.87 0 0 0-.26-1.021 1.631 1.631 0 0 0-.779-.649 3.627 3.627 0 0 0-.947-.3c-.3-.049-.575-.087-.835-.111V9.532h9.222v1.23q-.557.036-1.095.092a4.864 4.864 0 0 0-.872.13 1.2 1.2 0 0 0-.8.631 2.363 2.363 0 0 0-.223 1.039v4.361q.742-.019 1.262-.037.537-.038 1.54-.038a14.855 14.855 0 0 1 3.154.3 7.62 7.62 0 0 1 2.375.872 4.66 4.66 0 0 1 1.67 1.615 4.739 4.739 0 0 1 .595 2.483zm9.425 5.622h-8.924v-1.225l.853-.074a3.372 3.372 0 0 0 .779-.148 1.477 1.477 0 0 0 .8-.575 1.968 1.968 0 0 0 .279-1.1V12.84a1.87 1.87 0 0 0-.26-1.021 1.629 1.629 0 0 0-.78-.649 3.62 3.62 0 0 0-.946-.3c-.3-.049-.575-.087-.835-.111V9.532h8.962v1.23q-.538.036-.946.092-.39.057-.724.13a1.268 1.268 0 0 0-.779.594 2.163 2.163 0 0 0-.241 1.076v11.878a2.206 2.206 0 0 0 .222 1.058 1.486 1.486 0 0 0 .761.612 3.676 3.676 0 0 0 .835.279 7.944 7.944 0 0 0 .946.129zm24.788 0h-8.888v-1.225l.872-.074a3.413 3.413 0 0 0 .8-.148 1.481 1.481 0 0 0 .8-.575 1.968 1.968 0 0 0 .278-1.1v-9.607l-8.423 9.111v.318a1.9 1.9 0 0 0 .259 1.039 1.666 1.666 0 0 0 .78.631 4.038 4.038 0 0 0 .853.279 7.907 7.907 0 0 0 .965.129v1.222h-8.888v-1.225l.872-.074a3.413 3.413 0 0 0 .8-.148 1.308 1.308 0 0 0 .761-.575 2.083 2.083 0 0 0 .26-1.1V12.84a1.87 1.87 0 0 0-.26-1.021 1.631 1.631 0 0 0-.779-.649 3.627 3.627 0 0 0-.947-.3c-.3-.049-.575-.087-.835-.111V9.532h8.888v1.23q-.538.036-.946.092-.39.057-.724.13a1.268 1.268 0 0 0-.779.594 2.163 2.163 0 0 0-.241 1.076v9.463l8.423-9.129a2.214 2.214 0 0 0-.259-1.206 1.708 1.708 0 0 0-.78-.612 3.6 3.6 0 0 0-.964-.3 13.45 13.45 0 0 0-.854-.111V9.532h8.888v1.23c-.359.024-.674.055-.947.092s-.5.081-.723.13a1.266 1.266 0 0 0-.779.594 2.163 2.163 0 0 0-.242 1.076v11.878a2.206 2.206 0 0 0 .223 1.058 1.482 1.482 0 0 0 .761.612 3.659 3.659 0 0 0 .835.279 7.916 7.916 0 0 0 .946.129zm-4.082-25.81a3.513 3.513 0 0 1-.353 1.374 3.807 3.807 0 0 1-1 1.391 6.148 6.148 0 0 1-1.892 1.113 8.44 8.44 0 0 1-2.987.427 8.7 8.7 0 0 1-2.951-.427 6.05 6.05 0 0 1-1.911-1.113 4.074 4.074 0 0 1-1.02-1.391 3.828 3.828 0 0 1-.3-1.374 2.038 2.038 0 0 1 .519-1.447A1.7 1.7 0 0 1 191.453 0a2.218 2.218 0 0 1 1.28.408 1.5 1.5 0 0 1 .594 1.336 3.867 3.867 0 0 1-.223 1.206q-.222.649-.353.946a2.972 2.972 0 0 0 1.318.91 5.217 5.217 0 0 0 1.763.3 5.883 5.883 0 0 0 1.725-.279 2.885 2.885 0 0 0 1.41-.928q-.148-.352-.371-1a4.031 4.031 0 0 1-.2-1.15 1.5 1.5 0 0 1 .594-1.336 2.189 2.189 0 0 1 1.262-.408 1.66 1.66 0 0 1 1.28.575 1.994 1.994 0 0 1 .535 1.442zm27.384 26.292a7.731 7.731 0 0 1-6.214-2.634 10.536 10.536 0 0 1-2.245-7.07 10.686 10.686 0 0 1 .593-3.6 10.1 10.1 0 0 1 1.763-3.062 8.328 8.328 0 0 1 6.346-2.932 6.981 6.981 0 0 1 4.379 1.3 4.164 4.164 0 0 1 1.688 3.507 3.087 3.087 0 0 1-.445 1.652 1.6 1.6 0 0 1-1.466.7 2.445 2.445 0 0 1-1.707-.557 1.673 1.673 0 0 1-.594-1.243 6.9 6.9 0 0 1 .223-1.707 9.824 9.824 0 0 0 .26-1.3 1.613 1.613 0 0 0-1-.761 4.683 4.683 0 0 0-1.41-.2 3.912 3.912 0 0 0-1.707.39 4.308 4.308 0 0 0-1.559 1.391 7.494 7.494 0 0 0-1.113 2.5 14.539 14.539 0 0 0-.427 3.767 9.678 9.678 0 0 0 1.521 5.641 4.727 4.727 0 0 0 4.027 2.17 4.992 4.992 0 0 0 3.006-.872 8.443 8.443 0 0 0 2.263-2.616l1.188.779a9.586 9.586 0 0 1-3.229 3.47 7.582 7.582 0 0 1-4.141 1.287zm26.569-4.782a9.368 9.368 0 0 1-3.081 3.489 7.758 7.758 0 0 1-4.434 1.3 9.073 9.073 0 0 1-3.878-.779 7.61 7.61 0 0 1-2.728-2.115 9.127 9.127 0 0 1-1.614-3.117 13.4 13.4 0 0 1-.519-3.767 11.186 11.186 0 0 1 .556-3.488 10.006 10.006 0 0 1 1.67-3.1 7.963 7.963 0 0 1 2.616-2.123 7.561 7.561 0 0 1 3.526-.817 8.468 8.468 0 0 1 3.432.631 6.113 6.113 0 0 1 2.32 1.726 6.774 6.774 0 0 1 1.261 2.449 10.511 10.511 0 0 1 .427 3.062v1.224h-12.116a14.708 14.708 0 0 0 .334 3.266 7.956 7.956 0 0 0 1.095 2.579 5.23 5.23 0 0 0 1.892 1.707 5.928 5.928 0 0 0 2.783.612 5.15 5.15 0 0 0 2.839-.76 7.686 7.686 0 0 0 2.32-2.784zm-4.1-6.976a14.437 14.437 0 0 0-.186-2.227 6.671 6.671 0 0 0-.556-1.985 3.778 3.778 0 0 0-1.169-1.392 3.182 3.182 0 0 0-1.911-.538 3.988 3.988 0 0 0-3.247 1.633 7.569 7.569 0 0 0-1.392 4.509zm22.858 5.993a4.873 4.873 0 0 1-2.3 4.175 10.214 10.214 0 0 1-5.975 1.595 10.84 10.84 0 0 1-3-.389 7.128 7.128 0 0 1-2.246-1.021 4.8 4.8 0 0 1-1.336-1.466 3.545 3.545 0 0 1-.463-1.781 2.083 2.083 0 0 1 .445-1.373 1.7 1.7 0 0 1 1.392-.538 2.017 2.017 0 0 1 1.521.538 1.624 1.624 0 0 1 .52 1.132 5.979 5.979 0 0 1-.167 1.28q-.148.743-.26 1.151a3.609 3.609 0 0 0 1.41.8 7.135 7.135 0 0 0 2.171.3 4.624 4.624 0 0 0 3.21-1.15 4.141 4.141 0 0 0 1.28-3.247 5.138 5.138 0 0 0-.167-1.28 2.638 2.638 0 0 0-.631-1.151 3.377 3.377 0 0 0-1.261-.816 5.808 5.808 0 0 0-2.1-.316h-1.948v-1.736h1.595a4.223 4.223 0 0 0 3.117-.928 4.125 4.125 0 0 0 .891-2.913 2.828 2.828 0 0 0-.853-2.171 3.271 3.271 0 0 0-2.357-.816 3.9 3.9 0 0 0-1.948.482 5.835 5.835 0 0 0-1.577 1.28 8.213 8.213 0 0 0-1.151 1.745 18.652 18.652 0 0 0-.8 1.855h-1.244l.112-6.624h1.243l.668 1.02a15.679 15.679 0 0 1 2.226-.8 10.859 10.859 0 0 1 2.951-.372 9.249 9.249 0 0 1 3.321.5 5.7 5.7 0 0 1 1.985 1.168 3.473 3.473 0 0 1 .928 1.429 4.134 4.134 0 0 1 .241 1.225 4.444 4.444 0 0 1-.2 1.3 3.147 3.147 0 0 1-.724 1.243 5.4 5.4 0 0 1-1.447 1.113 8.045 8.045 0 0 1-2.3.779v.242a8.257 8.257 0 0 1 1.782.278 5.589 5.589 0 0 1 1.707.761 3.886 3.886 0 0 1 1.28 1.447 4.218 4.218 0 0 1 .458 2.045zm22.227-4.045a12.184 12.184 0 0 1-.612 3.8 9.06 9.06 0 0 1-1.745 3.154 8.108 8.108 0 0 1-2.968 2.208 9.53 9.53 0 0 1-3.786.724 8.641 8.641 0 0 1-3.321-.65 8.492 8.492 0 0 1-2.8-1.929 9.317 9.317 0 0 1-1.929-3.025 10.959 10.959 0 0 1-.7-4.026 10 10 0 0 1 2.486-7.014 8.478 8.478 0 0 1 6.55-2.728 8.38 8.38 0 0 1 6.327 2.6 9.46 9.46 0 0 1 2.497 6.881zm-3.841.037a16.556 16.556 0 0 0-.278-2.932 9.309 9.309 0 0 0-.835-2.634 5.046 5.046 0 0 0-1.559-1.837 3.885 3.885 0 0 0-2.356-.7 4.2 4.2 0 0 0-2.45.7 5.237 5.237 0 0 0-1.632 1.929 8.548 8.548 0 0 0-.835 2.58 17 17 0 0 0-.241 2.8 18.332 18.332 0 0 0 .278 3.3 9.7 9.7 0 0 0 .928 2.69 5.378 5.378 0 0 0 1.577 1.875 4.073 4.073 0 0 0 2.375.667 4.129 4.129 0 0 0 3.674-2.245 11.993 11.993 0 0 0 1.353-6.202zm28.516 9.291h-8.943v-1.225l.872-.074a3.434 3.434 0 0 0 .8-.148 1.478 1.478 0 0 0 .8-.575 1.968 1.968 0 0 0 .279-1.1v-5.821h-8.151v5.643a1.9 1.9 0 0 0 .26 1.039 1.668 1.668 0 0 0 .779.631 3.676 3.676 0 0 0 .835.279 7.961 7.961 0 0 0 .947.129v1.222h-8.944v-1.225l.872-.074a3.413 3.413 0 0 0 .8-.148 1.308 1.308 0 0 0 .761-.575 2.083 2.083 0 0 0 .26-1.1V12.84a1.87 1.87 0 0 0-.26-1.021 1.631 1.631 0 0 0-.779-.649 3.627 3.627 0 0 0-.947-.3c-.3-.049-.575-.087-.835-.111V9.532h8.944v1.23c-.359.024-.674.055-.947.092s-.5.081-.723.13a1.266 1.266 0 0 0-.779.594 2.163 2.163 0 0 0-.242 1.076v4.713h8.146V12.84a1.87 1.87 0 0 0-.26-1.021 1.631 1.631 0 0 0-.779-.649 3.627 3.627 0 0 0-.947-.3c-.3-.049-.575-.087-.834-.111V9.532h8.943v1.23q-.539.036-.946.092-.39.057-.724.13a1.268 1.268 0 0 0-.779.594 2.163 2.163 0 0 0-.242 1.076v11.878a2.206 2.206 0 0 0 .223 1.058 1.486 1.486 0 0 0 .761.612 3.676 3.676 0 0 0 .835.279 7.916 7.916 0 0 0 .946.129z" fill="#fff"/></svg>