<svg width="267" height="30" viewBox="0 0 267 30" fill="none" xmlns="http://www.w3.org/2000/svg"><ellipse cx="203.106" cy="17.81" rx="5.516" ry="6.165" fill="#DC143C"/><path d="M12.787 18.471c0-1.152-.39-2.067-1.17-2.745-.77-.687-1.796-1.03-3.076-1.03-.584 0-1.05.009-1.398.026-.339.008-.597.017-.775.025v6.61c0 .559.165.974.496 1.245.33.263.982.394 1.957.394 1.288 0 2.27-.386 2.949-1.157.678-.78 1.017-1.902 1.017-3.368zm3.152.216c0 .907-.182 1.703-.547 2.39a4.636 4.636 0 0 1-1.449 1.677 6.35 6.35 0 0 1-1.957.941A8.196 8.196 0 0 1 9.749 24H1.207v-.902a21 21 0 0 0 .89-.102c.39-.06.67-.127.84-.203.262-.12.448-.276.558-.47.11-.204.166-.463.166-.776V8.582c0-.288-.051-.542-.153-.762-.093-.22-.284-.398-.572-.534a3.597 3.597 0 0 0-.852-.292 6.19 6.19 0 0 0-.788-.127v-.903h13.55v4.41h-.954c-.178-.669-.55-1.368-1.118-2.097-.56-.737-1.089-1.14-1.589-1.207-.263-.034-.576-.06-.94-.076a27.12 27.12 0 0 0-1.246-.026H6.368v6.66l1.245-.025a59.03 59.03 0 0 1 1.208-.013c.957 0 1.864.09 2.72.267.864.17 1.627.458 2.288.865a4.32 4.32 0 0 1 1.538 1.588c.381.653.572 1.445.572 2.377zm14.844 5.084c-.398.144-.75.259-1.055.343a3.39 3.39 0 0 1-1.017.14c-.66 0-1.19-.152-1.588-.457-.39-.314-.64-.767-.75-1.36h-.076c-.551.61-1.144 1.076-1.78 1.398-.627.322-1.385.483-2.275.483-.94 0-1.716-.288-2.326-.865-.602-.576-.902-1.33-.902-2.262 0-.483.067-.915.203-1.296.135-.382.339-.725.61-1.03a2.96 2.96 0 0 1 .839-.674 6.95 6.95 0 0 1 .979-.483c.38-.144 1.152-.41 2.313-.8 1.17-.39 1.957-.695 2.364-.916v-1.258c0-.11-.025-.322-.076-.635a2.558 2.558 0 0 0-.293-.89 2.443 2.443 0 0 0-.724-.813c-.305-.238-.742-.356-1.31-.356-.39 0-.753.067-1.092.203-.33.127-.564.263-.7.407 0 .17.039.42.115.75.085.33.127.635.127.915 0 .296-.136.568-.407.813-.262.246-.631.369-1.105.369-.424 0-.738-.148-.941-.445a1.85 1.85 0 0 1-.292-1.017c0-.39.135-.762.406-1.118.28-.356.64-.674 1.08-.954a5.676 5.676 0 0 1 1.386-.597 5.31 5.31 0 0 1 1.589-.254c.712 0 1.33.05 1.856.152a3.36 3.36 0 0 1 1.449.623c.432.314.758.742.978 1.284.229.534.343 1.224.343 2.072a118.6 118.6 0 0 1-.038 3.228c-.025.932-.038 1.953-.038 3.063 0 .33.055.593.165.788.119.195.297.36.534.496.127.076.326.119.598.127.28.008.563.013.851.013v.813zm-4.436-6.71a27.71 27.71 0 0 0-1.894.622 7.67 7.67 0 0 0-1.512.763 3.41 3.41 0 0 0-1.004 1.03c-.246.389-.369.855-.369 1.397 0 .704.182 1.22.547 1.55.373.331.843.497 1.41.497.602 0 1.132-.144 1.59-.433a4.73 4.73 0 0 0 1.156-1.042l.076-4.385zm18.175-4.106a6.42 6.42 0 0 1 1.157 2.072c.28.78.419 1.673.419 2.681 0 .992-.165 1.899-.496 2.72a6.66 6.66 0 0 1-1.309 2.085A6.164 6.164 0 0 1 42.4 23.86a5.316 5.316 0 0 1-2.211.47c-.754 0-1.373-.084-1.856-.254-.483-.17-.877-.368-1.182-.597h-.102v3.762c0 .305.06.56.178.763.119.203.301.351.547.445.203.076.491.148.864.216.381.076.695.118.94.127v.851h-7.003v-.851c.263-.017.517-.038.763-.064a3.52 3.52 0 0 0 .66-.127c.255-.085.433-.233.535-.445.101-.212.152-.462.152-.75V14.073c0-.254-.063-.5-.19-.737a1.631 1.631 0 0 0-.496-.572c-.153-.101-.364-.178-.636-.229a5.34 5.34 0 0 0-.788-.114v-.826l4.271-.28.178.153v1.41l.102.026c.44-.508.987-.932 1.64-1.271.652-.339 1.3-.508 1.944-.508.78 0 1.491.165 2.135.495a5.24 5.24 0 0 1 1.678 1.335zm-2.072 9.011a5.735 5.735 0 0 0 .75-1.83c.161-.695.242-1.47.242-2.326 0-.627-.068-1.267-.204-1.92-.135-.652-.347-1.22-.635-1.702a3.555 3.555 0 0 0-1.132-1.195c-.465-.305-1.025-.458-1.677-.458-.627 0-1.161.14-1.602.42a4.7 4.7 0 0 0-1.144.979v7.41c.077.228.2.466.369.711.178.246.373.458.585.636.262.212.546.385.851.521.305.127.678.19 1.119.19a2.78 2.78 0 0 0 1.372-.368 3.23 3.23 0 0 0 1.106-1.068zM61.057 24h-5.745v-.839c.381-.042.703-.085.966-.127.271-.042.407-.152.407-.33 0-.077-.043-.195-.128-.356a6.893 6.893 0 0 0-.254-.445c-.211-.33-.504-.771-.877-1.322a87.261 87.261 0 0 0-1.347-1.996c-.44.551-.847 1.09-1.22 1.615a117.91 117.91 0 0 0-1.17 1.652c-.059.085-.122.19-.19.318a.776.776 0 0 0-.09.305c0 .186.12.343.357.47.245.119.61.2 1.093.241V24h-4.64v-.788c.577-.17 1.039-.373 1.386-.61.356-.246.682-.547.979-.903.262-.339.627-.805 1.093-1.398a75.736 75.736 0 0 0 1.83-2.415c-.432-.618-.962-1.372-1.589-2.262a1290.07 1290.07 0 0 1-1.538-2.237 2.894 2.894 0 0 0-.762-.775c-.28-.204-.678-.305-1.195-.305v-.84h5.453v.84a6.25 6.25 0 0 0-.801.05c-.263.034-.394.11-.394.23a.54.54 0 0 0 .076.253c.051.094.115.195.19.306l.865 1.334c.398.602.826 1.237 1.284 1.907.296-.407.64-.882 1.03-1.424.398-.542.762-1.06 1.093-1.55a1.75 1.75 0 0 0 .101-.217.783.783 0 0 0 .051-.267c0-.178-.148-.317-.445-.42a4.189 4.189 0 0 0-.826-.228v-.813h4.627v.788c-.653.17-1.161.373-1.526.61a3.882 3.882 0 0 0-.928.8c-.28.348-.614.776-1.004 1.284-.381.509-.92 1.22-1.614 2.136a320.699 320.699 0 0 1 1.881 2.669c.483.695.97 1.41 1.462 2.148.246.373.517.67.813.89.305.211.72.334 1.246.368V24zm13.98-.229c-.398.144-.75.259-1.055.343a3.36 3.36 0 0 1-1.017.14c-.66 0-1.19-.152-1.588-.457-.39-.314-.64-.767-.75-1.36h-.076c-.551.61-1.144 1.076-1.78 1.398-.627.322-1.385.483-2.275.483-.94 0-1.716-.288-2.326-.865-.602-.576-.903-1.33-.903-2.262 0-.483.068-.915.204-1.296.136-.382.339-.725.61-1.03.212-.254.491-.479.839-.674.347-.203.674-.364.978-.483.382-.144 1.153-.41 2.314-.8 1.17-.39 1.957-.695 2.364-.916v-1.258c0-.11-.025-.322-.076-.635a2.56 2.56 0 0 0-.293-.89 2.441 2.441 0 0 0-.724-.813c-.305-.238-.742-.356-1.31-.356-.39 0-.754.067-1.092.203-.33.127-.564.263-.7.407 0 .17.039.42.115.75a3.7 3.7 0 0 1 .127.915c0 .296-.136.568-.407.813-.262.246-.631.369-1.105.369-.424 0-.738-.148-.941-.445a1.85 1.85 0 0 1-.292-1.017c0-.39.135-.762.406-1.118.28-.356.64-.674 1.08-.954a5.676 5.676 0 0 1 1.386-.597 5.31 5.31 0 0 1 1.589-.254c.712 0 1.33.05 1.856.152a3.36 3.36 0 0 1 1.449.623c.432.314.758.742.978 1.284.23.534.343 1.224.343 2.072a118.6 118.6 0 0 1-.038 3.228c-.025.932-.038 1.953-.038 3.063 0 .33.055.593.165.788.119.195.297.36.534.496.127.076.327.119.598.127.28.008.563.013.851.013v.813zm-4.436-6.71a27.71 27.71 0 0 0-1.894.622 7.67 7.67 0 0 0-1.512.763 3.41 3.41 0 0 0-1.004 1.03c-.246.389-.369.855-.369 1.397 0 .704.182 1.22.547 1.55.373.331.843.497 1.41.497.602 0 1.132-.144 1.59-.433a4.729 4.729 0 0 0 1.156-1.042l.076-4.385zm17.781-1.577h-.775a7.06 7.06 0 0 0-.344-.839 7.816 7.816 0 0 0-.483-.915 4.19 4.19 0 0 0-.635-.826c-.229-.246-.47-.386-.724-.42a12.644 12.644 0 0 0-.878-.05 16.007 16.007 0 0 0-.826-.026v9.33c0 .288.06.525.178.711.119.187.297.33.534.432.186.085.398.149.636.191.237.043.47.072.699.09V24h-6.38v-.839c.194-.017.414-.034.66-.05a2.61 2.61 0 0 0 .61-.102.894.894 0 0 0 .521-.394c.119-.195.178-.445.178-.75v-9.457a53.89 53.89 0 0 0-.915.038 13.95 13.95 0 0 0-.8.039c-.221.017-.458.156-.713.419a5.901 5.901 0 0 0-.648.826 7.34 7.34 0 0 0-.495.966c-.153.348-.259.61-.318.788h-.775v-4.016h11.693v4.016zM104.663 24h-6.127v-.839c.195-.017.394-.034.598-.05.212-.018.394-.052.546-.102.238-.077.42-.208.547-.394.127-.195.191-.445.191-.75v-3.991h-5.58v3.864c0 .288.06.525.178.711.118.187.296.33.533.432.178.085.37.149.572.191.212.043.428.072.649.09V24h-6.127v-.839c.195-.017.394-.034.598-.05.212-.018.394-.052.546-.102a.895.895 0 0 0 .521-.394c.119-.195.178-.445.178-.75V13.73c0-.28-.059-.513-.178-.699a1.118 1.118 0 0 0-.533-.445 2.485 2.485 0 0 0-.649-.203 8.224 8.224 0 0 0-.572-.076v-.84h6.127v.84a9.887 9.887 0 0 0-.648.063 6.571 6.571 0 0 0-.496.09.869.869 0 0 0-.534.406c-.11.195-.165.44-.165.737v3.228h5.58v-3.1c0-.28-.06-.514-.178-.7a1.12 1.12 0 0 0-.534-.445 2.484 2.484 0 0 0-.648-.203 8.213 8.213 0 0 0-.572-.076v-.84h6.126v.84a9.832 9.832 0 0 0-.648.063 6.617 6.617 0 0 0-.496.09.871.871 0 0 0-.534.406c-.11.195-.165.44-.165.737v8.135c0 .296.051.538.152.724.102.178.276.318.522.42.178.084.368.148.572.19.211.043.427.072.648.09V24zm11.756-3.915c0-.712-.259-1.317-.776-1.817-.516-.509-1.271-.763-2.262-.763-.415 0-.758.017-1.03.05a7.188 7.188 0 0 1-.622.039v4.474c0 .356.127.623.381.8.263.179.733.268 1.411.268.576 0 1.055-.093 1.436-.28.39-.186.686-.424.89-.712.22-.313.368-.64.445-.978.084-.34.127-.7.127-1.08zm2.567.064c0 .67-.144 1.25-.432 1.741a3.777 3.777 0 0 1-1.118 1.195 5.191 5.191 0 0 1-1.526.686 6.637 6.637 0 0 1-1.754.229h-6.609v-.839l.597-.05c.212-.018.394-.052.547-.102a.895.895 0 0 0 .521-.394c.119-.195.178-.445.178-.75V13.73c0-.28-.059-.513-.178-.699a1.12 1.12 0 0 0-.534-.445 2.478 2.478 0 0 0-.648-.203 8.184 8.184 0 0 0-.572-.076v-.84h6.317v.84c-.254.016-.504.038-.75.063a3.324 3.324 0 0 0-.597.09c-.263.075-.445.22-.547.431a1.62 1.62 0 0 0-.152.712v2.987c.339-.009.627-.017.864-.026.246-.016.597-.025 1.055-.025.822 0 1.542.068 2.161.203.627.128 1.169.327 1.627.598.491.288.872.657 1.143 1.106.272.449.407 1.016.407 1.703zM125.443 24h-6.114v-.839l.585-.05c.203-.018.381-.052.534-.102.237-.077.419-.208.546-.394.128-.195.191-.445.191-.75V13.73c0-.28-.059-.513-.178-.699a1.116 1.116 0 0 0-.534-.445 2.478 2.478 0 0 0-.648-.203 8.184 8.184 0 0 0-.572-.076v-.84h6.139v.84a9.832 9.832 0 0 0-.648.063 6.617 6.617 0 0 0-.496.09.871.871 0 0 0-.534.406c-.11.195-.165.44-.165.737v8.135c0 .296.051.538.153.724.101.178.275.318.521.42.178.084.368.148.572.19.212.043.428.072.648.09V24zm16.98 0h-6.088v-.839l.597-.05c.212-.018.394-.052.547-.102.237-.077.419-.208.546-.394.127-.195.191-.445.191-.75V15.28l-5.771 6.24v.217c0 .288.06.525.178.711.119.187.297.33.534.432.187.085.381.149.585.191.212.043.432.072.661.09V24h-6.089v-.839l.598-.05c.212-.018.394-.052.546-.102a.897.897 0 0 0 .522-.394c.118-.195.177-.445.177-.75V13.73c0-.28-.059-.513-.177-.699a1.12 1.12 0 0 0-.534-.445 2.496 2.496 0 0 0-.649-.203 8.24 8.24 0 0 0-.571-.076v-.84h6.088v.84a9.832 9.832 0 0 0-.648.063 6.526 6.526 0 0 0-.496.09.871.871 0 0 0-.534.406c-.11.195-.165.44-.165.737v6.482l5.77-6.253c0-.373-.059-.648-.178-.826a1.169 1.169 0 0 0-.534-.42 2.46 2.46 0 0 0-.661-.203 9.17 9.17 0 0 0-.584-.076v-.84h6.088v.84a9.832 9.832 0 0 0-.648.063 6.617 6.617 0 0 0-.496.09.871.871 0 0 0-.534.406c-.11.195-.165.44-.165.737v8.135c0 .296.051.538.153.724.101.178.275.318.521.42.178.084.368.148.572.19.211.043.428.072.648.09V24zm-2.796-17.68c0 .263-.081.576-.242.94a2.607 2.607 0 0 1-.686.954 4.225 4.225 0 0 1-1.297.762c-.5.195-1.182.293-2.046.293-.813 0-1.487-.098-2.021-.293-.534-.203-.97-.457-1.309-.762a2.789 2.789 0 0 1-.699-.953c-.136-.348-.204-.661-.204-.941 0-.407.119-.737.356-.991a1.16 1.16 0 0 1 .877-.394c.314 0 .606.093.877.28.272.186.407.49.407.914 0 .246-.051.522-.152.827a9.64 9.64 0 0 1-.242.648c.229.28.53.487.902.623.382.135.784.203 1.208.203.373 0 .767-.064 1.182-.19.415-.136.737-.348.966-.636-.068-.161-.153-.39-.254-.687a2.773 2.773 0 0 1-.14-.788c0-.423.136-.728.407-.915.271-.186.559-.28.864-.28.347 0 .64.132.877.395.246.254.369.584.369.991zm21.236 18.1a7.81 7.81 0 0 1-3.101-.636 7.95 7.95 0 0 1-2.618-1.83c-.754-.797-1.356-1.767-1.805-2.911-.449-1.152-.674-2.449-.674-3.89 0-1.44.221-2.745.661-3.914.441-1.178 1.051-2.19 1.83-3.038a8.027 8.027 0 0 1 2.733-1.945 8.346 8.346 0 0 1 3.368-.686c.89 0 1.695.11 2.415.33.721.22 1.407.53 2.059.928l.522-.864h1.016l.115 6.431h-1.042a14.867 14.867 0 0 0-.611-2.033c-.271-.737-.588-1.36-.953-1.869a4.557 4.557 0 0 0-1.449-1.347c-.559-.33-1.199-.495-1.919-.495-.822 0-1.589.182-2.301.546-.703.364-1.313.902-1.83 1.614-.491.687-.877 1.56-1.157 2.619-.279 1.059-.419 2.24-.419 3.546 0 1.152.144 2.211.432 3.177.297.958.716 1.8 1.258 2.53a6.066 6.066 0 0 0 1.92 1.69c.745.407 1.576.61 2.491.61a5.45 5.45 0 0 0 1.894-.318 5.198 5.198 0 0 0 1.5-.864 6.706 6.706 0 0 0 1.118-1.27c.322-.475.585-.992.788-1.551l.953.457c-.728 1.788-1.694 3.067-2.898 3.838-1.203.763-2.635 1.144-4.296 1.144zm20.628-3.369c-.525 1-1.229 1.797-2.11 2.39-.881.593-1.894.89-3.038.89-1.008 0-1.893-.178-2.656-.534a5.212 5.212 0 0 1-1.868-1.45 6.235 6.235 0 0 1-1.106-2.135 9.18 9.18 0 0 1-.356-2.58c0-.813.127-1.61.381-2.39a6.854 6.854 0 0 1 1.144-2.122 5.46 5.46 0 0 1 1.792-1.449c.721-.373 1.526-.56 2.415-.56.915 0 1.699.145 2.352.433.652.288 1.182.682 1.588 1.182.39.474.678 1.034.865 1.678.195.644.292 1.343.292 2.097v.839h-8.3c0 .822.077 1.567.229 2.237.161.67.411 1.258.75 1.767.33.491.763.88 1.296 1.169.534.28 1.17.42 1.907.42.754 0 1.402-.174 1.945-.522.55-.356 1.08-.991 1.588-1.906l.89.546zm-2.809-4.779c0-.474-.042-.983-.127-1.525-.076-.542-.203-.996-.381-1.36a2.585 2.585 0 0 0-.801-.953c-.339-.246-.775-.369-1.309-.369-.89 0-1.631.373-2.224 1.119-.585.737-.903 1.766-.954 3.088h5.796zm15.658 4.106c0 1.177-.525 2.13-1.576 2.86-1.042.728-2.406 1.093-4.093 1.093a7.44 7.44 0 0 1-2.059-.267c-.61-.17-1.122-.403-1.538-.7a3.289 3.289 0 0 1-.915-1.004 2.427 2.427 0 0 1-.318-1.22c0-.381.102-.695.306-.94.203-.246.521-.369.953-.369.457 0 .805.123 1.042.369.237.245.356.504.356.775 0 .246-.038.538-.114.877a13.29 13.29 0 0 1-.178.788c.22.22.542.402.966.546.423.136.919.204 1.487.204.881 0 1.614-.263 2.199-.788.584-.526.877-1.267.877-2.224 0-.288-.039-.58-.115-.877a1.802 1.802 0 0 0-.432-.789c-.212-.228-.5-.415-.864-.559-.365-.144-.843-.216-1.437-.216h-1.334v-1.182h1.093c1.017 0 1.729-.212 2.135-.635.407-.433.61-1.098.61-1.996 0-.627-.195-1.123-.584-1.487-.39-.373-.928-.56-1.615-.56-.499 0-.944.11-1.334.331a3.99 3.99 0 0 0-1.08.877c-.297.34-.56.738-.788 1.195-.221.45-.403.873-.547 1.271h-.852l.077-4.537h.851l.458.699c.423-.195.932-.377 1.525-.547a7.45 7.45 0 0 1 2.021-.254c.932 0 1.69.114 2.275.343.585.22 1.038.487 1.36.8.314.306.525.632.636.98.11.338.165.618.165.838 0 .288-.047.585-.14.89a2.16 2.16 0 0 1-.496.852c-.237.27-.567.525-.991.762-.415.229-.941.407-1.576.534v.165c.398.017.805.08 1.22.19.424.111.813.285 1.169.522.382.263.674.593.877.992.212.39.318.855.318 1.398zm15.226-2.771c0 .881-.14 1.75-.419 2.605-.28.848-.678 1.568-1.195 2.161a5.566 5.566 0 0 1-2.034 1.513c-.771.33-1.635.495-2.593.495a5.917 5.917 0 0 1-2.275-.445 5.81 5.81 0 0 1-1.919-1.321c-.551-.568-.992-1.259-1.322-2.072-.322-.822-.483-1.741-.483-2.758 0-1.958.568-3.56 1.703-4.805 1.144-1.245 2.64-1.868 4.487-1.868 1.754 0 3.199.593 4.334 1.78 1.144 1.177 1.716 2.749 1.716 4.715zm-2.631.025c0-.635-.064-1.305-.191-2.008-.127-.712-.317-1.313-.572-1.805a3.46 3.46 0 0 0-1.067-1.258c-.441-.322-.979-.483-1.614-.483-.653 0-1.212.16-1.678.483-.458.322-.831.762-1.119 1.322a5.849 5.849 0 0 0-.572 1.766c-.11.661-.165 1.301-.165 1.92 0 .813.064 1.567.191 2.262.135.686.347 1.3.635 1.843.288.542.648.97 1.081 1.284.44.305.983.457 1.627.457 1.059 0 1.898-.512 2.516-1.538.619-1.025.928-2.44.928-4.245zM226.47 24h-6.127v-.839c.195-.017.394-.034.598-.05.211-.018.394-.052.546-.102a1.02 1.02 0 0 0 .547-.394c.127-.195.19-.445.19-.75v-3.991h-5.579v3.864c0 .288.059.525.178.711.118.187.296.33.533.432.178.085.369.149.572.191.212.043.428.072.649.09V24h-6.127v-.839c.195-.017.394-.034.598-.05.211-.018.394-.052.546-.102a.895.895 0 0 0 .521-.394c.119-.195.178-.445.178-.75V13.73c0-.28-.059-.513-.178-.699a1.112 1.112 0 0 0-.534-.445 2.478 2.478 0 0 0-.648-.203 8.184 8.184 0 0 0-.572-.076v-.84h6.127v.84a9.937 9.937 0 0 0-.649.063 6.496 6.496 0 0 0-.495.09.866.866 0 0 0-.534.406c-.11.195-.165.44-.165.737v3.228h5.579v-3.1c0-.28-.059-.514-.178-.7a1.114 1.114 0 0 0-.533-.445 2.496 2.496 0 0 0-.649-.203 8.184 8.184 0 0 0-.572-.076v-.84h6.127v.84a9.832 9.832 0 0 0-.648.063 6.526 6.526 0 0 0-.496.09.871.871 0 0 0-.534.406c-.11.195-.165.44-.165.737v8.135c0 .296.051.538.152.724.102.178.276.318.521.42.178.084.369.148.572.19.212.043.428.072.649.09V24z" fill="#fff"/></svg>