<svg xmlns="http://www.w3.org/2000/svg" width="24" height="15.42" viewBox="0 0 24 15.42"><g data-name="Group 96" fill="#c9ced8"><path data-name="Path 10" d="M.869 1.449c.638.348 9.623 5.159 9.971 5.333a2.7 2.7 0 0 0 2.435 0c.348-.174 9.333-4.986 9.971-5.333S24.524 0 23.304 0H.811C-.406 0 .173 1.1.869 1.449z"/><path data-name="Path 11" d="M23.478 4.116c-.754.406-9.8 5.1-10.261 5.333a2.354 2.354 0 0 1-1.217.29 2.354 2.354 0 0 1-1.217-.29C10.319 9.218 1.275 4.464.522 4.116 0 3.826 0 4.174 0 4.406v9.739a1.538 1.538 0 0 0 1.333 1.275h21.334A1.538 1.538 0 0 0 24 14.145V4.406c0-.232 0-.58-.522-.29z"/></g></svg>