<svg width="44" height="44" viewBox="0 0 44 44" fill="none" xmlns="http://www.w3.org/2000/svg"><circle cx="21.621" cy="21.621" r="21.216" fill="#033953" stroke="#828FA2" stroke-width=".81"/><mask id="a" maskUnits="userSpaceOnUse" x="0" y="0" width="44" height="44"><circle cx="21.621" cy="21.621" r="21.621" fill="#033953"/></mask><g mask="url(#a)"><path fill-rule="evenodd" clip-rule="evenodd" d="M43.826 30.353v2.065h.549v13.935H25.458V41.84s-.795-1.86-3.97-1.86c-3.17 0-3.669 1.86-3.669 1.86v4.513H-1.13V32.418h.554v-2.065s.435-.023.824.366c.39.39.412.967.412.967s.189-.732.51-.99c.383-.32.726-.343.726-.343v2.065h.996v-2.065s.44-.023.824.366c.389.39.412.967.412.967s.188-.732.509-.99c.389-.32.727-.343.727-.343v2.065h.988v-2.065s.435-.023.824.366c.39.39.412.967.412.967s.19-.732.51-.99c.383-.32.726-.343.726-.343v2.065h.99v-2.065s.435-.023.824.366c.39.39.412.967.412.967s.19-.732.51-.99c.389-.32.726-.343.726-.343v2.065h.447l.286-2.162 1.213 2.328.972-.886 1.448.823-.04-7.362.515 1.385h.452s-.132-3.93-.132-5.097c0-.156 0-.325-.002-.503-.008-1.16-.018-2.709.26-3.432.32-.83.578-1.665.578-1.665l.32.995.515-.057 1.992-9.37.251-.274.138-.733-1.643 1.19.704-2.162-1.848-1.344h2.277l.704-2.168.704 2.162h2.283L22.837 5.43l.704 2.163L21.7 6.26l.16.875.258.28 1.985 9.37.515.057.32-.995s.264.835.578 1.665c.278.718.268 2.27.26 3.432a77.06 77.06 0 0 0-.002.503c0 1.167-.126 5.097-.126 5.097h.446l.515-1.385.264 7.23 1.144-.691 1.413.692.773-2.134.286 2.162h.469v-2.065s.435-.023.824.366c.39.39.412.967.412.967s.189-.732.51-.99c.388-.32.726-.343.726-.343v2.065h.994v-2.065s.435-.023.825.366c.389.39.411.967.411.967s.19-.732.51-.99c.383-.32.726-.343.726-.343v2.065h.99v-2.065s.44-.023.83.366c.39.39.412.967.412.967s.189-.732.51-.99c.383-.32.726-.343.726-.343v2.065h.99v-2.065s.435-.023.824.366c.389.39.412.967.412.967s.189-.732.509-.99c.39-.32.727-.343.727-.343zM12.96 45.558h.367V33.797h-.367v11.76zm1.276-10.754h2.123s-.017-.898.006-1.242c.008-.172-.051-.192-.12-.214-.073-.024-.157-.052-.183-.266-.052-.378-.641-.566-.75-.595v-.006l-.006.006c-.005-.006-.011-.006-.011-.006v.006c-.109.029-.704.217-.75.595-.029.21-.113.239-.187.263-.07.024-.13.044-.122.218.023.348 0 1.24 0 1.24zm-7.347.944h1.528s-.017-.641-.006-.893c.006-.125-.038-.14-.088-.155-.052-.017-.111-.036-.129-.188-.034-.275-.458-.406-.538-.429h-.011c-.08.023-.504.16-.538.429-.02.152-.08.171-.131.188-.05.016-.092.03-.087.155.012.252 0 .893 0 .893zm-3.616-.893c.012.252 0 .893 0 .893h1.522s-.011-.641 0-.893c.006-.125-.038-.14-.088-.155-.052-.017-.112-.036-.13-.188-.034-.274-.461-.406-.537-.429h-.012c-.074.023-.497.16-.532.429-.023.152-.084.171-.136.188-.05.016-.093.03-.087.155zm-3.376.893h1.528s-.017-.641-.006-.893c.006-.125-.038-.14-.088-.155-.052-.017-.112-.036-.13-.188-.034-.275-.457-.406-.537-.429H.653c-.08.023-.503.16-.537.429-.02.152-.08.171-.132.188-.05.016-.091.03-.086.155.012.252 0 .893 0 .893zm41.965-.893c.011.252 0 .893 0 .893h1.522s-.011-.641 0-.893c.006-.125-.038-.14-.088-.155-.052-.017-.112-.036-.13-.188-.034-.275-.457-.406-.537-.429h-.012c-.074.023-.497.16-.532.429-.02.152-.081.171-.134.188-.05.016-.094.03-.089.155zm-3.622.893h1.528s-.017-.641-.006-.893c.006-.125-.038-.14-.088-.155-.052-.017-.112-.036-.13-.188-.034-.274-.461-.406-.537-.429h-.012c-.074.023-.497.16-.532.429-.02.152-.081.171-.134.188-.05.016-.094.03-.089.155.017.252 0 .893 0 .893zm-3.37 0h1.522s-.012-.641.006-.893c.005-.125-.038-.14-.088-.155-.053-.017-.112-.036-.13-.188-.034-.274-.462-.406-.537-.429h-.012c-.08.023-.504.16-.538.429-.02.152-.081.171-.134.188-.051.016-.095.03-.09.155.012.252 0 .893 0 .893zm-9.979-18.77c-.034.1-.1.29-.178.573-.044.157-.08.236-.109.298-.052.114-.078.169-.074.543 0 .38.01 1.069.016 1.51l.001.126c.258.035.51.075.761.115 0-.173.004-.47.008-.785.005-.352.01-.724.01-.966 0-.371-.029-.43-.083-.543a1.667 1.667 0 0 1-.112-.297 10.224 10.224 0 0 0-.206-.641v-.023l-.006.011c0-.011-.005-.011-.005-.011v.023a2.248 2.248 0 0 1-.023.068zm-1.4.672a1.567 1.567 0 0 1-.254-.322c-.24-.4-.412-.629-.47-.697v-.023s0 .005-.005.011c-.006-.006-.006-.011-.006-.011v.023l-.042.06a9.769 9.769 0 0 0-.415.637c-.103.17-.188.255-.254.322-.121.123-.181.184-.181.588 0 .31.013.815.025 1.248.003.135.006.264.01.377.594.01 1.172.051 1.733.108.017-.463.04-1.298.04-1.733 0-.404-.06-.465-.181-.588zm-.077-.728l-1.47-9.146-.126 9.146s.126.286.59-.52c.463-.807 1.006.52 1.006.52zm-1.956 0l-.126-9.146-1.47 9.146s.543-1.321 1.006-.52c.464.806.59.52.59.52zm-1.01-.231c-.074.106-.223.317-.415.637a1.57 1.57 0 0 1-.252.322c-.12.123-.18.184-.183.588 0 .36.016.989.028 1.456l.006.249a21.37 21.37 0 0 1 1.734-.086 55.4 55.4 0 0 0 .034-1.62c0-.403-.06-.463-.181-.587-.066-.067-.15-.152-.254-.322-.234-.4-.406-.629-.457-.697v-.023s-.006.005-.006.011l-.012-.011v.023a3.42 3.42 0 0 1-.041.06zm4.311 7.422a3.22 3.22 0 0 0-3.216-3.227 3.214 3.214 0 0 0-3.221 3.227 3.22 3.22 0 0 0 6.437 0zm-6.454-7.202a8.96 8.96 0 0 0-.206.64c-.045.159-.082.238-.11.3-.053.113-.08.169-.08.541 0 .44.012 1.31.018 1.705l.202-.029c.182-.026.367-.053.56-.074 0-.062 0-.13.002-.204.006-.439.014-1.05.014-1.398 0-.374-.026-.431-.08-.546a1.904 1.904 0 0 1-.109-.294 10.224 10.224 0 0 0-.206-.641v-.023l-.005.011v.012zM17.19 39.07h1.396s-.011-.274 0-.389c.008-.049-.028-.054-.071-.06-.048-.006-.105-.014-.123-.083-.032-.117-.37-.17-.473-.186-.008 0-.015-.002-.02-.003h-.011l-.005.001c-.085.013-.46.07-.493.188-.018.065-.074.074-.122.08-.045.008-.084.013-.078.063.011.114 0 .39 0 .39zm2.375-.389c.011.114 0 .39 0 .39h1.396s-.012-.276 0-.39c.002-.049-.035-.054-.08-.06-.048-.006-.105-.014-.126-.083-.021-.116-.361-.17-.466-.186-.009 0-.016-.002-.02-.003h-.012l-.012.002c-.094.016-.448.073-.48.187-.018.065-.074.074-.123.08-.045.008-.083.013-.077.063zm-1.671-.96h7.398v-4.817s-.744.143-.835-.567c-.08-.615-.305-.75-.98-1.152-.097-.058-.203-.121-.319-.192-.87-.531-.924-.876-1.002-1.385-.006-.033-.01-.067-.017-.102l-.027-.174c-.07-.454-.113-.737-.51-.747h-.018c-.397.01-.44.293-.51.747a14.67 14.67 0 0 1-.044.278c-.079.503-.134.852-1.002 1.383-.113.07-.216.131-.311.188-.68.406-.902.539-.988 1.156-.091.71-.835.567-.835.567v4.816zm4.045.96c.012.114 0 .39 0 .39h1.396s-.011-.276 0-.39c.006-.049-.032-.054-.076-.06-.049-.006-.106-.014-.124-.083-.027-.12-.379-.172-.478-.187a2.15 2.15 0 0 1-.014-.002h-.012l-.012.002c-.093.016-.447.073-.48.187-.017.065-.073.074-.122.08-.045.008-.083.013-.078.063zm2.375 0c.011.114 0 .39 0 .39h1.396s-.017-.276.006-.39c.005-.049-.032-.054-.076-.06-.05-.006-.107-.014-.125-.083-.032-.12-.384-.172-.484-.187a1.5 1.5 0 0 1-.013-.002h-.006l-.005.001c-.085.013-.46.07-.493.188-.018.065-.074.074-.122.08-.045.008-.084.013-.078.063zm4.835-3.884s-.017-.892 0-1.241c.011-.173-.049-.192-.118-.215-.074-.024-.159-.052-.185-.266-.052-.377-.641-.566-.75-.595v-.005l-.006.005-.011-.005v.005c-.109.029-.704.218-.75.595-.026.21-.11.239-.182.264-.07.023-.13.043-.121.217.017.349 0 1.241 0 1.241h2.123zm.675 10.76h.366v-11.76h-.366v11.76zM21.544 26.9a2.787 2.787 0 0 0 2.787-2.791 2.79 2.79 0 0 0-2.786-2.792 2.796 2.796 0 0 0-2.793 2.791 2.788 2.788 0 0 0 2.793 2.792zm.098-2.677v.429h-.206v-.269l-.109.08-.086-.114.2-.155v-1.933h.207v1.779l1.728-1.356.091.12-1.825 1.419zm2.477 8.516c-.07-.52-.267-.633-.858-.974-.085-.05-.178-.103-.28-.164-.772-.448-.816-.743-.881-1.178a16.6 16.6 0 0 0-.012-.08l-.027-.153c-.064-.384-.103-.614-.448-.62v-.005l-.004.001a.005.005 0 0 0-.002.004c0-.005-.006-.005-.006-.005v.005c-.352.005-.39.243-.451.628l-.023.145-.015.086c-.069.432-.116.727-.884 1.172l-.28.164c-.592.34-.789.455-.859.974-.085.601-.732.48-.732.48v4.068h6.512V33.22h-.01c-.08.011-.659.086-.74-.48z" fill="#828FA2"/></g></svg>