<svg width="30" height="30" viewBox="0 0 30 30" fill="none" xmlns="http://www.w3.org/2000/svg"><circle cx="15" cy="15" r="14.5" fill="#033953" stroke="#828FA2"/><mask id="a" maskUnits="userSpaceOnUse" x="0" y="0" width="30" height="30"><circle cx="15" cy="15" r="15" fill="#033953"/></mask><g mask="url(#a)"><path fill-rule="evenodd" clip-rule="evenodd" d="M30.404 21.058v1.432h.381v9.667H17.662v-3.13s-.552-1.29-2.755-1.29c-2.2 0-2.545 1.29-2.545 1.29v3.13H-.785V22.49H-.4v-1.432s.301-.016.571.254c.27.27.286.67.286.67s.131-.508.353-.686c.266-.222.505-.238.505-.238v1.432h.691v-1.432s.305-.016.57.254c.27.27.287.67.287.67s.13-.508.353-.686c.27-.222.504-.238.504-.238v1.432h.687v-1.432s.302-.016.572.254c.27.27.285.67.285.67s.131-.508.354-.686c.266-.222.504-.238.504-.238v1.432h.687v-1.432s.301-.016.571.254c.27.27.286.67.286.67s.131-.508.353-.686c.27-.222.504-.238.504-.238v1.432h.31l.199-1.5.841 1.615.675-.615 1.004.572-.027-5.108.357.96h.313s-.09-2.726-.09-3.535l-.003-.35c-.005-.804-.012-1.878.18-2.38.223-.576.402-1.155.402-1.155l.222.69.357-.04 1.382-6.5.174-.19.096-.508-1.14.825.489-1.5-1.283-.932h1.58l.489-1.505.488 1.5h1.584l-1.278.933.488 1.5-1.279-.924.112.607.178.194 1.378 6.5.357.04.222-.69s.183.58.401 1.155c.193.498.186 1.575.18 2.38l-.001.35c0 .81-.087 3.536-.087 3.536h.31l.356-.96.183 5.015.794-.48.98.48.536-1.48.199 1.5h.325v-1.432s.302-.016.572.254c.27.27.286.67.286.67s.13-.508.353-.686c.27-.222.504-.238.504-.238v1.432h.691v-1.432s.302-.016.572.254c.27.27.285.67.285.67s.131-.508.354-.686c.266-.222.504-.238.504-.238v1.432h.687v-1.432s.305-.016.575.254c.27.27.286.67.286.67s.131-.508.353-.686c.266-.222.505-.238.505-.238v1.432h.686v-1.432s.302-.016.572.254c.27.27.286.67.286.67s.13-.508.353-.686c.27-.222.504-.238.504-.238zM8.992 31.606h.254v-8.16h-.254v8.16zm.885-7.46h1.473s-.012-.624.004-.862c.006-.12-.036-.133-.084-.149-.05-.017-.108-.036-.127-.184-.035-.262-.444-.393-.52-.413v-.004l-.004.004c-.003-.004-.008-.004-.008-.004v.004c-.075.02-.488.15-.52.413-.02.146-.078.165-.13.182-.048.017-.09.03-.084.151.016.242 0 .861 0 .861zM4.78 24.8h1.06s-.012-.445-.004-.62c.004-.086-.026-.096-.061-.107-.036-.012-.078-.025-.09-.13-.024-.19-.317-.282-.373-.298h-.008c-.056.016-.35.111-.373.298-.014.105-.055.118-.091.13-.034.011-.064.02-.06.108.008.174 0 .619 0 .619zm-2.509-.62c.008.175 0 .62 0 .62h1.056s-.008-.445 0-.62c.004-.086-.026-.096-.06-.107-.037-.012-.079-.025-.09-.13-.024-.19-.321-.282-.374-.298h-.008c-.051.016-.345.111-.369.298-.016.105-.058.118-.094.13-.035.011-.065.02-.06.108zm-2.342.62H.99s-.012-.445-.004-.62c.004-.086-.026-.096-.061-.107-.036-.012-.078-.025-.09-.13-.024-.19-.317-.282-.373-.298H.453c-.055.016-.35.111-.373.298-.014.105-.055.118-.091.13-.034.011-.064.02-.06.108.008.174 0 .619 0 .619zm29.114-.62c.008.175 0 .62 0 .62h1.056s-.008-.445 0-.62c.003-.086-.027-.096-.061-.107-.037-.012-.078-.025-.09-.13-.024-.19-.318-.282-.373-.298h-.008c-.052.016-.346.111-.37.298-.014.105-.056.118-.093.13-.035.011-.065.02-.061.108zm-2.513.62h1.06s-.012-.445-.004-.62c.004-.086-.027-.096-.061-.107-.037-.012-.078-.025-.09-.13-.024-.19-.32-.282-.373-.298h-.008c-.052.016-.346.111-.37.298-.014.105-.056.118-.093.13-.035.011-.065.02-.061.108.012.174 0 .619 0 .619zm-2.338 0h1.056s-.008-.445.004-.62c.004-.086-.027-.096-.061-.107-.037-.012-.078-.025-.09-.13-.024-.19-.32-.282-.373-.298h-.008c-.056.016-.35.111-.373.298-.015.105-.057.118-.094.13-.035.011-.065.02-.061.108.008.174 0 .619 0 .619zm-6.923-13.021c-.024.07-.07.201-.123.397a1.242 1.242 0 0 1-.076.207c-.037.079-.054.117-.052.377 0 .262.007.74.011 1.046l.001.089c.179.023.354.051.528.079 0-.12.003-.326.006-.545.003-.244.006-.502.006-.67 0-.257-.02-.298-.057-.376a1.157 1.157 0 0 1-.078-.207 7.092 7.092 0 0 0-.143-.444v-.016l-.004.008c0-.008-.003-.008-.003-.008v.016l-.016.047zm-.972.466c-.046-.047-.104-.106-.176-.223a4.383 4.383 0 0 0-.325-.485v-.016s0 .004-.004.008c-.004-.004-.004-.008-.004-.008v.016l-.03.042c-.051.074-.154.22-.288.442-.071.118-.13.177-.176.224-.084.085-.125.127-.125.408 0 .214.009.565.017.865l.007.261c.412.008.813.036 1.202.076.012-.322.028-.9.028-1.203 0-.28-.041-.322-.126-.407zm-.053-.505l-1.02-6.346-.087 6.346s.087.198.409-.361c.321-.56.698.36.698.36zm-1.357 0l-.088-6.346-1.02 6.346s.377-.917.699-.361c.322.56.409.36.409.36zm-.7-.16c-.052.073-.155.22-.289.441-.07.118-.129.177-.174.223-.084.086-.125.128-.127.409 0 .25.01.686.02 1.01 0 .062.002.12.003.172a14.79 14.79 0 0 1 1.203-.06c.012-.325.024-.84.024-1.123 0-.28-.041-.322-.126-.407a1.092 1.092 0 0 1-.176-.223 4.906 4.906 0 0 0-.317-.485v-.016s-.004.004-.004.008l-.008-.008v.016l-.03.042zm2.99 5.148a2.234 2.234 0 0 0-2.23-2.238 2.23 2.23 0 0 0-2.236 2.238 2.232 2.232 0 1 0 4.466 0zM12.7 11.732c-.016.04-.068.186-.143.444-.031.11-.057.165-.077.208-.036.078-.054.117-.054.376 0 .305.008.908.011 1.182l.14-.02c.127-.018.255-.037.389-.051l.001-.142c.005-.304.01-.728.01-.97 0-.26-.018-.299-.055-.378a1.23 1.23 0 0 1-.076-.205 7.092 7.092 0 0 0-.143-.444v-.016l-.003.008v.008zm-.775 15.374h.969s-.008-.19 0-.27c.006-.034-.02-.038-.05-.042-.033-.004-.072-.01-.085-.058-.022-.08-.256-.117-.328-.128l-.013-.002h-.012c-.059.01-.318.049-.342.13-.012.046-.05.052-.085.057-.03.004-.057.008-.054.043.008.08 0 .27 0 .27zm1.648-.27c.008.08 0 .27 0 .27h.968s-.008-.19 0-.27c.002-.034-.024-.038-.054-.042-.034-.004-.074-.01-.088-.058-.015-.08-.251-.117-.324-.128l-.014-.002h-.008l-.008.001c-.065.01-.31.05-.333.13-.012.045-.051.05-.085.056-.031.004-.058.008-.054.043zm-1.16-.667h5.133v-3.341s-.516.099-.58-.393c-.055-.427-.21-.52-.68-.8l-.22-.133c-.604-.368-.64-.608-.696-.96a13.783 13.783 0 0 0-.03-.192c-.048-.315-.078-.512-.354-.519h-.012c-.276.008-.306.204-.354.519a8.854 8.854 0 0 1-.03.192c-.055.35-.093.592-.696.96l-.216.13c-.471.282-.626.374-.685.803-.063.492-.58.393-.58.393v3.341zm2.807.667c.008.08 0 .27 0 .27h.969s-.008-.19 0-.27c.004-.034-.022-.038-.053-.042-.034-.004-.074-.01-.086-.058-.019-.082-.263-.119-.332-.129l-.01-.001h-.007l-.009.001c-.065.01-.31.05-.333.13-.012.045-.051.05-.085.056-.03.004-.058.008-.054.043zm1.648.27h.968s-.012-.19.004-.27c.004-.034-.022-.038-.053-.042-.033-.004-.073-.01-.086-.058-.022-.082-.266-.119-.335-.129l-.01-.001h-.007c-.06.01-.32.049-.342.13-.013.046-.052.052-.085.057-.032.004-.058.008-.054.043.008.08 0 .27 0 .27zm3.354-2.965s-.012-.619 0-.861c.008-.12-.034-.133-.082-.15-.051-.016-.11-.035-.128-.183-.036-.262-.445-.393-.52-.413v-.004l-.004.004-.008-.004v.004c-.076.02-.489.15-.52.413-.019.146-.076.165-.127.182-.048.017-.09.03-.084.151.012.242 0 .861 0 .861h1.473zm.468 7.465h.255v-8.16h-.255v8.16zm-5.744-12.943a1.936 1.936 0 1 0 0-3.873 1.94 1.94 0 0 0-1.937 1.936c0 1.072.866 1.937 1.937 1.937zm.068-1.857v.297h-.143v-.186l-.075.055-.06-.079.139-.107v-1.342h.143v1.235l1.199-.94.063.082-1.266.985zm1.719 5.908c-.049-.36-.185-.44-.595-.676l-.195-.114c-.536-.31-.566-.515-.611-.817l-.009-.056a9.011 9.011 0 0 1-.018-.106c-.044-.266-.071-.426-.311-.43v-.004s-.004 0-.004.004l-.001-.003h-.003v.003c-.245.004-.27.169-.313.436-.005.032-.01.065-.017.1l-.01.06c-.047.3-.08.504-.613.813a21.4 21.4 0 0 1-.195.114c-.41.236-.546.315-.595.676-.06.417-.508.333-.508.333v2.822h4.518v-2.822h-.006c-.056.008-.458.06-.514-.333z" fill="#828FA2"/></g></svg>