<svg id="Layer_1" data-name="Layer 1" xmlns="http://www.w3.org/2000/svg" width="54.834" height="57.347" viewBox="0 0 54.834 57.347"><defs><style>.cls-1{fill:#828fa2}</style></defs><path class="cls-1" d="M30.272 41.723c-.088-.66-.338-.8-1.087-1.236-.108-.063-.227-.131-.357-.208-.978-.568-1.034-.942-1.116-1.494l-.009-.06-.006-.042c-.013-.067-.023-.132-.034-.193-.081-.487-.131-.78-.569-.786V37.7a.007.007 0 1 1-.014 0c-.447.007-.495.308-.573.8l-.029.183-.013.076v.034c-.088.548-.148.921-1.122 1.486-.129.077-.248.145-.356.208-.749.432-1 .576-1.088 1.236-.108.761-.928.609-.928.609v5.157h8.257v-5.157h-.011c-.107.014-.842.109-.945-.609zm-3.264-7.405a3.54 3.54 0 1 0-3.541-3.54 3.534 3.534 0 0 0 3.541 3.54zm-.131-3.431v-2.452h.261v2.256l2.192-1.719.116.152-2.315 1.8v.544h-.261v-.341l-.138.1-.109-.145z"/><circle cx="27.417" cy="27.417" r="26.917" transform="rotate(-13.283 27.418 27.418)" fill="#033953" stroke="#828fa2"/><path d="M6.316 44.907s-.014-.812 0-1.131c.007-.16-.048-.177-.111-.2s-.142-.045-.165-.238c-.043-.347-.586-.514-.681-.543h-.015m11.791 14.552v-5.568c-.157-.067-.31-.141-.465-.21v5.778zM49 43.383c-.03.141-.092.173-.151.192a7.526 7.526 0 0 1-.11.14.219.219 0 0 0-.012.061c.022.319 0 1.131 0 1.131M49.7 42.8h-.015M38.053 57.347h.464v-5.726c-.155.069-.308.14-.464.206z" fill="none"/><path class="cls-1" d="M48.687 43.589c-.049.065-.1.128-.15.192.063-.019.12-.051.15-.192z"/><path class="cls-1" d="M50.185 38.708a2.986 2.986 0 0 0-.646 1.255 2.035 2.035 0 0 0-.522-1.226 1.5 1.5 0 0 0-1.052-.464v2.618h-1.256v-2.618a1.771 1.771 0 0 0-.921.435 2.986 2.986 0 0 0-.646 1.255 2.035 2.035 0 0 0-.522-1.226 1.491 1.491 0 0 0-1.045-.464v2.618h-1.262v-2.618a1.8 1.8 0 0 0-.922.435 2.986 2.986 0 0 0-.646 1.255 2.035 2.035 0 0 0-.522-1.226 1.491 1.491 0 0 0-1.045-.464v2.618h-.595l-.363-2.741-.979 2.7-1.792-.877-1.449.882-.333-9.168-.653 1.755h-.566s.159-4.983.159-6.463v-.638a15.69 15.69 0 0 0-.329-4.352c-.4-1.052-.733-2.111-.733-2.111l-.406 1.262-.654-.073-2.517-11.881-.327-.355-.2-1.11 2.336 1.69-.892-2.742 2.336-1.7h-2.898l-.892-2.741-.893 2.749h-2.887l2.343 1.7-.894 2.741 2.082-1.509-.174.929-.319.348-2.523 11.881-.653.073-.407-1.262s-.326 1.059-.732 2.111a15.672 15.672 0 0 0-.33 4.352v.638c0 1.48.167 6.463.167 6.463h-.573l-.653-1.755.05 9.335-1.835-1.044-1.231 1.122-1.538-2.95-.363 2.741H15.5v-2.618a1.794 1.794 0 0 0-.921.435 2.986 2.986 0 0 0-.646 1.255 2.035 2.035 0 0 0-.522-1.226 1.491 1.491 0 0 0-1.045-.464v2.618h-1.253v-2.618a1.772 1.772 0 0 0-.922.435 2.986 2.986 0 0 0-.646 1.255 2.035 2.035 0 0 0-.522-1.226 1.491 1.491 0 0 0-1.045-.464v2.618H6.723v-2.618a1.8 1.8 0 0 0-.922.435 2.98 2.98 0 0 0-.645 1.255 2.039 2.039 0 0 0-.523-1.226 1.48 1.48 0 0 0-1.045-.464v1.595a27.025 27.025 0 0 0 12.77 11.907V42.64h.465v9.345a26.742 26.742 0 0 0 5.7 1.694v-.841s.631-2.357 4.651-2.357 5.035 2.357 5.035 2.357v.833a26.687 26.687 0 0 0 5.536-1.638V42.64h.465v9.187a26.994 26.994 0 0 0 10.22-7.906.144.144 0 0 1 .1-.137h.01l.15-.192c0-.015.008-.025.011-.043a.581.581 0 0 1 .317-.388 26.77 26.77 0 0 0 2.091-3.318v-1.57a1.771 1.771 0 0 0-.924.435zM8.66 45.113s.015-.812 0-1.132c-.007-.159.047-.177.109-.2s.141-.045.167-.238c.043-.341.58-.515.682-.544h.014c.1.029.639.2.682.544.023.193.1.217.165.238s.118.038.111.2c-.014.32.007 1.132.007 1.132zm12.008-1.2h-2.691s.029-1.131 0-1.574c-.011-.22.065-.245.154-.275s.2-.067.237-.334c.058-.479.813-.718.951-.754v-.008a.021.021 0 0 1 .014.008l.008-.008v.008c.137.036.885.275.95.754.034.272.14.306.232.337s.163.053.153.272c-.029.438-.008 1.577-.008 1.577zm10.456-21.5a2.3 2.3 0 0 0 .138-.378 12.783 12.783 0 0 1 .254-.812V21.2s.007 0 .007.014l.007-.014v.029c.029.072.124.348.262.812a2.091 2.091 0 0 0 .142.378 1.256 1.256 0 0 1 .1.689c0 .306-.006.778-.011 1.224-.006.4-.011.776-.011 1-.319-.051-.638-.1-.965-.145v-.161c-.007-.559-.019-1.433-.019-1.913a1.25 1.25 0 0 1 .096-.696zm-1.183.493c0 .551-.029 1.61-.05 2.2a26.257 26.257 0 0 0-2.2-.138c0-.143-.008-.306-.012-.477a69.806 69.806 0 0 1-.031-1.583c0-.512.076-.589.23-.745a2.052 2.052 0 0 0 .321-.409c.244-.406.432-.673.527-.808l.053-.076v-.029a.021.021 0 0 0 .008.014.022.022 0 0 0 .007-.014v.029a7.992 7.992 0 0 1 .595.884 1.981 1.981 0 0 0 .321.409c.155.158.231.237.231.747zM27.75 9.643l1.865 11.6s-.689-1.682-1.277-.66-.748.66-.748.66zm-.776 0l.159 11.6s-.159.363-.747-.66-1.277.66-1.277.66zm-1.966 12.521a2.047 2.047 0 0 0 .319-.408c.244-.406.432-.673.527-.808l.053-.076v-.029l.015.014a.024.024 0 0 1 .007-.014v.029a9.06 9.06 0 0 1 .58.884 2.011 2.011 0 0 0 .322.409c.154.156.23.233.23.745s-.022 1.458-.044 2.053q-1.12.01-2.2.108l-.008-.315c-.015-.592-.036-1.39-.036-1.846.007-.51.082-.589.235-.746zm2.234 4.1a4.088 4.088 0 1 1-4.085 4.091 4.084 4.084 0 0 1 4.085-4.087zm-4.508-3.849a2.106 2.106 0 0 0 .14-.38c.138-.471.232-.74.261-.812v-.015l.008-.014v.029c.029.072.123.348.261.812a2.138 2.138 0 0 0 .139.374 1.3 1.3 0 0 1 .1.693c0 .441-.01 1.216-.018 1.772v.259c-.244.026-.479.06-.709.094l-.256.036c-.008-.5-.022-1.6-.022-2.161a1.288 1.288 0 0 1 .096-.683zm.757 26.908H21.72s.015-.348 0-.493c-.006-.063.042-.07.1-.079s.133-.02.156-.1c.042-.149.517-.222.625-.239h.045c.131.021.559.088.6.236.023.087.095.1.156.105s.1.014.091.076c-.017.15-.002.498-.002.498zm3.011 0h-1.77s.014-.348 0-.493c-.007-.063.041-.07.1-.079s.133-.02.156-.1c.041-.145.489-.218.608-.237h.03l.026.005c.133.02.564.087.591.235.026.087.1.1.161.105s.1.014.1.076c-.016.144-.004.492-.004.492zm.718-1.711h-4.607v-6.104a.861.861 0 0 0 1.059-.718c.109-.783.39-.952 1.253-1.467.12-.072.251-.15.394-.238 1.1-.673 1.171-1.116 1.271-1.754l.021-.132.035-.22c.088-.576.143-.935.647-.947h.022c.5.012.559.371.647.947l.035.22.02.13c.1.645.168 1.082 1.271 1.756l.405.244c.856.511 1.141.68 1.242 1.461a.862.862 0 0 0 1.06.718v6.108H27.22zm2.293 1.711h-1.77s.014-.348 0-.493c-.007-.063.042-.07.1-.079s.132-.02.155-.1c.041-.145.489-.218.608-.237h.048c.126.019.572.085.606.237.023.087.1.1.158.105s.1.014.1.076c-.018.147-.005.495-.005.495zm3.011 0h-1.77s.015-.348 0-.493c-.007-.063.042-.07.1-.079s.132-.02.155-.1c.043-.149.517-.222.625-.239h.031c.126.019.572.085.614.237.023.087.095.1.157.105s.1.014.1.076a2.9 2.9 0 0 0-.012.497zm4.361-5.418h-2.692s.022-1.132 0-1.574c-.01-.22.066-.246.154-.275s.2-.067.231-.334c.058-.479.813-.718.95-.755v-.007l.015.007.007-.007v.007c.138.037.885.276.951.755.033.271.141.306.234.336s.164.054.15.273c-.022.446 0 1.578 0 1.578zm9.186 1.2h-1.93s.014-.812 0-1.132c-.007-.159.048-.177.113-.2s.144-.045.17-.238c.043-.341.58-.515.682-.544h.015c.1.03.638.2.682.544.022.193.1.217.164.238s.118.038.111.2c-.022.327-.007 1.14-.007 1.14z"/><path class="cls-1" d="M30.507 41.3c-.089-.659-.338-.8-1.087-1.236a23.19 23.19 0 0 1-.357-.207c-.978-.568-1.034-.942-1.116-1.494l-.009-.06-.007-.042a13.302 13.302 0 0 1-.033-.193c-.082-.487-.131-.78-.569-.786v-.008a.007.007 0 0 0-.007.008.008.008 0 0 0-.008-.008v.008c-.447.006-.5.308-.572.8l-.03.183-.012.076-.006.034c-.087.547-.147.921-1.121 1.486-.13.077-.248.145-.356.207-.75.433-1 .577-1.088 1.236-.109.762-.929.61-.929.61v5.157h8.257V41.91h-.011a.764.764 0 0 1-.939-.61zm-3.265-7.4a3.54 3.54 0 1 0-3.54-3.539 3.534 3.534 0 0 0 3.54 3.539zm-.13-3.431v-2.456h.261v2.256l2.191-1.72.116.153-2.314 1.8v.544h-.261V30.7l-.138.1-.109-.145z"/></svg>