<svg data-name="Group 98" xmlns="http://www.w3.org/2000/svg" width="21.907" height="20.939" viewBox="0 0 21.907 20.939"><path data-name="Path 13" d="M17.006 15.674c-2.844-1.029-3.752-1.937-3.752-3.813 0-1.15.847-.787 1.271-2.844.182-.847.908 0 1.089-2 0-.787-.424-.968-.424-.968a17.85 17.85 0 0 0 .3-2.058C15.614 2.9 14.827 0 10.893 0s-4.72 2.844-4.6 3.994a17.85 17.85 0 0 0 .3 2.058s-.424.182-.424.968c.121 1.937.908 1.089 1.089 2 .363 2.058 1.271 1.695 1.271 2.844 0 1.876-.908 2.784-3.813 3.813S0 17.792 0 18.518v2.421h21.908v-2.421c-.122-.726-1.998-1.818-4.902-2.844z" fill="#c9ced8"/></svg>