<svg data-name="Layer 1" xmlns="http://www.w3.org/2000/svg" width="55.872" height="55.872" viewBox="0 0 55.872 55.872"><circle cx="27.936" cy="27.936" r="27.436" fill="#033953" stroke="#828fa2"/><path d="M44.921 12.935a.445.445 0 0 0-.28-.2 2.46 2.46 0 0 0-.4-.089c-.14-.022-.28-.04-.391-.06a.968.968 0 0 1-.2-.054.143.143 0 0 1-.014-.041 1.891 1.891 0 0 1-.012-.179c0-.152 0-.36.014-.6.019-.47.052-1.048.037-1.525a5.4 5.4 0 0 1 .057-.807c.015-.119.027-.222.029-.3a.448.448 0 0 0-.005-.111.133.133 0 0 0-.066-.108.135.135 0 0 0-.12 0 .225.225 0 0 0-.072.057 2.113 2.113 0 0 0-.28.473c-.095.2-.188.424-.252.594-.457 1.205-.508 2.416-1.088 3.8-.055.045-.11.09-.165.132a4.141 4.141 0 0 1-.28.2v-.007a.913.913 0 0 0 .019-.09.155.155 0 0 0 0-.1.105.105 0 0 0-.06-.055.076.076 0 0 0-.041 0 .149.149 0 0 0-.043.011.805.805 0 0 0-.088.038c-.068.033-.157.079-.256.13a2.748 2.748 0 0 1-.6.241 1.526 1.526 0 0 1-.4-.023 1.414 1.414 0 0 0-.207-.018.217.217 0 0 0-.183.067.487.487 0 0 0-.063.117 2.724 2.724 0 0 0-.072.183c-.05.142-.106.319-.152.5a4.61 4.61 0 0 0-.224.852 13 13 0 0 1-.314.3l-.013-.006a.082.082 0 0 0-.076-.007.086.086 0 0 0-.045.032c-.064.087-.278.309-.383.431l-.02.021-.154.12-.028-.023a.09.09 0 0 0-.079-.017.1.1 0 0 0-.05.03c-.069.083-.3.292-.408.4a.483.483 0 0 1-.072.062l-.017.013a.089.089 0 0 0-.117-.046l-.008.005a.221.221 0 0 0-.091.073 1.082 1.082 0 0 1-.079.088 16.53 16.53 0 0 0-.277.265 1.32 1.32 0 0 0-.066.069.081.081 0 0 0-.054-.032.088.088 0 0 0-.1.049 1.2 1.2 0 0 1-.206.2c-.1.084-.22.167-.3.235a.66.66 0 0 0-.075.074.089.089 0 0 0-.109 0l-.01.007c-.1.1-.316.27-.434.379a.394.394 0 0 0-.068.079.089.089 0 0 0-.116.005c-.1.1-.316.26-.436.371a.633.633 0 0 0-.045.05.088.088 0 0 0-.124.013c-.1.1-.3.264-.415.375a.524.524 0 0 0-.04.046.092.092 0 0 0-.04-.026.089.089 0 0 0-.086.017 4.763 4.763 0 0 0-.43.446.088.088 0 0 0-.125.006l-.012.015c-.188.183-.31.339-.465.479a.089.089 0 0 0-.114.007 5.134 5.134 0 0 0-.475.58l-.051.052a.087.087 0 0 0-.05-.024.087.087 0 0 0-.083.028 4.94 4.94 0 0 0-.362.493.088.088 0 0 0-.112 0 .129.129 0 0 0-.018.016 4.239 4.239 0 0 0-.38.525.076.076 0 0 0-.03-.01.09.09 0 0 0-.086.031 4.64 4.64 0 0 0-.286.417 6.211 6.211 0 0 0-.11.184l-.033.062-.007.016a.088.088 0 0 0-.093-.022.084.084 0 0 0-.053.043c-.1.2-.261.567-.308.691l-.051.088a1.106 1.106 0 0 0-.089.211c-.009.024-.016.048-.023.072v.006c-.026.079-.051.161-.078.233l-.012.031c0 .011-.009.019-.013.029-.067.152-.151.288-.221.438a2.895 2.895 0 0 0-.101.258v.007a3.211 3.211 0 0 0-.069.239.531.531 0 0 1-.056.127.693.693 0 0 0-.072.147l-.014.047v.006a3.881 3.881 0 0 1-.2.693l-.031.071-.053.111-.032.062a4.212 4.212 0 0 1-.506.769c-.014.017-.029.031-.042.045l-.01.009-.011.007h-.008a.4.4 0 0 0-.083.038.09.09 0 0 0-.039.1v.059c0 .009 0 .023 0 0a.141.141 0 0 0 .033.064.171.171 0 0 0 .065.039.41.41 0 0 0 .36-.062 2.246 2.246 0 0 1 .24-.166 2.516 2.516 0 0 0 .479-.246c.134-.1.268-.248.4-.358a1.652 1.652 0 0 1 .229-.154.239.239 0 0 0 .067-.069.457.457 0 0 1 .035-.048.773.773 0 0 1 .261-.167 1.28 1.28 0 0 1 .191-.059.809.809 0 0 0 .27-.134c.535-.4 1.258-.957 1.984-1.558a12.619 12.619 0 0 0 1.87-.62 6.2 6.2 0 0 0 .588-.28.932.932 0 0 0 .159-.1.181.181 0 0 0 .051-.055.117.117 0 0 0 .016-.057.111.111 0 0 0-.033-.074.712.712 0 0 0-.492-.1h-.035a.079.079 0 0 0-.032 0h-.015a.084.084 0 0 0-.028 0 .145.145 0 0 0-.035 0h-.015a.237.237 0 0 0-.049 0 .07.07 0 0 0-.022 0 .137.137 0 0 0-.031 0h-.012a.084.084 0 0 0-.028 0h-.017.026a.091.091 0 0 0-.041 0 .105.105 0 0 0-.053 0h-.012a.221.221 0 0 0-.042 0 .124.124 0 0 0-.054 0 .091.091 0 0 0-.028 0h-.015a.123.123 0 0 0-.053-.007h-.017l.028-.016a.089.089 0 0 0 .043-.088v-.015l.1-.1a.3.3 0 0 1 .08-.046.084.084 0 0 0 .051-.026.09.09 0 0 0 .027-.085l.068-.07a.61.61 0 0 1 .153-.1.077.077 0 0 0 .05-.026.09.09 0 0 0 .016-.11l.077-.085a.589.589 0 0 1 .128-.065.087.087 0 0 0 .047-.021.089.089 0 0 0 .023-.111v-.018c.032-.035.066-.07.1-.1l.01-.006a.623.623 0 0 1 .145-.087.084.084 0 0 0 .043-.019.089.089 0 0 0 .026-.116l.084-.084a.654.654 0 0 1 .166-.089.092.092 0 0 0 .05-.023.088.088 0 0 0 .023-.112v-.008l.078-.075.011-.006a.614.614 0 0 1 .15-.083.093.093 0 0 0 .05-.021.091.091 0 0 0 .024-.117l.087-.084.011-.006.093-.047c.024-.013.052-.025.079-.04a.118.118 0 0 0 .022-.017.086.086 0 0 0 .027-.072.282.282 0 0 0 0-.043l.044-.044h.008l.1-.052.085-.044a.087.087 0 0 0 .021-.017.089.089 0 0 0 .026-.076c0-.018 0-.028-.007-.043l.078-.083c.031-.017.061-.036.092-.055s.052-.029.079-.047a.065.065 0 0 0 .016-.013.087.087 0 0 0 .027-.079c0-.015-.005-.025-.006-.038.038-.043.075-.087.112-.132l.012-.014.042-.021c.022-.011.047-.022.071-.035a.068.068 0 0 0 .023-.018.086.086 0 0 0 .027-.072c0-.022 0-.032-.005-.047l.084-.1a.387.387 0 0 0 .107-.075.067.067 0 0 0 .055-.07v-.074c.022-.028.045-.054.068-.081l.021-.012.074-.045.011-.006.018-.011a.089.089 0 0 0 .028-.105l.02-.023c.042-.021.073-.042.1-.059a.092.092 0 0 0 .046-.076v-.048a4.692 4.692 0 0 0 1.439-.39.1.1 0 0 0 .058-.072.1.1 0 0 0 0-.038.248.248 0 0 0-.012-.054c-.011-.037-.029-.08-.048-.13-.04-.1-.091-.214-.127-.3s-.064-.165-.085-.222a.318.318 0 0 0-.079-.148c.441-.533.884-1.083 1.333-1.639a7.239 7.239 0 0 0 .99-.336 3.657 3.657 0 0 0 .354-.17 1.148 1.148 0 0 0 .111-.071.147.147 0 0 0 .073-.1.123.123 0 0 0-.026-.1.18.18 0 0 0-.056-.046 1.329 1.329 0 0 0-.148-.074 4.069 4.069 0 0 1-.4-.212c.275-.334.552-.668.833-1a4.05 4.05 0 0 1 .4-.411 9.867 9.867 0 0 1 1.253-.512 4.777 4.777 0 0 0 .455-.179.522.522 0 0 0 .137-.088.164.164 0 0 0 .046-.068.131.131 0 0 0-.003-.095zm-7.747 7.88l-.025-.015a.063.063 0 0 1 .025.014zm.286-.318l-.014-.008a.031.031 0 0 1 .014.007zm.281-.336a.12.12 0 0 0-.024-.015s.008 0 .024.013zM25.724 26.58a.585.585 0 0 1 .034.048.25.25 0 0 0 .067.068 1.746 1.746 0 0 1 .229.155c.129.11.265.26.4.358a2.576 2.576 0 0 0 .479.246 2.15 2.15 0 0 1 .24.166.41.41 0 0 0 .36.062.157.157 0 0 0 .065-.039.131.131 0 0 0 .033-.064c0 .023 0 .022 0 0v-.059a.092.092 0 0 0-.04-.1.36.36 0 0 0-.083-.038h-.007l-.012-.007-.009-.009-.043-.045a4.265 4.265 0 0 1-.506-.769l-.032-.062-.053-.111c-.016-.034-.022-.049-.031-.071a3.831 3.831 0 0 1-.2-.693v-.006c0-.015-.009-.031-.014-.047a.808.808 0 0 0-.071-.148.517.517 0 0 1-.057-.126 3.55 3.55 0 0 0-.068-.239v-.007a2.094 2.094 0 0 0-.101-.258c-.068-.151-.154-.286-.221-.438l-.012-.029-.013-.031c-.027-.073-.052-.154-.078-.233v-.006l-.024-.072a1.106 1.106 0 0 0-.089-.211c-.017-.03-.033-.06-.051-.088a7.283 7.283 0 0 0-.308-.691.087.087 0 0 0-.053-.043.089.089 0 0 0-.093.022l-.008-.016-.033-.062c-.028-.049-.067-.113-.11-.184a5.019 5.019 0 0 0-.286-.417.089.089 0 0 0-.086-.031.088.088 0 0 0-.03.01 4.239 4.239 0 0 0-.38-.525.093.093 0 0 0-.018-.016.088.088 0 0 0-.112 0 4.644 4.644 0 0 0-.362-.493.092.092 0 0 0-.083-.028.084.084 0 0 0-.051.024l-.051-.052a4.828 4.828 0 0 0-.475-.58.089.089 0 0 0-.114-.007c-.155-.14-.277-.3-.465-.479l-.011-.015a.089.089 0 0 0-.125-.006c-.04-.049-.088-.1-.153-.17a4.76 4.76 0 0 0-.278-.276.086.086 0 0 0-.085-.017.077.077 0 0 0-.041.026.524.524 0 0 0-.04-.046c-.114-.111-.312-.273-.414-.375a.088.088 0 0 0-.124-.013.607.607 0 0 0-.044-.05c-.12-.111-.335-.274-.437-.371a.088.088 0 0 0-.115 0 .471.471 0 0 0-.068-.079c-.119-.109-.33-.28-.435-.379l-.01-.007a.09.09 0 0 0-.109 0 .586.586 0 0 0-.075-.074c-.075-.067-.191-.151-.295-.235a1.278 1.278 0 0 1-.206-.2.086.086 0 0 0-.1-.049.078.078 0 0 0-.054.032 1.847 1.847 0 0 0-.066-.07c-.048-.048-.208-.2-.277-.264-.03-.029-.053-.058-.079-.088a.221.221 0 0 0-.091-.073h-.008a.089.089 0 0 0-.117.046l-.017-.013a1.106 1.106 0 0 1-.072-.062c-.112-.113-.337-.321-.408-.4a.087.087 0 0 0-.049-.03.092.092 0 0 0-.08.017l-.028.023-.154-.12-.033-.052c-.106-.12-.32-.343-.384-.431a.091.091 0 0 0-.045-.032.088.088 0 0 0-.076.007l-.013.006-.314-.3a4.671 4.671 0 0 0-.224-.852 5.71 5.71 0 0 0-.152-.5 3.23 3.23 0 0 0-.072-.183.487.487 0 0 0-.063-.117.216.216 0 0 0-.183-.067 1.776 1.776 0 0 0-.207.018 1.526 1.526 0 0 1-.4.023 2.748 2.748 0 0 1-.6-.241c-.1-.05-.188-.1-.256-.13a.667.667 0 0 0-.088-.038.149.149 0 0 0-.043-.011.076.076 0 0 0-.041 0 .1.1 0 0 0-.059.055.15.15 0 0 0-.005.1l.019.09v.007a13.058 13.058 0 0 1-.28-.2c-.055-.042-.109-.087-.165-.132-.58-1.379-.632-2.589-1.088-3.795a8.505 8.505 0 0 0-.252-.594 2.029 2.029 0 0 0-.28-.474.245.245 0 0 0-.071-.056.1.1 0 0 0-.109-.007.136.136 0 0 0-.067.108.563.563 0 0 0 0 .111c0 .082.016.186.03.3a5.676 5.676 0 0 1 .057.807c-.015.477.017 1.055.037 1.526.01.235.017.443.013.6a1.449 1.449 0 0 1-.012.179.143.143 0 0 1-.014.041.847.847 0 0 1-.2.054c-.112.02-.251.038-.391.06a2.46 2.46 0 0 0-.4.089.43.43 0 0 0-.277.2.138.138 0 0 0-.006.1.178.178 0 0 0 .046.068.578.578 0 0 0 .137.088c.113.054.269.112.454.178a9.878 9.878 0 0 1 1.254.512 4.384 4.384 0 0 1 .4.411c.283.33.559.665.833 1a3.629 3.629 0 0 1-.4.211c-.059.028-.106.049-.146.072a.2.2 0 0 0-.056.046.135.135 0 0 0-.026.1.148.148 0 0 0 .073.1.915.915 0 0 0 .112.072 3.68 3.68 0 0 0 .354.169 7.467 7.467 0 0 0 .99.337c.449.557.892 1.105 1.332 1.638a.32.32 0 0 0-.079.147c-.021.058-.045.13-.086.223s-.086.2-.126.3c-.02.049-.036.093-.048.13a.316.316 0 0 0-.013.053.1.1 0 0 0 0 .038.1.1 0 0 0 .058.072 4.607 4.607 0 0 0 1.432.39v.043a.085.085 0 0 0 .046.076c.032.017.061.039.1.059l.02.024a.086.086 0 0 0 .029.105.045.045 0 0 0 .017.011l.011.007.074.044.021.012.069.081v.074a.087.087 0 0 0 .045.079.37.37 0 0 0 .135.063l.084.1c0 .015 0 .025-.005.047a.087.087 0 0 0 .028.072.1.1 0 0 0 .022.018c.026.013.049.026.072.035s.028.015.042.021l.011.014c.036.045.074.088.113.132a.325.325 0 0 0-.007.038.091.091 0 0 0 .028.079.051.051 0 0 0 .016.013.963.963 0 0 0 .079.047l.091.055.078.083c0 .013 0 .025-.007.043a.089.089 0 0 0 .026.076.173.173 0 0 0 .021.017c.031.017.059.032.085.044l.1.052h.009c.015.015.03.029.043.044s0 .026-.005.043a.092.092 0 0 0 .027.072.137.137 0 0 0 .023.017c.027.015.054.027.079.04l.093.047.011.006.086.084a.089.089 0 0 0 .024.117.093.093 0 0 0 .051.021.6.6 0 0 1 .149.083l.012.006.078.075v.008a.087.087 0 0 0 .024.112.089.089 0 0 0 .049.023.654.654 0 0 1 .166.089l.084.084a.089.089 0 0 0 .026.116.1.1 0 0 0 .044.019.625.625 0 0 1 .144.087l.01.006c.034.034.066.069.1.1v.021a.088.088 0 0 0 .024.111.081.081 0 0 0 .047.021.59.59 0 0 1 .127.065l.077.085a.09.09 0 0 0 .016.11.1.1 0 0 0 .051.026.646.646 0 0 1 .152.1l.068.07a.085.085 0 0 0 .027.085.084.084 0 0 0 .051.026.444.444 0 0 1 .08.046c.034.032.067.066.1.1v.015a.089.089 0 0 0 .043.088l.029.016h-.018a.125.125 0 0 0-.053.007h-.015a.086.086 0 0 0-.027 0 .128.128 0 0 0-.055 0 .163.163 0 0 0-.042 0h-.013a.135.135 0 0 0-.053 0 .092.092 0 0 0-.041 0h.026-.017a.078.078 0 0 0-.027 0h-.052a.073.073 0 0 0-.022 0 .356.356 0 0 0-.05-.005H21a.132.132 0 0 0-.034 0 .089.089 0 0 0-.029 0h-.015a.079.079 0 0 0-.032 0h-.034a.709.709 0 0 0-.491.1.107.107 0 0 0-.034.074.117.117 0 0 0 .016.057.181.181 0 0 0 .051.055.906.906 0 0 0 .16.1 5.925 5.925 0 0 0 .587.28 12.7 12.7 0 0 0 1.87.62c.727.6 1.45 1.158 1.984 1.558a.818.818 0 0 0 .27.134 1.259 1.259 0 0 1 .192.059.814.814 0 0 1 .263.198zm-7.219-6.419a.1.1 0 0 1 .024-.014zm.281.337a.07.07 0 0 1 .014-.008zm.285.318a.063.063 0 0 1 .029-.016.116.116 0 0 0-.029.016zM30.105 35.6a12.559 12.559 0 0 0-.883-1.761 55.26 55.26 0 0 0-.3-2.505.793.793 0 0 0-.1-.285 1.194 1.194 0 0 1-.094-.178.753.753 0 0 1-.065-.3.317.317 0 0 1 .01-.059.231.231 0 0 0 0-.095 1.671 1.671 0 0 1-.053-.273c-.014-.169 0-.371-.029-.533a2.531 2.531 0 0 0-.165-.514 2.593 2.593 0 0 1-.052-.287.407.407 0 0 0-.21-.3.152.152 0 0 0-.073-.019.129.129 0 0 0-.069.023c.019-.014.018-.012 0 0s-.011.009-.007 0l-.012.01-.01.008-.006.006-.008.007a.085.085 0 0 0-.042.1.48.48 0 0 0 .031.086v.095a4.12 4.12 0 0 1-.187.9l-.021.067c-.014.042-.028.08-.042.116l-.027.072a3.934 3.934 0 0 1-.352.629v.006a.438.438 0 0 0-.024.043.79.79 0 0 0-.053.155.56.56 0 0 1-.05.129c-.038.063-.08.137-.121.217v.007c-.009.018-.019.035-.028.055-.029.063-.058.13-.084.2-.058.154-.094.31-.155.465a.148.148 0 0 1-.012.029c0 .01-.009.022-.014.031-.032.071-.072.146-.11.219v.007l-.034.066a1.166 1.166 0 0 0-.087.213l-.026.1c-.055.12-.2.494-.27.707a.084.084 0 0 0 .008.069.085.085 0 0 0 .081.049l-.006.017c-.007.018-.013.04-.022.068-.014.054-.033.127-.051.207a4.544 4.544 0 0 0-.092.5.089.089 0 0 0 .038.083.087.087 0 0 0 .027.014 4.2 4.2 0 0 0-.1.64.061.061 0 0 0 0 .023.087.087 0 0 0 .08.077 4.552 4.552 0 0 0-.091.6.093.093 0 0 0 .091.1v.073a4.9 4.9 0 0 0-.074.746.087.087 0 0 0 .075.086c.01.208-.013.4-.01.667v.017a.088.088 0 0 0 .084.093 3.06 3.06 0 0 0-.012.228v.392a.09.09 0 0 0 .048.073.1.1 0 0 0 .049.011.376.376 0 0 0 0 .061c0 .158.027.413.028.558v.005a.089.089 0 0 0 .078.1.334.334 0 0 0 0 .066c.006.164.042.431.046.572a.088.088 0 0 0 .078.085.474.474 0 0 0-.009.1c.006.161.035.431.04.575v.012a.09.09 0 0 0 .076.078.719.719 0 0 0 0 .105c.006.1.029.243.044.375a1.21 1.21 0 0 1 0 .287.087.087 0 0 0 .035.1.085.085 0 0 0 .062.016v.1c0 .068.006.287.009.382 0 .041 0 .079-.006.118a.217.217 0 0 0 .012.115v.01a.087.087 0 0 0 .115.049L27 42a.733.733 0 0 1 .007.1c0 .159.011.466 0 .575a.1.1 0 0 0 .014.056.09.09 0 0 0 .068.043.147.147 0 0 1 .036 0l.023.193a.244.244 0 0 1 0 .028c-.01.16-.017.468-.032.576a.092.092 0 0 0 .008.054.1.1 0 0 0 .061.05h.014c0 .146.007.289.01.433a4.716 4.716 0 0 0-.445.761c-.094.159-.18.324-.245.46a3.081 3.081 0 0 0-.079.18.448.448 0 0 0-.037.126.212.212 0 0 0 .082.177 1.576 1.576 0 0 0 .158.133 1.632 1.632 0 0 1 .3.266 2.728 2.728 0 0 1 .253.6l.091.273c.012.036.023.064.034.089a.142.142 0 0 0 .024.039.086.086 0 0 0 .031.026.1.1 0 0 0 .08 0 .149.149 0 0 0 .073-.065l.05-.078v-.006c.02.112.039.226.054.341.008.068.016.139.022.211-.565 1.384-1.384 2.278-1.913 3.452-.076.167-.167.39-.242.6a2.078 2.078 0 0 0-.138.534.239.239 0 0 0 .01.091.126.126 0 0 0 .208.057.5.5 0 0 0 .081-.075c.056-.061.12-.143.193-.237a5.568 5.568 0 0 1 .53-.611c.348-.327.734-.759 1.053-1.105.16-.173.3-.326.411-.431a1.362 1.362 0 0 1 .135-.119.117.117 0 0 1 .038-.019.87.87 0 0 1 .18.1c.092.066.2.151.319.235a2.531 2.531 0 0 0 .346.221.451.451 0 0 0 .338.058.151.151 0 0 0 .076-.067.162.162 0 0 0 .014-.081.5.5 0 0 0-.035-.159 4.881 4.881 0 0 0-.2-.447 9.644 9.644 0 0 1-.523-1.249 4.126 4.126 0 0 1 0-.576c.034-.433.075-.865.117-1.295a4.161 4.161 0 0 1 .433.135 1.124 1.124 0 0 0 .155.052.227.227 0 0 0 .072.008.126.126 0 0 0 .089-.054.145.145 0 0 0 .016-.12.988.988 0 0 0-.029-.13 3.794 3.794 0 0 0-.13-.37 7.315 7.315 0 0 0-.461-.936c.075-.712.151-1.412.216-2.1a.333.333 0 0 0 .161-.049c.056-.026.124-.06.218-.1s.2-.08.3-.12c.049-.022.092-.04.125-.059a.229.229 0 0 0 .047-.029.121.121 0 0 0 .026-.028.1.1 0 0 0 .01-.091 4.612 4.612 0 0 0-.736-1.288c.01-.01.02-.018.03-.03a.088.088 0 0 0 .021-.085c-.01-.035-.016-.072-.031-.116v-.031a.088.088 0 0 0 .055-.1.191.191 0 0 0 0-.021v-.011l-.021-.084-.006-.023.009-.106.053-.05a.089.089 0 0 0 .024-.087.368.368 0 0 0-.05-.139c0-.044.008-.088.012-.133l.037-.03a.085.085 0 0 0 .031-.07.077.077 0 0 0 0-.027.767.767 0 0 0-.026-.077l-.014-.046v-.018c.006-.057.01-.115.013-.172.01-.008.019-.013.031-.021a.09.09 0 0 0 .036-.076v-.021c-.006-.031-.015-.061-.022-.089l-.026-.1v-.114a.313.313 0 0 0 .035-.026.087.087 0 0 0 .035-.071.089.089 0 0 0 0-.028c-.008-.033-.02-.064-.028-.091l-.032-.107v-.071l.034-.028a.089.089 0 0 0 .032-.07.117.117 0 0 0 0-.027l-.028-.085c-.009-.026-.021-.065-.034-.1v-.133a.094.094 0 0 0 .045-.149.612.612 0 0 1-.048-.164v-.122h.007a.089.089 0 0 0 .063-.1.087.087 0 0 0-.018-.05.661.661 0 0 1-.055-.18v-.12a.09.09 0 0 0 .064-.1.107.107 0 0 0-.017-.044.649.649 0 0 1-.041-.164v-.155l.016-.014a.088.088 0 0 0 .062-.095.082.082 0 0 0-.019-.048.568.568 0 0 1-.044-.135c0-.037 0-.076.006-.115a.087.087 0 0 0 .066-.089.088.088 0 0 0-.017-.053.711.711 0 0 1-.04-.177v-.1a.086.086 0 0 0 .042-.079.1.1 0 0 0-.017-.055.33.33 0 0 1-.023-.089v-.141l.014-.008a.087.087 0 0 0 .031-.093l-.009-.032a.049.049 0 0 0 .015.01.114.114 0 0 0 .042.033s0 .009.009.013l-.013-.013.014.015a.072.072 0 0 0 .023.016.119.119 0 0 0 .04.037l.029.031.01.007a.122.122 0 0 0 .038.037.125.125 0 0 0 .015.019v.006a.058.058 0 0 0 .021.017l.007.01a.133.133 0 0 0 .021.022l.018.014c.014.02.027.034.031.039l.011.01a.261.261 0 0 0 .022.027.074.074 0 0 0 .024.017l.007.013a.1.1 0 0 0 .026.019l.013.013v.006l.009.005c.136.137.258.266.42.275a.112.112 0 0 0 .077-.029.093.093 0 0 0 .028-.052.178.178 0 0 0 0-.075 1.626 1.626 0 0 0-.042-.184 5.859 5.859 0 0 0-.213-.612zm-.876 4.612a.059.059 0 0 1-.029-.012l.027.007zm.062-.863a.065.065 0 0 1-.027-.007l.028.006z" fill="#828fa2"/></svg>