<svg width="45" height="45" viewBox="0 0 45 45" fill="none" xmlns="http://www.w3.org/2000/svg"><circle cx="22.5" cy="22.5" r="22.5" fill="#70A5C9"/><path d="M36.069 8.291c-.042-.085-.129-.127-.226-.16a2.022 2.022 0 0 0-.323-.071c-.112-.018-.225-.032-.315-.048a.799.799 0 0 1-.159-.044.122.122 0 0 1-.011-.033 1.428 1.428 0 0 1-.01-.144c-.002-.123.003-.29.011-.48.016-.378.042-.844.03-1.229-.007-.219.023-.458.046-.65.012-.095.022-.178.024-.245a.433.433 0 0 0-.004-.09c-.005-.027-.012-.063-.054-.086a.11.11 0 0 0-.097 0 .204.204 0 0 0-.058.047 1.75 1.75 0 0 0-.225.381 6.596 6.596 0 0 0-.203.479c-.368.97-.409 1.945-.876 3.056a4.14 4.14 0 0 1-.133.106v.001c-.076.058-.15.112-.226.165V9.24a.809.809 0 0 0 .017-.073c.004-.023.01-.044-.004-.08a.084.084 0 0 0-.048-.043.068.068 0 0 0-.033-.003.134.134 0 0 0-.035.008.732.732 0 0 0-.07.031l-.207.105c-.16.08-.356.17-.483.194a1.262 1.262 0 0 1-.322-.019 1.124 1.124 0 0 0-.167-.013c-.05 0-.106.002-.147.053a.374.374 0 0 0-.05.094c-.019.04-.038.09-.059.148-.04.114-.085.257-.122.401-.067.262-.176.483-.18.686a19.7 19.7 0 0 1-.254.241c-.005-.003-.003 0-.01-.005a.069.069 0 0 0-.062-.006.071.071 0 0 0-.036.026c-.051.07-.224.25-.308.347a.248.248 0 0 1-.016.017c-.04.032-.081.064-.124.096a.296.296 0 0 1-.023-.017.07.07 0 0 0-.064-.014.076.076 0 0 0-.04.024c-.055.066-.238.235-.329.325a.519.519 0 0 1-.057.05l-.014.01a.071.071 0 0 0-.094-.037l-.007.004c-.036.014-.055.038-.073.06-.02.023-.04.048-.063.07-.056.053-.185.174-.224.213a1.222 1.222 0 0 0-.053.056.071.071 0 0 0-.043-.026.072.072 0 0 0-.08.04.946.946 0 0 1-.166.162c-.083.067-.177.134-.238.189a.569.569 0 0 0-.06.06l-.003-.002a.072.072 0 0 0-.087 0l-.008.007c-.084.08-.254.217-.35.305a.34.34 0 0 0-.055.063.071.071 0 0 0-.093.004c-.082.078-.255.21-.351.3-.016.013-.024.026-.036.04a.07.07 0 0 0-.1.01l-.003.003c-.083.08-.242.213-.334.302-.014.013-.022.025-.032.037a.076.076 0 0 0-.033-.02.072.072 0 0 0-.069.013 3.567 3.567 0 0 0-.346.359.071.071 0 0 0-.101.005l-.009.012c-.151.147-.25.273-.375.386a.072.072 0 0 0-.091.006c-.147.14-.276.326-.383.467l-.041.042a.072.072 0 0 0-.04-.02h-.002a.07.07 0 0 0-.067.023 3.882 3.882 0 0 0-.292.396.07.07 0 0 0-.09-.002c-.004.004-.01.008-.014.014a3.5 3.5 0 0 0-.306.422.061.061 0 0 0-.024-.008h-.002a.072.072 0 0 0-.069.025c-.072.09-.16.221-.23.336a2.994 2.994 0 0 0-.089.148l-.027.05-.006.013h-.002a.071.071 0 0 0-.075-.019.068.068 0 0 0-.042.035 6.87 6.87 0 0 0-.249.556l-.04.071a.919.919 0 0 0-.072.17l-.02.058-.001.005c-.021.064-.041.13-.063.188v.004a.13.13 0 0 0-.01.025c-.004.009-.008.015-.01.023l-.003.003c-.054.123-.121.233-.177.353a1.989 1.989 0 0 0-.066.163l-.016.047-.002.006a2.4 2.4 0 0 0-.055.192.457.457 0 0 1-.046.102c-.02.037-.043.073-.058.118l-.01.038-.002.005c-.055.198-.051.306-.158.558l-.025.057-.043.09a3.333 3.333 0 0 1-.433.67.564.564 0 0 1-.051.048l-.006.002c-.011.004-.036.012-.067.031a.072.072 0 0 0-.032.08.045.045 0 0 1 .002.008v.011l.001.01.002.013.001.007c.004.019.004.019 0 0v.002a.113.113 0 0 0 .027.052.129.129 0 0 0 .052.03.331.331 0 0 0 .29-.05c.074-.048.132-.104.193-.133.105-.049.249-.098.386-.198.108-.078.216-.2.32-.288.058-.05.106-.075.184-.125a.185.185 0 0 0 .054-.055c.011-.016.016-.025.028-.038a.615.615 0 0 1 .21-.135c.046-.022.093-.03.155-.048a.648.648 0 0 0 .217-.107c.43-.322 1.013-.771 1.598-1.255a10.11 10.11 0 0 0 1.506-.5c.2-.084.363-.163.473-.225a.824.824 0 0 0 .129-.084.148.148 0 0 0 .04-.044.09.09 0 0 0 .014-.046.088.088 0 0 0-.027-.06c-.097-.087-.24-.084-.396-.083l.002.001-.008-.002-.006.001h-.014a.065.065 0 0 0-.026-.003l-.012.003c-.01-.003-.017-.003-.023-.003a.14.14 0 0 0-.027.003h-.012c-.004 0-.021 0-.04.003h-.002c-.008-.002-.014-.002-.018-.002a.09.09 0 0 0-.025.001l-.01.001c-.012-.003-.018-.002-.022-.002l-.014.002h.02a.086.086 0 0 0-.032.001.089.089 0 0 0-.043 0c-.003 0-.007 0-.01-.002l-.034.001h-.002a.109.109 0 0 0-.044-.003.079.079 0 0 0-.021-.004l-.016.001h.014l-.012.002a.107.107 0 0 0-.043-.005c-.005 0-.01-.002-.014-.003l.023-.013a.072.072 0 0 0 .035-.07v-.004a2.054 2.054 0 0 0-.003-.011l.08-.08a.232.232 0 0 1 .065-.037.07.07 0 0 0 .041-.021.074.074 0 0 0 .022-.069l.055-.057a.522.522 0 0 1 .122-.077.065.065 0 0 0 .041-.021l.001-.001a.071.071 0 0 0 .013-.089v-.002l.061-.069a.446.446 0 0 1 .103-.052.077.077 0 0 0 .037-.017h.002a.072.072 0 0 0 .018-.09c-.002-.003 0-.011 0-.017a5.6 5.6 0 0 1 .08-.084c.002 0 .004-.003.007-.005a.535.535 0 0 1 .152-.085.072.072 0 0 0 .02-.093v-.001l.068-.068a.562.562 0 0 1 .134-.072.073.073 0 0 0 .04-.018.071.071 0 0 0 .019-.09l-.001-.006.063-.061.009-.005a.504.504 0 0 1 .12-.067.07.07 0 0 0 .04-.017.073.073 0 0 0 .02-.094c.023-.024.047-.046.07-.068l.009-.005.074-.038.064-.032a.082.082 0 0 0 .018-.014.07.07 0 0 0 .022-.058.334.334 0 0 0-.004-.035l.035-.035.007-.004.079-.042c.02-.01.044-.021.068-.036a.071.071 0 0 0 .017-.013.072.072 0 0 0 .021-.061l-.006-.035.063-.067.074-.044.064-.038.013-.01a.07.07 0 0 0 .021-.064l-.005-.03a4.638 4.638 0 0 0 .1-.118l.034-.017.058-.029a.062.062 0 0 0 .018-.014.07.07 0 0 0 .022-.057l-.004-.038.068-.083c.05-.009.084-.037.108-.05l.003-.002c.032-.007.045-.03.045-.057l-.002-.06.055-.064.017-.01a5.625 5.625 0 0 0 .069-.041c.005-.003.01-.006.013-.01a.071.071 0 0 0 .023-.084l.016-.02c.034-.017.06-.034.084-.048a.073.073 0 0 0 .037-.06v-.035l.001-.001c.144-.006.49-.051 1.153-.314a.08.08 0 0 0 .047-.058.083.083 0 0 0 .001-.03.206.206 0 0 0-.01-.044 1.288 1.288 0 0 0-.039-.104c-.032-.08-.073-.173-.101-.24-.032-.074-.052-.133-.07-.179-.016-.047-.025-.084-.063-.119-.001 0-.002 0-.003-.002.355-.43.712-.872 1.073-1.32a5.9 5.9 0 0 0 .798-.27c.114-.05.213-.096.285-.137a.784.784 0 0 0 .09-.058c.023-.019.047-.03.058-.078a.102.102 0 0 0-.02-.081.168.168 0 0 0-.045-.037c-.032-.019-.07-.036-.118-.058a3.262 3.262 0 0 1-.324-.17c.221-.27.445-.539.67-.805.113-.132.211-.226.327-.33.33-.174.713-.308 1.01-.413.149-.053.274-.1.365-.144a.423.423 0 0 0 .11-.07.13.13 0 0 0 .038-.055.105.105 0 0 0-.004-.082zm-7.853 8.026zm1.613-1.68a.147.147 0 0 0-.02-.011c0-.001.007.001.02.01v.002zm.197-.27l.01.002-.01-.002zm.034.015l-.011-.007c.004.002.007.002.01.006zm.226-.271a.111.111 0 0 0-.02-.012c0-.001.007 0 .02.01v.002zm-9.678 5.17c.012.013.017.024.027.039a.197.197 0 0 0 .054.055c.08.05.127.075.185.124.103.09.213.21.32.288.138.101.282.15.385.199.062.029.121.084.194.133a.331.331 0 0 0 .29.05.123.123 0 0 0 .052-.03.105.105 0 0 0 .027-.053c-.005.018-.005.017 0-.002.002-.011.002-.01 0-.006l.003-.012v-.013c.002-.007.002-.007 0-.007v-.002a.03.03 0 0 1 .003-.008.072.072 0 0 0-.032-.08c-.031-.02-.056-.027-.067-.031l-.006-.002-.01-.006-.007-.007-.034-.036a3.384 3.384 0 0 1-.476-.76l-.025-.056c-.108-.253-.103-.36-.158-.558 0-.002 0-.004-.002-.005a.759.759 0 0 0-.01-.038c-.015-.044-.038-.08-.059-.119a.46.46 0 0 1-.045-.101 2.4 2.4 0 0 0-.055-.193l-.002-.006-.016-.047a2.106 2.106 0 0 0-.066-.162c-.055-.122-.124-.23-.177-.353l-.002-.003-.01-.024-.01-.025-.001-.004c-.022-.059-.042-.123-.063-.187l-.002-.005-.019-.058a.926.926 0 0 0-.072-.17l-.04-.071a6.886 6.886 0 0 0-.249-.556.07.07 0 0 0-.043-.035.072.072 0 0 0-.074.018h-.002l-.006-.012a1.004 1.004 0 0 0-.027-.05c-.022-.04-.054-.092-.089-.149a4.086 4.086 0 0 0-.23-.335.07.07 0 0 0-.069-.025h-.002a.074.074 0 0 0-.024.008 3.5 3.5 0 0 0-.306-.423.061.061 0 0 0-.015-.013.07.07 0 0 0-.09.002 3.728 3.728 0 0 0-.292-.396.073.073 0 0 0-.066-.023h-.001a.069.069 0 0 0-.041.02l-.041-.042c-.107-.14-.235-.327-.383-.468a.072.072 0 0 0-.091-.006c-.125-.112-.224-.238-.375-.386a3.858 3.858 0 0 0-.457-.376.07.07 0 0 0-.068-.013.066.066 0 0 0-.033.02c-.01-.011-.018-.023-.032-.036-.092-.09-.252-.22-.334-.302l-.003-.003a.07.07 0 0 0-.1-.011.254.254 0 0 0-.036-.04c-.096-.09-.269-.221-.352-.299a.071.071 0 0 0-.092-.004.343.343 0 0 0-.055-.064c-.096-.088-.265-.225-.35-.305l-.008-.006a.072.072 0 0 0-.088 0l-.003.001a.48.48 0 0 0-.06-.06c-.06-.053-.154-.121-.238-.189a.992.992 0 0 1-.165-.161.07.07 0 0 0-.08-.04.069.069 0 0 0-.044.026 1.167 1.167 0 0 0-.053-.056c-.038-.039-.167-.16-.223-.213-.024-.023-.043-.047-.063-.071-.018-.021-.038-.045-.073-.059l-.007-.004a.071.071 0 0 0-.094.037l-.014-.01a.816.816 0 0 1-.058-.05c-.09-.092-.272-.26-.329-.326a.069.069 0 0 0-.04-.024.07.07 0 0 0-.063.014.272.272 0 0 1-.023.018 23.825 23.825 0 0 0-.124-.097l-.016-.017c-.085-.096-.257-.276-.309-.346a.077.077 0 0 0-.036-.026.07.07 0 0 0-.061.006l-.01.005c-.086-.081-.17-.16-.253-.242-.006-.203-.114-.424-.18-.685a4.674 4.674 0 0 0-.181-.55c-.018-.04-.03-.067-.051-.093-.041-.05-.096-.053-.148-.054-.05 0-.107.007-.166.014a1.262 1.262 0 0 1-.322.019c-.128-.024-.323-.114-.483-.194l-.207-.105a.642.642 0 0 0-.07-.03.136.136 0 0 0-.035-.01.068.068 0 0 0-.033.003.081.081 0 0 0-.048.044c-.014.036-.008.057-.004.08s.01.047.016.072v.006a5.622 5.622 0 0 1-.224-.164l-.001-.001a5.64 5.64 0 0 1-.133-.107c-.467-1.11-.51-2.085-.876-3.056a6.854 6.854 0 0 0-.203-.478c-.077-.161-.152-.303-.226-.382a.204.204 0 0 0-.057-.045c-.015-.016-.055-.023-.088-.005-.041.022-.049.058-.054.086a.432.432 0 0 0-.004.09c.003.066.013.15.024.245.023.191.053.43.046.65-.012.385.014.85.03 1.229.008.19.014.357.01.48a1.16 1.16 0 0 1-.01.144.122.122 0 0 1-.01.033.694.694 0 0 1-.16.044c-.09.016-.202.03-.315.047a2.023 2.023 0 0 0-.323.072c-.094.031-.181.073-.223.158a.113.113 0 0 0-.005.08.14.14 0 0 0 .037.055.44.44 0 0 0 .11.07c.091.045.217.092.366.144.296.106.68.24 1.01.413.116.106.212.198.326.331.227.266.45.535.67.804a3.068 3.068 0 0 1-.323.17c-.048.023-.086.04-.118.059a.167.167 0 0 0-.045.037.106.106 0 0 0-.02.081c.01.049.034.059.058.078a.658.658 0 0 0 .09.058c.073.04.17.087.285.136.224.095.513.198.797.271.362.449.719.89 1.074 1.32l-.003.002c-.038.035-.047.073-.064.119s-.036.104-.069.179c-.029.067-.07.16-.101.24a1.93 1.93 0 0 0-.04.104.223.223 0 0 0-.01.043c0 .008-.001.016.002.03a.08.08 0 0 0 .047.058c.661.264 1.008.308 1.153.314v.036a.07.07 0 0 0 .038.061c.026.014.05.032.083.048l.016.019a.07.07 0 0 0 .023.086.042.042 0 0 0 .014.008l.01.005.059.036.017.01.055.065-.002.06a.07.07 0 0 0 .036.064c.002 0 .003.002.003 0 .022.015.057.043.108.051l.068.083a.293.293 0 0 0-.004.038.07.07 0 0 0 .022.058c.005.005.01.01.018.014l.058.029.034.017.009.01c.029.037.06.072.09.107-.002.01-.004.017-.005.03a.073.073 0 0 0 .022.064l.013.011.064.038.074.044.063.066-.007.035a.072.072 0 0 0 .021.061l.017.014a5.638 5.638 0 0 0 .147.078c.003 0 .005.003.008.004l.035.035-.004.035a.07.07 0 0 0 .022.058c.005.004.01.01.018.013l.063.032.075.038.01.005.069.068a.07.07 0 0 0 .019.095c.01.01.026.016.04.017a.485.485 0 0 1 .13.071l.063.061v.006a.07.07 0 0 0 .018.09c.011.01.025.017.04.019a.564.564 0 0 1 .133.072l.068.067v.001a.072.072 0 0 0 .021.094.53.53 0 0 1 .152.085l.008.005c.027.028.052.056.08.083-.002.005 0 .014-.002.017a.072.072 0 0 0 .02.091.077.077 0 0 0 .038.017.446.446 0 0 1 .103.052l.062.069-.001.002a.073.073 0 0 0 .013.088v.001a.077.077 0 0 0 .041.021.556.556 0 0 1 .123.078l.055.057a.07.07 0 0 0 .022.069.07.07 0 0 0 .04.02.308.308 0 0 1 .065.037l.081.08-.003.012v.003a.071.071 0 0 0 .035.07l.023.014c-.005 0-.009 0-.014.003a.107.107 0 0 0-.043.005l-.012-.002h.014l-.016-.001a.078.078 0 0 0-.022.004.11.11 0 0 0-.044.002h-.002a.134.134 0 0 0-.043.002.123.123 0 0 0-.043 0 .088.088 0 0 0-.033-.001h.02l-.013-.002c-.004 0-.01-.001-.022.002l-.01-.001-.025-.001-.018.002h-.002a.314.314 0 0 0-.052-.003.132.132 0 0 0-.028-.003c-.006 0-.012 0-.023.003-.004-.001-.005-.003-.012-.003a.063.063 0 0 0-.026.003h-.013l-.006-.001-.008.002.002-.001c-.156-.001-.3-.004-.396.082a.088.088 0 0 0-.027.06.09.09 0 0 0 .013.046c.012.021.025.032.04.045a.895.895 0 0 0 .13.084c.11.063.273.14.473.225.397.168.94.362 1.506.5.585.484 1.167.932 1.598 1.254a.65.65 0 0 0 .217.108c.062.018.108.026.154.048a.633.633 0 0 1 .21.134zm-5.814-5.17c.013-.01.02-.012.019-.012l-.02.012zm.237.264a.067.067 0 0 0-.01.007c.004-.005.006-.005.01-.007zm.012-.006l.011-.002a.144.144 0 0 0-.01.002zm.206.27v-.002c.013-.01.021-.01.02-.01a.168.168 0 0 0-.02.011zm9.064 12.397a4.77 4.77 0 0 0-.175-.494c-.161-.4-.41-.921-.712-1.418a43.255 43.255 0 0 0-.242-2.018.635.635 0 0 0-.078-.229c-.03-.056-.058-.095-.075-.143a.616.616 0 0 1-.053-.244c0-.018.004-.029.008-.047a.182.182 0 0 0 0-.077c-.021-.091-.037-.143-.043-.22-.011-.136-.003-.299-.023-.43-.027-.169-.094-.304-.133-.413-.022-.064-.024-.145-.041-.231a.33.33 0 0 0-.17-.24.123.123 0 0 0-.059-.015.104.104 0 0 0-.055.018h-.001c.016-.01.015-.01-.001 0l-.006.005c-.002 0-.005.004-.01.008a.088.088 0 0 0-.008.007h-.001l-.001.002-.005.005h-.002a.068.068 0 0 1-.007.006.07.07 0 0 0-.034.079c.008.034.02.057.025.068l.003.006.002.011v.06a3.386 3.386 0 0 1-.15.727l-.018.053c-.01.034-.023.065-.034.094l-.021.058c-.103.255-.183.328-.284.506 0 .002-.002.003-.003.005l-.018.035c-.022.04-.031.084-.043.125a.46.46 0 0 1-.04.103 2.647 2.647 0 0 0-.1.18l-.022.046c-.024.05-.047.104-.068.16-.046.125-.075.25-.124.375l-.001.004-.01.024-.011.025-.002.004a3.641 3.641 0 0 1-.09.181l-.029.054a.973.973 0 0 0-.09.25 6.697 6.697 0 0 0-.218.57.068.068 0 0 0 .006.055.07.07 0 0 0 .066.04h.002a.069.069 0 0 0-.005.013l-.017.055a4.583 4.583 0 0 0-.115.568.071.071 0 0 0 .03.066l.002.001a.065.065 0 0 0 .022.011 3.51 3.51 0 0 0-.082.516c0 .006 0 .013.002.019a.07.07 0 0 0 .064.061 3.696 3.696 0 0 0-.073.487.073.073 0 0 0 .03.063c.012.01.028.014.043.014v.06c-.024.174-.065.397-.06.6a.07.07 0 0 0 .06.07c.008.167-.01.325-.008.536l-.002.014a.071.071 0 0 0 .068.075 3.708 3.708 0 0 0-.008.5.07.07 0 0 0 .04.058.08.08 0 0 0 .038.01c-.002.015-.004.03-.004.048.001.128.022.333.023.45l-.001.003a.071.071 0 0 0 .063.08c-.002.016-.004.031-.003.053.005.132.034.347.037.46a.072.072 0 0 0 .062.07.358.358 0 0 0-.007.083c.005.13.028.347.032.463l.001.01a.073.073 0 0 0 .061.062h.004a.468.468 0 0 0 0 .085c.004.082.022.195.034.302a.985.985 0 0 1 .003.231.07.07 0 0 0 .028.085c.014.01.032.015.05.013a8.346 8.346 0 0 0-.003.077c0 .054.005.23.007.308 0 .032-.003.063-.005.094-.002.027-.005.058.01.093 0 .003.002.005.003.008a.07.07 0 0 0 .092.04l.003.017a.687.687 0 0 1 .005.076c0 .13.01.376.002.464a.077.077 0 0 0 .011.045c.012.02.032.033.055.035.015 0 .02.002.029.004l.019.155-.001.023c-.008.129-.014.377-.026.464-.002.014 0 .03.007.043.009.02.027.034.049.04l.01.003c.005.118.007.233.009.35-.14.148-.22.38-.358.612a4.824 4.824 0 0 0-.261.515.378.378 0 0 0-.03.102c-.007.065.03.106.066.143.036.036.08.07.127.107.095.073.2.153.241.215.074.106.149.308.205.479l.073.22.027.072c.006.01.01.019.02.03.004.007.01.015.024.022a.08.08 0 0 0 .065.003c.035-.015.046-.034.059-.053l.04-.063c0-.002.002-.003.003-.005.016.09.03.182.043.275v.001c.007.055.013.112.018.17-.455 1.115-1.115 1.835-1.541 2.78a6.612 6.612 0 0 0-.195.483 1.64 1.64 0 0 0-.111.43.209.209 0 0 0 .008.073.11.11 0 0 0 .067.069c.046.013.077-.007.1-.023a.405.405 0 0 0 .066-.06 3.23 3.23 0 0 0 .155-.191c.119-.152.267-.342.427-.493.28-.263.591-.61.848-.89.129-.14.243-.262.331-.346.044-.043.082-.076.109-.096a.1.1 0 0 1 .03-.016.712.712 0 0 1 .145.082c.075.053.165.121.257.189.093.067.188.133.28.177.091.045.182.077.271.047a.118.118 0 0 0 .061-.054.13.13 0 0 0 .012-.064.415.415 0 0 0-.029-.129 3.851 3.851 0 0 0-.157-.36c-.135-.284-.312-.649-.422-1.005a3.465 3.465 0 0 1 .004-.465c.028-.349.061-.697.095-1.042.145.036.265.076.349.108.05.02.088.034.124.042.018.004.035.008.058.006a.101.101 0 0 0 .072-.043c.026-.042.017-.066.013-.096a.794.794 0 0 0-.023-.105 3.09 3.09 0 0 0-.105-.298 5.905 5.905 0 0 0-.372-.755c.061-.573.122-1.137.175-1.692l.003.001c.05.002.085-.018.13-.039.044-.02.1-.049.175-.079a9.21 9.21 0 0 0 .241-.096c.039-.017.074-.032.1-.047a.218.218 0 0 0 .039-.024c.006-.005.013-.01.02-.022a.082.082 0 0 0 .009-.074c-.282-.654-.495-.93-.593-1.037v-.002l.023-.024a.07.07 0 0 0 .017-.069c-.008-.028-.013-.058-.024-.094 0-.008 0-.016.002-.024a.07.07 0 0 0 .044-.077c0-.006-.002-.011-.003-.017a.03.03 0 0 0-.003-.01l-.017-.067-.005-.019.007-.085.043-.04a.07.07 0 0 0 .02-.07l-.002-.003c-.007-.026-.012-.071-.04-.113.002-.035.006-.07.01-.107l.03-.023a.07.07 0 0 0 .024-.057.078.078 0 0 0-.003-.022 1.227 1.227 0 0 0-.033-.099l.001-.015c.005-.046.008-.092.011-.138l.025-.017a.072.072 0 0 0 .029-.061l-.001-.017c-.005-.025-.012-.049-.018-.072l-.02-.082.002-.092.028-.021a.07.07 0 0 0 .028-.058c0-.007 0-.015-.002-.022-.007-.027-.016-.052-.023-.074a4 4 0 0 0-.026-.085c0-.002 0-.005-.002-.008v-.05l.027-.022a.073.073 0 0 0 .026-.057.083.083 0 0 0-.003-.022.852.852 0 0 0-.023-.068 1.245 1.245 0 0 0-.027-.08l-.003-.01v-.097a.071.071 0 0 0 .053-.079.07.07 0 0 0-.017-.04.49.49 0 0 1-.039-.133l-.003-.01v-.088l.005-.004a.071.071 0 0 0 .051-.078.07.07 0 0 0-.015-.04.53.53 0 0 1-.044-.145v-.096h.001a.072.072 0 0 0 .052-.081.072.072 0 0 0-.014-.035.561.561 0 0 1-.035-.142l.003-.115c.004-.003.01-.01.013-.011a.072.072 0 0 0 .05-.077v-.001a.07.07 0 0 0-.015-.039.433.433 0 0 1-.036-.109l.005-.092.002-.001a.07.07 0 0 0 .053-.072v-.001a.071.071 0 0 0-.014-.043.588.588 0 0 1-.032-.142l.001-.08a.072.072 0 0 0 .034-.063.077.077 0 0 0-.014-.044.283.283 0 0 1-.019-.072l-.001-.113a.074.074 0 0 0 .011-.007l.003-.002a.07.07 0 0 0 .025-.075l-.007-.026c.004.003.007.006.012.008.009.011.02.02.034.027.003.003.003.007.007.01l-.01-.01a.109.109 0 0 0 .01.012.073.073 0 0 0 .02.013.102.102 0 0 0 .032.03h.002a.169.169 0 0 0 .023.026l.007.006a.097.097 0 0 0 .031.03l.012.015a.018.018 0 0 0 .004.005c.003.003.006.008.017.014l.006.008c.004.005.008.01.017.017a.12.12 0 0 0 .015.012c.011.016.022.027.025.031l.009.008a.124.124 0 0 0 .018.022c.004.004.009.01.019.014l.006.01a.087.087 0 0 0 .02.016l.01.01c.003.002.002.002.004.005a.042.042 0 0 0 .007.004h-.002c.11.11.208.214.339.221a.09.09 0 0 0 .061-.023.083.083 0 0 0 .023-.042.16.16 0 0 0 .003-.06 1.328 1.328 0 0 0-.034-.148zm-.883 2.856a.04.04 0 0 1 .01.006l-.01-.006zm.002.364c-.017-.002-.022-.006-.02-.006l.021.006zm.031-.35a.034.034 0 0 1-.012-.004.056.056 0 0 1 .012.004zm.02-.344c-.018-.002-.024-.007-.023-.006l.023.005z" fill="#657286"/></svg>