<svg width="44" height="44" viewBox="0 0 44 44" fill="none" xmlns="http://www.w3.org/2000/svg"><circle cx="21.57" cy="21.57" r="20.808" fill="#033953" stroke="#828FA2" stroke-width="1.523"/><path d="M34.533 12.21c-.04-.081-.124-.121-.216-.153a1.94 1.94 0 0 0-.31-.069c-.108-.017-.216-.03-.302-.045a.766.766 0 0 1-.153-.043.113.113 0 0 1-.01-.031 1.33 1.33 0 0 1-.01-.139 8.669 8.669 0 0 1 .01-.46c.016-.362.04-.808.03-1.177-.007-.21.021-.44.043-.623a2.73 2.73 0 0 0 .023-.235.394.394 0 0 0-.004-.086c-.004-.027-.011-.061-.051-.083a.104.104 0 0 0-.093 0 .194.194 0 0 0-.055.045 1.63 1.63 0 0 0-.216.365 6.343 6.343 0 0 0-.195.46c-.353.929-.392 1.864-.84 2.929a4.06 4.06 0 0 1-.127.102h-.001a5.404 5.404 0 0 1-.216.158l.001-.005a.762.762 0 0 0 .015-.07c.004-.022.01-.042-.004-.077a.08.08 0 0 0-.045-.042.064.064 0 0 0-.032-.002.132.132 0 0 0-.033.008.686.686 0 0 0-.068.03l-.198.1a2.177 2.177 0 0 1-.463.187 1.213 1.213 0 0 1-.309-.019 1.091 1.091 0 0 0-.16-.013c-.048 0-.102.003-.141.052-.02.024-.031.051-.049.09a4.466 4.466 0 0 0-.173.526c-.064.251-.168.462-.173.657a18.1 18.1 0 0 1-.242.231c-.005-.003-.003 0-.01-.004a.065.065 0 0 0-.06-.006.069.069 0 0 0-.034.025c-.05.067-.214.239-.296.332l-.015.017-.118.092a.297.297 0 0 1-.022-.017.067.067 0 0 0-.061-.013.072.072 0 0 0-.039.022c-.053.064-.228.226-.315.313a.482.482 0 0 1-.055.048l-.014.01a.068.068 0 0 0-.09-.036c-.002 0-.005.002-.006.004-.035.013-.053.036-.07.056-.02.023-.038.047-.061.068-.054.05-.177.167-.214.204a.742.742 0 0 0-.05.054.07.07 0 0 0-.043-.025.069.069 0 0 0-.076.038.913.913 0 0 1-.159.155c-.08.065-.17.13-.228.182a.54.54 0 0 0-.058.057l-.003-.002a.069.069 0 0 0-.084.001l-.007.006c-.08.076-.244.208-.336.292a.327.327 0 0 0-.052.061.068.068 0 0 0-.09.004c-.078.075-.244.2-.336.287-.016.013-.023.026-.035.038a.067.067 0 0 0-.095.01l-.003.003c-.08.078-.232.204-.32.29-.014.012-.021.024-.03.035a.074.074 0 0 0-.032-.02.069.069 0 0 0-.066.013 3.436 3.436 0 0 0-.333.345.068.068 0 0 0-.096.004l-.009.012c-.145.141-.24.261-.36.37a.07.07 0 0 0-.087.005c-.14.135-.264.314-.367.448l-.04.04a.07.07 0 0 0-.038-.019h-.001a.068.068 0 0 0-.064.022 3.74 3.74 0 0 0-.28.38.068.068 0 0 0-.086-.001.076.076 0 0 0-.015.012 3.35 3.35 0 0 0-.293.405.058.058 0 0 0-.023-.007h-.002a.068.068 0 0 0-.066.023 3.562 3.562 0 0 0-.22.322 2.84 2.84 0 0 0-.085.143l-.026.048-.006.012h-.002a.069.069 0 0 0-.072-.018.065.065 0 0 0-.04.033c-.08.152-.202.438-.238.534-.014.021-.026.044-.04.067a.888.888 0 0 0-.069.164l-.018.055c0 .002 0 .004-.002.005-.02.061-.039.124-.06.18v.003l-.01.024-.01.023c0 .001 0 .002-.002.003-.051.117-.116.223-.17.338a1.883 1.883 0 0 0-.063.156l-.015.045a.441.441 0 0 1-.098.288c-.02.035-.043.07-.056.113-.004.014-.008.025-.01.036l-.002.005c-.053.19-.05.294-.151.535l-.024.055a3.092 3.092 0 0 1-.041.086l-.025.048a3.206 3.206 0 0 1-.39.594l-.033.034-.008.007-.009.006-.005.002a.244.244 0 0 0-.064.03.07.07 0 0 0-.031.076.037.037 0 0 1 .002.007v.021l.003.012v.006c.005.019.005.019 0 .001v.001a.11.11 0 0 0 .026.05.122.122 0 0 0 .05.03.318.318 0 0 0 .278-.048c.071-.047.126-.1.186-.128.1-.047.238-.094.37-.19.103-.075.207-.191.306-.276.055-.048.101-.072.177-.12a.177.177 0 0 0 .052-.052c.01-.016.015-.025.026-.038a.592.592 0 0 1 .202-.129c.044-.02.089-.028.148-.046a.621.621 0 0 0 .208-.103 39.17 39.17 0 0 0 1.532-1.203 9.697 9.697 0 0 0 1.444-.478 5.08 5.08 0 0 0 .453-.216.797.797 0 0 0 .124-.08.141.141 0 0 0 .039-.044.085.085 0 0 0 .012-.043.084.084 0 0 0-.026-.058c-.092-.083-.23-.08-.379-.08l.002.002-.008-.002h-.019a.078.078 0 0 0-.025-.002l-.011.003c-.01-.003-.016-.003-.022-.003l-.027.003-.011-.001c-.004 0-.02 0-.038.004H27c-.008-.002-.014-.002-.017-.002a.088.088 0 0 0-.024 0l-.01.002c-.012-.003-.017-.002-.021-.002-.006 0-.01 0-.013.002h.02a.084.084 0 0 0-.032 0 .086.086 0 0 0-.04 0l-.01-.001h-.035a.105.105 0 0 0-.042-.002.078.078 0 0 0-.02-.004l-.016.001h.013l-.011.002a.102.102 0 0 0-.041-.005c-.005 0-.009-.002-.014-.003l.022-.012a.068.068 0 0 0 .034-.068v-.003l-.003-.011.077-.077a.222.222 0 0 1 .062-.035.067.067 0 0 0 .04-.02.07.07 0 0 0 .02-.066l.053-.055a.495.495 0 0 1 .117-.074.062.062 0 0 0 .04-.02v-.001a.068.068 0 0 0 .013-.085v-.002c.02-.022.04-.044.058-.066a.427.427 0 0 1 .099-.05.074.074 0 0 0 .036-.016h.001a.069.069 0 0 0 .018-.087c-.002-.003 0-.01 0-.016.024-.027.05-.054.076-.08l.007-.005a.514.514 0 0 1 .146-.081.069.069 0 0 0 .02-.09v-.001l.065-.065a.54.54 0 0 1 .128-.069.07.07 0 0 0 .038-.017.068.068 0 0 0 .018-.087l-.001-.006.06-.058.009-.005a.487.487 0 0 1 .115-.064.068.068 0 0 0 .04-.016.07.07 0 0 0 .018-.09l.067-.066c.002 0 .004-.002.008-.005l.072-.036.061-.03a.08.08 0 0 0 .017-.014.067.067 0 0 0 .021-.055.342.342 0 0 0-.004-.034l.034-.033.007-.004.075-.04c.02-.01.042-.021.066-.035a.04.04 0 0 0 .016-.013.07.07 0 0 0 .02-.058l-.005-.034.06-.064a.997.997 0 0 0 .07-.042l.062-.036a.066.066 0 0 0 .012-.01.067.067 0 0 0 .021-.062l-.005-.028.087-.102.009-.011.032-.016c.017-.009.037-.017.056-.028a.058.058 0 0 0 .017-.013.067.067 0 0 0 .021-.056l-.004-.036.065-.08c.048-.008.081-.035.104-.048l.003-.001c.03-.007.043-.03.043-.055 0-.03-.002-.044-.002-.057l.053-.062.016-.01a4.544 4.544 0 0 0 .08-.047.069.069 0 0 0 .021-.081v-.001l.016-.019c.032-.016.056-.032.08-.046a.07.07 0 0 0 .035-.058v-.033l.001-.001c.139-.006.47-.049 1.106-.301a.077.077 0 0 0 .045-.055.08.08 0 0 0 0-.03.195.195 0 0 0-.01-.041 1.059 1.059 0 0 0-.036-.1c-.03-.076-.07-.166-.098-.23-.03-.072-.05-.128-.066-.172-.016-.045-.025-.08-.06-.114-.002 0-.003 0-.004-.002.34-.411.683-.835 1.03-1.264.272-.071.549-.169.764-.26a2.78 2.78 0 0 0 .273-.131.763.763 0 0 0 .086-.056c.023-.018.046-.028.056-.074a.098.098 0 0 0-.02-.079.157.157 0 0 0-.043-.035c-.03-.018-.067-.034-.112-.055a3.129 3.129 0 0 1-.311-.164c.212-.258.426-.516.643-.77.108-.128.202-.218.312-.318.317-.166.685-.294.968-.396.144-.05.264-.095.351-.137a.406.406 0 0 0 .106-.068.124.124 0 0 0 .035-.053.101.101 0 0 0-.003-.078zm-7.529 7.694s.001 0 0 0zm1.547-1.61a.149.149 0 0 0-.019-.01c0-.002.007 0 .02.01zm.189-.26l.01.003-.01-.002zm.032.015l-.01-.007c.003.002.006.002.01.006v.001zm.217-.26a.107.107 0 0 0-.018-.011c-.001-.001.006 0 .018.01v.001zm-9.279 4.956c.012.013.017.023.027.038a.19.19 0 0 0 .052.052c.075.048.121.072.177.12.1.085.204.2.306.276.133.096.27.143.37.19.06.028.116.081.186.128.07.047.167.083.278.048a.117.117 0 0 0 .05-.03.099.099 0 0 0 .025-.05c-.004.018-.004.017 0-.002l.001-.006.002-.012v-.012c.002-.007.002-.007 0-.007v-.002l.003-.007a.07.07 0 0 0-.03-.077c-.03-.018-.054-.026-.065-.03l-.005-.001c-.002 0-.004-.002-.01-.006a.048.048 0 0 1-.007-.007l-.032-.034a3.25 3.25 0 0 1-.391-.595l-.025-.047a3.235 3.235 0 0 1-.041-.086l-.024-.055c-.103-.242-.098-.346-.15-.535l-.003-.005a.59.59 0 0 0-.01-.036c-.014-.042-.036-.077-.056-.113a.441.441 0 0 1-.044-.098 2.27 2.27 0 0 0-.052-.184l-.002-.006-.015-.045a2.06 2.06 0 0 0-.063-.156c-.053-.116-.119-.22-.17-.338-.002-.001-.002-.002-.002-.003l-.01-.023-.01-.024v-.003c-.021-.057-.04-.119-.06-.18l-.003-.005a.588.588 0 0 0-.018-.055.885.885 0 0 0-.069-.164c-.013-.023-.025-.046-.039-.068a6.592 6.592 0 0 0-.238-.533.068.068 0 0 0-.04-.033.069.069 0 0 0-.072.017l-.002.001-.006-.012a.879.879 0 0 0-.026-.048c-.02-.038-.051-.088-.085-.143a3.896 3.896 0 0 0-.22-.322.068.068 0 0 0-.066-.024h-.002a.074.074 0 0 0-.023.008 3.343 3.343 0 0 0-.294-.405.06.06 0 0 0-.014-.012.068.068 0 0 0-.086.002 3.599 3.599 0 0 0-.28-.38.07.07 0 0 0-.064-.023.066.066 0 0 0-.04.02l-.04-.04c-.102-.135-.225-.314-.366-.449a.07.07 0 0 0-.088-.006c-.12-.108-.214-.228-.36-.37a3.696 3.696 0 0 0-.438-.36.066.066 0 0 0-.065-.013.065.065 0 0 0-.031.02c-.01-.011-.018-.023-.031-.035-.088-.086-.24-.211-.32-.29l-.003-.003a.067.067 0 0 0-.096-.01c-.01-.012-.019-.025-.034-.038-.092-.086-.258-.212-.337-.287a.068.068 0 0 0-.089-.004.33.33 0 0 0-.053-.06c-.091-.085-.254-.217-.335-.293l-.008-.006a.069.069 0 0 0-.084-.001l-.002.002a.475.475 0 0 0-.058-.057c-.058-.052-.148-.117-.228-.182a.948.948 0 0 1-.159-.155.066.066 0 0 0-.076-.038.066.066 0 0 0-.042.025 1.231 1.231 0 0 0-.05-.054l-.215-.204c-.023-.022-.041-.045-.061-.068-.017-.02-.036-.043-.07-.056l-.007-.004a.068.068 0 0 0-.09.035l-.013-.01a.763.763 0 0 1-.055-.047c-.087-.088-.261-.248-.315-.313a.066.066 0 0 0-.039-.022.068.068 0 0 0-.06.013.305.305 0 0 1-.023.017l-.118-.093-.016-.016c-.08-.092-.246-.264-.296-.332a.075.075 0 0 0-.034-.025.068.068 0 0 0-.06.006l-.009.004a27.154 27.154 0 0 1-.243-.23c-.005-.196-.109-.408-.173-.658a4.455 4.455 0 0 0-.172-.527c-.018-.038-.03-.065-.05-.09-.038-.048-.091-.05-.14-.051-.05 0-.104.007-.16.013a1.208 1.208 0 0 1-.309.018c-.122-.023-.31-.109-.463-.186l-.198-.1a.617.617 0 0 0-.101-.038.065.065 0 0 0-.032.002.078.078 0 0 0-.046.043c-.013.034-.007.054-.004.076.004.022.01.045.016.07v.005a5.31 5.31 0 0 1-.215-.157l-.001-.001a5.698 5.698 0 0 1-.127-.102c-.448-1.065-.488-2-.84-2.93a6.589 6.589 0 0 0-.195-.459 1.574 1.574 0 0 0-.216-.365.194.194 0 0 0-.055-.044c-.015-.016-.053-.022-.084-.005-.04.022-.047.056-.052.083a.413.413 0 0 0-.004.086c.003.063.013.143.023.235.022.183.05.413.044.623-.011.369.013.815.029 1.178.007.181.013.342.01.46a.902.902 0 0 1-.01.138.12.12 0 0 1-.01.032.668.668 0 0 1-.153.042c-.087.015-.194.028-.302.046a1.931 1.931 0 0 0-.31.068c-.09.03-.173.07-.213.151a.109.109 0 0 0-.005.078.136.136 0 0 0 .035.052.423.423 0 0 0 .106.068c.087.042.208.087.351.138.284.101.652.229.968.395.11.101.203.19.312.317.218.256.431.514.643.772a2.916 2.916 0 0 1-.31.163c-.046.02-.082.037-.113.055-.015.01-.03.019-.043.036a.102.102 0 0 0-.02.078c.01.047.034.056.056.075a.645.645 0 0 0 .086.055c.07.04.164.084.274.13.215.092.492.19.764.26.347.43.689.854 1.03 1.266-.002 0-.003 0-.004.002-.036.033-.045.07-.06.113-.017.045-.035.1-.067.172-.028.064-.067.153-.097.23a1.901 1.901 0 0 0-.038.1.212.212 0 0 0-.01.041.08.08 0 0 0 .047.085c.634.253.967.295 1.105.301l.001.001v.034c0 .024.014.046.036.058.024.013.047.03.08.046l.015.018a.067.067 0 0 0 .022.082.04.04 0 0 0 .013.009l.009.004.057.035.017.01.052.061-.002.058c0 .025.013.049.035.06l.002.002c.023.013.056.04.105.049l.065.079a.276.276 0 0 0-.004.036.067.067 0 0 0 .02.056c.006.004.011.01.018.013l.055.028.033.016.009.01c.027.035.057.068.087.103-.002.01-.004.016-.005.028a.07.07 0 0 0 .02.061l.013.011.061.036.071.042.06.064-.006.034a.07.07 0 0 0 .02.058.11.11 0 0 0 .017.014l.066.034.075.04.007.004.033.033c0 .01-.003.02-.003.034a.067.067 0 0 0 .02.055c.005.005.011.01.018.014l.06.03.072.036.01.005.066.065v.001a.068.068 0 0 0 .018.09c.01.01.025.015.04.016a.496.496 0 0 1 .115.064l.008.005.06.058v.006a.068.068 0 0 0 .018.087.07.07 0 0 0 .038.017.542.542 0 0 1 .128.069l.065.065a.069.069 0 0 0 .02.09.509.509 0 0 1 .145.081c.003.003.005.005.008.006l.076.08v.016a.07.07 0 0 0 .019.087.07.07 0 0 0 .036.016.427.427 0 0 1 .098.05l.06.066-.001.002a.07.07 0 0 0 .012.085h.001c.01.011.024.018.04.02a.531.531 0 0 1 .117.075l.052.055a.066.066 0 0 0 .021.066.07.07 0 0 0 .04.02.294.294 0 0 1 .062.035l.077.077-.003.011v.003a.069.069 0 0 0 .034.068l.021.012-.013.003a.104.104 0 0 0-.04.005l-.012-.002h.013-.015c-.005 0-.012 0-.021.003a.106.106 0 0 0-.042.002h-.002a.124.124 0 0 0-.042.002.118.118 0 0 0-.041 0 .083.083 0 0 0-.032-.001h.02l-.013-.002c-.004 0-.01-.001-.021.002l-.01-.001-.024-.001-.017.002h-.002a.302.302 0 0 0-.05-.003.129.129 0 0 0-.026-.003c-.006 0-.012 0-.022.003-.004-.001-.005-.003-.012-.003a.06.06 0 0 0-.025.003h-.013l-.006-.001-.007.002.002-.001c-.15-.001-.287-.004-.38.08a.084.084 0 0 0-.025.056c0 .02.006.034.012.044.011.02.024.031.04.043a.715.715 0 0 0 .122.08c.106.06.262.136.454.217.38.161.902.346 1.444.478.56.465 1.119.895 1.532 1.203.079.06.149.086.208.104.06.017.104.024.148.045.13.063.178.104.2.13zm-5.573-4.956c.013-.01.02-.011.018-.011l-.018.011zm.228.253a.061.061 0 0 0-.01.007c.004-.005.006-.005.01-.006zm.011-.005l.01-.002-.01.002zm.198.258v-.001c.012-.01.02-.01.02-.01a.142.142 0 0 0-.02.01zm8.687 11.885a4.627 4.627 0 0 0-.168-.474 9.801 9.801 0 0 0-.682-1.36 41.33 41.33 0 0 0-.232-1.933.608.608 0 0 0-.075-.22c-.03-.054-.056-.091-.072-.138a.59.59 0 0 1-.05-.233c0-.017.003-.028.007-.046a.17.17 0 0 0 0-.073c-.02-.087-.036-.137-.041-.21-.01-.131-.003-.287-.022-.412-.026-.163-.09-.293-.127-.397-.022-.061-.024-.14-.04-.222a.316.316 0 0 0-.163-.23.117.117 0 0 0-.056-.014.099.099 0 0 0-.054.017c.014-.01.014-.009-.002 0-.01.008-.008.008-.006.005l-.009.007a.08.08 0 0 0-.008.007v.001l-.002.001-.004.005h-.002a.05.05 0 0 1-.007.006.068.068 0 0 0-.033.075c.008.033.02.055.024.066l.003.006.002.01.001.01v.047c-.011.2-.078.487-.145.697l-.016.052c-.01.032-.022.062-.033.09l-.02.055c-.1.244-.176.314-.272.485l-.003.005-.018.033c-.021.04-.03.08-.041.12a.438.438 0 0 1-.038.1 2.564 2.564 0 0 0-.096.172l-.021.043c-.023.049-.045.1-.065.154-.045.12-.073.24-.12.36v.003l-.01.023-.01.024-.002.004c-.025.054-.056.113-.085.169a.015.015 0 0 0-.002.005l-.027.051a.937.937 0 0 0-.067.165l-.02.075a6.412 6.412 0 0 0-.208.546.065.065 0 0 0 .005.053c.012.024.037.04.063.038h.002a.064.064 0 0 0-.004.013l-.017.052a4.67 4.67 0 0 0-.11.545.069.069 0 0 0 .03.064h.001a.061.061 0 0 0 .021.011c-.03.123-.07.34-.08.494 0 .006 0 .013.003.019.003.032.03.057.062.059a3.53 3.53 0 0 0-.07.466.068.068 0 0 0 .029.06.06.06 0 0 0 .04.015v.056c-.022.167-.062.381-.058.576a.068.068 0 0 0 .059.066c.007.16-.01.313-.008.515l-.002.013a.068.068 0 0 0 .065.072 3.485 3.485 0 0 0-.008.479.067.067 0 0 0 .038.056.07.07 0 0 0 .037.009c-.002.015-.004.028-.004.046.001.123.021.32.022.431v.004a.069.069 0 0 0 .06.076c-.002.016-.004.03-.003.051.004.127.032.333.035.442 0 .033.027.062.06.066a.342.342 0 0 0-.006.08c.004.124.026.333.03.443l.001.01a.07.07 0 0 0 .058.06h.004a.448.448 0 0 0 0 .081c.004.079.021.188.033.29a.936.936 0 0 1 .003.221.069.069 0 0 0 .026.082.07.07 0 0 0 .048.012 8.031 8.031 0 0 0-.003.074c0 .052.005.221.007.295 0 .031-.003.061-.005.09-.002.026-.005.056.01.09l.002.007a.068.068 0 0 0 .09.038.665.665 0 0 1 .008.09c-.002.123.008.36 0 .444a.073.073 0 0 0 .011.044c.012.019.03.031.053.033a.15.15 0 0 1 .028.004l.018.149-.001.022c-.008.123-.014.361-.025.444a.071.071 0 0 0 .007.042.07.07 0 0 0 .046.038l.011.003c.004.113.006.224.008.335-.134.142-.21.365-.343.587a4.625 4.625 0 0 0-.25.494.383.383 0 0 0-.03.098c-.006.062.03.101.064.136.034.036.077.068.122.104.09.07.191.146.231.205.07.102.143.296.196.46.027.08.05.155.07.21.01.028.018.05.027.07a.112.112 0 0 0 .018.03c.005.005.01.013.024.02a.076.076 0 0 0 .062.002c.033-.014.044-.032.056-.05l.038-.06.003-.006c.015.087.03.175.041.264v.001c.007.053.013.107.018.163-.436 1.069-1.069 1.758-1.478 2.665-.058.13-.129.301-.186.463a1.6 1.6 0 0 0-.107.411.2.2 0 0 0 .008.071c.008.025.03.056.065.066.044.013.073-.006.095-.022a.393.393 0 0 0 .063-.058c.043-.047.093-.11.15-.183a4.29 4.29 0 0 1 .408-.472c.269-.252.567-.585.813-.853.124-.134.233-.251.317-.332a1.1 1.1 0 0 1 .105-.092c.012-.01.024-.013.03-.015a.681.681 0 0 1 .138.078c.072.05.157.117.246.181.09.065.18.128.268.17.088.044.175.074.26.046a.114.114 0 0 0 .059-.052.126.126 0 0 0 .012-.062.398.398 0 0 0-.028-.123 3.712 3.712 0 0 0-.151-.345c-.13-.273-.3-.622-.404-.964a3.33 3.33 0 0 1 .003-.446c.027-.334.059-.668.091-1 .14.036.254.075.335.105.047.018.085.033.12.04a.152.152 0 0 0 .055.006.096.096 0 0 0 .068-.041c.025-.04.017-.064.013-.093a.78.78 0 0 0-.022-.1 2.947 2.947 0 0 0-.1-.286 5.65 5.65 0 0 0-.357-.723c.058-.55.117-1.09.167-1.623l.003.001c.049.002.081-.017.124-.037.043-.02.096-.047.168-.075l.232-.093c.037-.016.07-.03.096-.045a.207.207 0 0 0 .037-.023c.005-.005.012-.01.02-.02.007-.012.02-.041.007-.072-.27-.627-.474-.892-.568-.994v-.002l.023-.023a.067.067 0 0 0 .016-.066c-.008-.027-.012-.055-.024-.09l.002-.024a.068.068 0 0 0 .043-.073c0-.006-.002-.01-.003-.017 0 0 0-.004-.003-.008l-.016-.065-.005-.018.007-.081.04-.04a.066.066 0 0 0 .02-.067l-.002-.002c-.007-.025-.011-.068-.04-.108.004-.034.008-.068.01-.103a.201.201 0 0 0 .03-.023.067.067 0 0 0 .023-.054.075.075 0 0 0-.003-.021 1.037 1.037 0 0 0-.02-.06l-.011-.035v-.014a2.98 2.98 0 0 0 .011-.133l.024-.016a.069.069 0 0 0 .028-.058l-.001-.017-.017-.068a9.079 9.079 0 0 0-.02-.08l.002-.087.027-.02a.067.067 0 0 0 .027-.056c0-.007 0-.014-.002-.021a.995.995 0 0 0-.022-.07l-.025-.083c0-.002 0-.005-.002-.008v-.047l.026-.021a.07.07 0 0 0 .025-.055.08.08 0 0 0-.003-.02.85.85 0 0 0-.022-.066 1.144 1.144 0 0 0-.026-.076l-.003-.01v-.093a.068.068 0 0 0 .051-.076.069.069 0 0 0-.016-.04.468.468 0 0 1-.037-.126c-.002-.003-.002-.007-.003-.01l-.001-.084c.002 0 .003-.003.005-.004a.068.068 0 0 0 .05-.074.066.066 0 0 0-.015-.038.508.508 0 0 1-.042-.14v-.092a.069.069 0 0 0 .05-.078.54.54 0 0 1-.045-.16l-.001-.009.002-.11c.004-.004.01-.01.013-.011a.069.069 0 0 0 .048-.074.066.066 0 0 0-.015-.038.42.42 0 0 1-.034-.104l.005-.09h.002a.068.068 0 0 0 .05-.069.068.068 0 0 0-.013-.042.557.557 0 0 1-.03-.137v-.075a.069.069 0 0 0 .033-.061.074.074 0 0 0-.014-.042.268.268 0 0 1-.018-.07v-.108a.066.066 0 0 0 .01-.007s.002 0 .003-.002a.067.067 0 0 0 .024-.071l-.007-.025c.004.003.006.006.011.008.009.01.02.019.033.025.003.003.003.007.007.01l-.01-.01a.11.11 0 0 0 .01.012.068.068 0 0 0 .019.012c.007.01.017.021.03.029h.002l.022.025.008.005a.095.095 0 0 0 .03.03l.01.014.005.004c.002.003.005.008.016.014a.051.051 0 0 0 .006.007.121.121 0 0 0 .03.028c.01.016.021.027.024.03l.009.008a.12.12 0 0 0 .017.021c.004.004.008.009.018.014l.006.01c.004.004.011.01.02.014l.01.01.002.005.007.004h-.002c.105.106.2.205.325.212a.086.086 0 0 0 .06-.022.08.08 0 0 0 .021-.04.152.152 0 0 0 .003-.059 1.28 1.28 0 0 0-.033-.141zm-.846 2.737l.009.006-.01-.006zm.002.35c-.017-.002-.021-.007-.02-.006l.02.005v.001zm.03-.336l-.012-.004a.05.05 0 0 1 .011.004zm.018-.33c-.017-.002-.022-.007-.021-.006l.021.005v.001z" fill="#828FA2"/></svg>