<svg width="31" height="31" viewBox="0 0 31 31" fill="none" xmlns="http://www.w3.org/2000/svg"><circle cx="15.284" cy="15.284" r="14.784" fill="#033953" stroke="#828FA2"/><path d="M24.47 8.652c-.029-.058-.088-.086-.154-.109a1.373 1.373 0 0 0-.219-.049c-.077-.012-.153-.021-.214-.032a.543.543 0 0 1-.108-.03.086.086 0 0 1-.008-.022.963.963 0 0 1-.006-.098 6.066 6.066 0 0 1 .007-.326c.01-.257.029-.573.02-.835-.004-.149.016-.311.032-.441.008-.065.014-.121.016-.167 0-.022 0-.042-.003-.06-.003-.02-.008-.044-.036-.06a.074.074 0 0 0-.066.001.137.137 0 0 0-.04.031c-.05.054-.1.15-.152.26a4.51 4.51 0 0 0-.139.325c-.25.658-.277 1.321-.595 2.075-.03.025-.06.05-.09.073-.051.04-.102.076-.154.112l.001-.004a.527.527 0 0 0 .011-.05c.003-.015.007-.03-.003-.053a.057.057 0 0 0-.032-.03.046.046 0 0 0-.023-.002.092.092 0 0 0-.023.006l-.048.02-.14.072a1.516 1.516 0 0 1-.329.132.858.858 0 0 1-.219-.013.764.764 0 0 0-.113-.01c-.034.001-.072.003-.1.037-.014.018-.022.037-.034.064a3.18 3.18 0 0 0-.123.373c-.045.178-.119.327-.122.466-.057.054-.113.109-.172.163l-.007-.003a.046.046 0 0 0-.042-.004.049.049 0 0 0-.024.018c-.036.047-.153.169-.21.235l-.011.012-.084.065a.242.242 0 0 1-.016-.012.047.047 0 0 0-.043-.01.051.051 0 0 0-.027.017c-.038.045-.162.16-.224.221a.34.34 0 0 1-.039.034l-.01.007a.049.049 0 0 0-.063-.025l-.005.003c-.024.01-.037.025-.05.04-.013.016-.026.033-.042.048l-.152.144a.758.758 0 0 0-.036.038.05.05 0 0 0-.03-.017.049.049 0 0 0-.054.027.646.646 0 0 1-.112.11c-.057.046-.12.091-.162.128a.377.377 0 0 0-.04.04h-.003a.049.049 0 0 0-.06 0l-.005.004c-.057.054-.172.148-.237.207a.235.235 0 0 0-.038.044.048.048 0 0 0-.063.002c-.056.053-.173.143-.239.204-.01.009-.016.018-.024.027a.048.048 0 0 0-.068.007l-.002.002c-.056.055-.164.144-.227.205l-.021.025a.053.053 0 0 0-.023-.014.049.049 0 0 0-.046.01 2.404 2.404 0 0 0-.236.243.048.048 0 0 0-.068.004l-.006.008c-.103.1-.17.185-.255.262a.05.05 0 0 0-.062.004c-.1.095-.187.222-.26.317l-.028.029a.049.049 0 0 0-.028-.014.048.048 0 0 0-.046.016c-.065.073-.147.19-.198.27a.048.048 0 0 0-.061-.002l-.01.009a2.354 2.354 0 0 0-.208.287.04.04 0 0 0-.016-.005h-.002a.048.048 0 0 0-.046.016 2.535 2.535 0 0 0-.217.33l-.018.033a.106.106 0 0 1-.004.01l-.002-.002a.049.049 0 0 0-.05-.012.046.046 0 0 0-.03.024c-.056.108-.142.31-.168.378-.01.015-.018.031-.028.048a.627.627 0 0 0-.049.115l-.012.04-.002.003c-.014.043-.028.088-.043.127v.003l-.007.017-.007.016-.001.002c-.037.084-.083.158-.12.24a1.356 1.356 0 0 0-.045.11l-.011.032-.002.004a1.64 1.64 0 0 0-.037.131.309.309 0 0 1-.03.069c-.015.025-.03.05-.04.08l-.008.026v.004c-.038.134-.035.207-.108.379-.005.012-.01.025-.017.038l-.029.061a2.271 2.271 0 0 1-.318.48.044.044 0 0 1-.005.004l-.006.005h-.004c-.008.004-.024.009-.045.022a.05.05 0 0 0-.022.054l.001.005v.007l.001.008.001.008a.03.03 0 0 0 .001.005c.003.013.003.013 0 0v.002c.002.01.008.024.018.035.011.01.023.017.035.02.079.026.147 0 .197-.033.05-.033.09-.071.132-.09.071-.034.169-.067.262-.136.073-.052.147-.135.217-.195.04-.034.072-.051.126-.085a.124.124 0 0 0 .036-.037c.008-.01.01-.018.019-.026a.419.419 0 0 1 .143-.092c.031-.015.063-.02.105-.032a.441.441 0 0 0 .147-.074c.293-.218.688-.523 1.086-.852a6.874 6.874 0 0 0 1.023-.34c.136-.057.246-.11.321-.152a.561.561 0 0 0 .088-.057.102.102 0 0 0 .027-.03.061.061 0 0 0 .01-.032.06.06 0 0 0-.02-.04c-.065-.06-.162-.057-.268-.056h.001l-.005-.001h-.014a.044.044 0 0 0-.017-.001c-.005 0-.005 0-.008.002l-.016-.002c-.006 0-.012 0-.019.002l-.008-.001c-.003 0-.014 0-.027.003h-.001c-.006-.002-.01-.002-.013-.002h-.016l-.007.002-.015-.002c-.004 0-.007 0-.01.002h.015a.06.06 0 0 0-.023 0 .06.06 0 0 0-.029 0l-.007-.001a.15.15 0 0 0-.023 0h-.001a.074.074 0 0 0-.03-.001.054.054 0 0 0-.015-.003h-.01.009l-.008.002a.073.073 0 0 0-.03-.004c-.003 0-.005 0-.009-.002l.016-.008a.048.048 0 0 0 .024-.048v-.002a.239.239 0 0 0-.002-.008l.054-.055a.155.155 0 0 1 .044-.025.048.048 0 0 0 .028-.014.05.05 0 0 0 .015-.047l.037-.038a.352.352 0 0 1 .083-.053.044.044 0 0 0 .028-.014l.001-.001a.048.048 0 0 0 .009-.06v-.002l.041-.046a.301.301 0 0 1 .07-.036.052.052 0 0 0 .026-.011.049.049 0 0 0 .013-.062v-.011c.017-.02.035-.038.054-.057.002 0 .003-.002.005-.003a.363.363 0 0 1 .103-.058.049.049 0 0 0 .014-.064l.046-.046a.38.38 0 0 1 .09-.049.05.05 0 0 0 .028-.012.048.048 0 0 0 .013-.062v-.004l.042-.041.006-.004a.344.344 0 0 1 .082-.045c.01 0 .02-.005.028-.011a.05.05 0 0 0 .012-.064l.048-.047.006-.003a1.73 1.73 0 0 0 .05-.026l.044-.022a.054.054 0 0 0 .012-.01.047.047 0 0 0 .015-.038.251.251 0 0 0-.003-.024l.024-.024.005-.002.053-.029.047-.024a.051.051 0 0 0 .012-.01.049.049 0 0 0 .014-.041l-.004-.024.042-.045.05-.03a.943.943 0 0 0 .053-.033.047.047 0 0 0 .014-.043c0-.008-.002-.014-.003-.02l.062-.073a.07.07 0 0 1 .006-.008l.023-.011.04-.02a.042.042 0 0 0 .011-.01.048.048 0 0 0 .015-.038c0-.013-.002-.018-.003-.026.016-.02.032-.037.046-.056.034-.007.058-.025.074-.035h.002c.022-.005.03-.022.03-.04v-.04l.037-.044.011-.007a2.698 2.698 0 0 0 .047-.027l.01-.006a.049.049 0 0 0 .015-.058l.01-.014c.024-.011.04-.023.058-.032a.05.05 0 0 0 .025-.041v-.024c.099-.005.334-.035.784-.214a.054.054 0 0 0 .031-.04.055.055 0 0 0 .001-.02.894.894 0 0 0-.033-.1l-.069-.163c-.022-.05-.035-.09-.047-.122-.011-.032-.017-.057-.043-.08l-.002-.002c.24-.292.483-.592.73-.896.192-.05.388-.12.54-.184.079-.033.146-.065.194-.093a.53.53 0 0 0 .061-.04c.016-.012.033-.02.04-.052a.07.07 0 0 0-.014-.056.115.115 0 0 0-.03-.025c-.022-.012-.048-.024-.08-.039a2.24 2.24 0 0 1-.22-.116c.15-.182.302-.365.455-.546.077-.09.143-.154.222-.225.224-.118.484-.208.686-.28.101-.036.186-.068.248-.098a.288.288 0 0 0 .075-.048c.01-.01.02-.02.025-.037a.072.072 0 0 0-.003-.055zm-5.335 5.452zm1.096-1.141a.112.112 0 0 0-.013-.008c-.001 0 .004 0 .013.007zm.134-.184l.007.001a.084.084 0 0 0-.007-.001zm.023.01l-.008-.005.008.004zm.153-.184a.08.08 0 0 0-.013-.008c0-.001.005 0 .013.007zm-6.575 3.512c.009.01.012.017.02.027.007.01.018.026.036.037.053.034.086.05.125.085.07.06.145.142.217.195.095.069.192.102.262.135.043.02.083.058.132.09.05.034.118.06.197.035a.084.084 0 0 0 .035-.021.071.071 0 0 0 .018-.035v-.001c-.002.013-.002.012 0 0l.001-.006.001-.008.001-.007v-.008l.001-.005a.05.05 0 0 0-.021-.054c-.021-.013-.038-.018-.046-.021l-.004-.002s-.002 0-.006-.004l-.005-.004-.023-.025a2.305 2.305 0 0 1-.277-.42l-.018-.035a2.539 2.539 0 0 1-.029-.06l-.017-.04c-.073-.171-.07-.244-.107-.378l-.001-.004a.589.589 0 0 0-.008-.026c-.009-.03-.024-.054-.039-.08a.31.31 0 0 1-.03-.07 1.64 1.64 0 0 0-.038-.13l-.002-.004-.01-.032a1.469 1.469 0 0 0-.045-.11c-.037-.083-.084-.156-.12-.24l-.002-.002-.007-.016-.006-.017-.001-.003a2.687 2.687 0 0 1-.043-.127l-.001-.003-.013-.04a.628.628 0 0 0-.049-.115l-.027-.048a4.645 4.645 0 0 0-.17-.378.048.048 0 0 0-.028-.024.049.049 0 0 0-.05.012l-.002.001-.004-.009a.6.6 0 0 0-.019-.034 2.784 2.784 0 0 0-.217-.33.048.048 0 0 0-.046-.016h-.001a.052.052 0 0 0-.017.006 2.37 2.37 0 0 0-.218-.296.048.048 0 0 0-.06.001 2.548 2.548 0 0 0-.199-.27.05.05 0 0 0-.045-.015h-.001a.047.047 0 0 0-.028.014l-.028-.029c-.072-.095-.16-.222-.26-.317a.049.049 0 0 0-.062-.004c-.084-.077-.151-.162-.254-.262a2.606 2.606 0 0 0-.31-.255.047.047 0 0 0-.047-.01.047.047 0 0 0-.023.014c-.006-.008-.012-.016-.021-.025-.062-.06-.17-.15-.227-.205l-.002-.002a.048.048 0 0 0-.068-.007.12.12 0 0 0-.024-.027c-.066-.061-.183-.15-.239-.204a.048.048 0 0 0-.063-.002.235.235 0 0 0-.037-.044c-.065-.06-.18-.153-.238-.207l-.005-.004a.049.049 0 0 0-.06 0h-.002a.323.323 0 0 0-.04-.04c-.042-.036-.105-.082-.162-.128a.67.67 0 0 1-.113-.11.047.047 0 0 0-.054-.027.047.047 0 0 0-.03.017.758.758 0 0 0-.036-.037c-.026-.027-.113-.109-.151-.145a.387.387 0 0 1-.043-.049c-.013-.014-.026-.03-.05-.04l-.005-.002a.048.048 0 0 0-.063.025l-.01-.007a.54.54 0 0 1-.04-.034c-.06-.062-.184-.176-.223-.221a.047.047 0 0 0-.027-.016.048.048 0 0 0-.043.01.213.213 0 0 1-.016.011l-.083-.065-.011-.012c-.058-.066-.175-.187-.21-.236a.053.053 0 0 0-.025-.017.048.048 0 0 0-.042.004l-.006.003a20.05 20.05 0 0 1-.172-.164c-.004-.138-.077-.288-.123-.465a3.18 3.18 0 0 0-.122-.373c-.013-.027-.02-.046-.035-.064-.028-.034-.065-.036-.1-.037-.035 0-.073.005-.113.01a.857.857 0 0 1-.219.013 1.517 1.517 0 0 1-.328-.132l-.14-.071a.435.435 0 0 0-.072-.027.046.046 0 0 0-.022.002.055.055 0 0 0-.033.03c-.01.024-.005.038-.003.054l.011.049v.004a3.833 3.833 0 0 1-.244-.185c-.316-.754-.345-1.416-.594-2.076a4.68 4.68 0 0 0-.138-.325 1.115 1.115 0 0 0-.153-.259.138.138 0 0 0-.04-.031c-.01-.01-.037-.016-.059-.003-.028.015-.033.04-.037.059a.292.292 0 0 0-.002.06c.002.045.009.102.016.167.016.13.036.293.031.441-.008.262.01.578.02.835.006.129.01.243.008.326a.79.79 0 0 1-.007.098.083.083 0 0 1-.007.022.472.472 0 0 1-.109.03c-.061.011-.137.02-.214.033a1.375 1.375 0 0 0-.219.048c-.064.021-.123.05-.152.107a.077.077 0 0 0-.003.055.095.095 0 0 0 .025.038.3.3 0 0 0 .075.048c.062.03.147.061.249.097.2.072.461.163.686.28.078.072.144.135.221.225.154.18.305.364.456.547-.088.052-.165.09-.22.115a.739.739 0 0 0-.08.04.077.077 0 0 0-.03.025.072.072 0 0 0-.015.055c.007.033.024.04.04.053a.447.447 0 0 0 .06.04c.05.027.117.059.194.092.153.064.35.134.542.184.246.305.488.605.73.897h-.003c-.025.024-.032.05-.043.081-.012.032-.024.072-.047.122l-.069.163c-.01.027-.02.05-.026.07a.148.148 0 0 0-.007.03v.021c.003.01.01.03.032.04.45.179.686.208.784.212v.025c0 .018.01.033.026.041.017.01.033.022.056.033l.011.012v.001a.048.048 0 0 0 .016.058.03.03 0 0 0 .01.006l.005.003.041.025.012.006.037.044-.002.041c0 .018.01.034.025.043l.002.001c.015.01.04.028.074.034.014.019.03.038.046.057a.203.203 0 0 0-.003.025.047.047 0 0 0 .015.04.65.65 0 0 0 .051.03l.023.01.006.008.062.072c-.001.007-.003.012-.003.02a.05.05 0 0 0 .015.044l.008.007.044.026.05.03.042.045-.004.024a.049.049 0 0 0 .015.041.808.808 0 0 0 .058.034l.053.029.005.002.024.024-.003.024a.047.047 0 0 0 .015.039.056.056 0 0 0 .012.01l.043.021.051.026.006.003.048.046a.048.048 0 0 0 .012.065c.008.006.018.01.028.011.01 0 .045.02.082.045l.006.004.043.041v.004a.048.048 0 0 0 .012.062.05.05 0 0 0 .027.012.38.38 0 0 1 .09.049c.017.015.031.03.047.046a.049.049 0 0 0 .014.064.356.356 0 0 1 .103.057l.005.004.055.057-.001.011a.049.049 0 0 0 .014.062c.007.006.016.01.025.011a.306.306 0 0 1 .07.036l.042.046v.002a.05.05 0 0 0 .008.06.052.052 0 0 0 .029.015.375.375 0 0 1 .083.053l.037.038a.047.047 0 0 0 .015.047.048.048 0 0 0 .028.014.21.21 0 0 1 .044.025l.055.054-.002.008v.003a.049.049 0 0 0 .023.048l.016.008-.01.003a.072.072 0 0 0-.029.003l-.008-.002h.01-.011c-.004 0-.008 0-.015.002a.075.075 0 0 0-.03.002h-.001a.088.088 0 0 0-.03.001.086.086 0 0 0-.03 0 .06.06 0 0 0-.021 0h.014l-.01-.002-.015.002-.007-.001h-.028a.207.207 0 0 0-.028-.002h-.008a.094.094 0 0 0-.02-.002l-.015.002c-.002 0-.003-.002-.008-.002s-.01 0-.017.002h-.014l-.005.001h.001c-.106-.001-.203-.003-.269.056a.06.06 0 0 0-.018.04c0 .015.005.024.009.031a.103.103 0 0 0 .028.031c.02.018.049.036.087.057.075.042.185.095.321.153.27.114.64.246 1.023.339.398.33.793.634 1.086.852a.44.44 0 0 0 .147.073c.042.013.074.018.105.033a.43.43 0 0 1 .142.091zm-3.949-3.511v-.001l.013-.008-.013.009zm.161.18a.043.043 0 0 0-.007.004c.003-.004.005-.004.007-.005zm.008-.005l.008-.001-.008.001zm.14.183c.01-.008.015-.008.014-.008a.1.1 0 0 0-.013.008zm6.157 8.421a3.288 3.288 0 0 0-.12-.336 6.955 6.955 0 0 0-.483-.963 29.434 29.434 0 0 0-.164-1.37.432.432 0 0 0-.053-.156c-.02-.038-.04-.065-.051-.098a.42.42 0 0 1-.036-.165c0-.012.002-.02.005-.033a.12.12 0 0 0 0-.052c-.014-.061-.025-.096-.029-.149-.007-.092-.002-.203-.015-.291-.019-.116-.064-.208-.09-.281-.016-.044-.017-.1-.029-.157a.224.224 0 0 0-.115-.164.083.083 0 0 0-.04-.01.07.07 0 0 0-.038.012v.001c.01-.007.01-.007-.001 0l-.004.003c-.002 0-.004.002-.007.005a.068.068 0 0 0-.006.005v.001l-.004.004H15.2l-.004.004a.048.048 0 0 0-.023.053c.005.024.014.04.017.047 0 .003 0 .004.002.004v.007c0 .004.002.006.002.007l-.001.034a2.262 2.262 0 0 1-.102.494l-.012.036a.788.788 0 0 1-.023.064l-.015.039c-.07.173-.124.223-.192.344l-.002.003-.013.024c-.015.028-.02.057-.03.085a.313.313 0 0 1-.026.07 1.776 1.776 0 0 0-.068.123l-.015.03a1.433 1.433 0 0 0-.046.11c-.032.084-.051.17-.084.254l-.001.002a.16.16 0 0 1-.007.017l-.007.017-.002.002c-.017.039-.039.08-.06.12l-.001.003-.02.037a.648.648 0 0 0-.047.116l-.014.054c-.03.066-.111.27-.147.387a.047.047 0 0 0 .004.038.048.048 0 0 0 .044.027h.002a.046.046 0 0 0-.004.008l-.011.038a2.966 2.966 0 0 0-.079.386.049.049 0 0 0 .021.045h.002c.004.004.01.007.014.008a2.42 2.42 0 0 0-.056.35c0 .004 0 .009.002.013.002.023.021.04.044.042-.02.092-.045.233-.05.33a.048.048 0 0 0 .02.043.05.05 0 0 0 .03.01l-.001.04c-.016.119-.044.27-.04.408 0 .024.017.044.04.047.006.114-.007.221-.005.365l-.001.01a.048.048 0 0 0 .046.05 2.47 2.47 0 0 0-.005.34c0 .016.01.032.026.04a.05.05 0 0 0 .026.005l-.002.034c0 .086.014.226.015.305v.003a.049.049 0 0 0 .042.053c-.001.012-.003.022-.002.037.004.089.023.235.025.313 0 .023.02.043.043.046a.242.242 0 0 0-.005.057c.003.088.019.236.022.314v.007a.05.05 0 0 0 .042.043h.002a.328.328 0 0 0 0 .057c.003.056.015.133.023.205a.664.664 0 0 1 .002.157.048.048 0 0 0 .02.058.05.05 0 0 0 .033.009l-.002.052.005.21-.003.063a.117.117 0 0 0 .006.063l.002.006c.01.025.038.037.063.027l.002.011a.453.453 0 0 1 .004.053c0 .087.006.255.001.314a.05.05 0 0 0 .008.03.048.048 0 0 0 .037.024l.02.003.012.106v.015c-.006.088-.01.256-.018.315a.05.05 0 0 0 .005.03.05.05 0 0 0 .033.027l.007.002.006.237c-.095.1-.15.259-.243.416a3.254 3.254 0 0 0-.178.35c-.01.028-.018.047-.02.07-.005.044.02.071.045.096.024.025.055.048.086.073.065.05.136.104.164.146.05.072.101.21.14.326l.048.15a.389.389 0 0 0 .02.048c.003.007.005.013.012.021.004.004.008.01.017.014.01.006.03.01.044.002.024-.01.031-.023.04-.036.009-.012.018-.027.027-.042l.002-.004a2.95 2.95 0 0 1 .041.303c-.308.758-.756 1.246-1.046 1.889a4.494 4.494 0 0 0-.132.328 1.13 1.13 0 0 0-.076.291c0 .017 0 .033.005.05.007.018.022.04.046.047.032.009.053-.005.068-.015a.28.28 0 0 0 .045-.042c.03-.033.066-.078.105-.129.081-.103.182-.232.29-.334.19-.18.402-.415.576-.605.088-.095.166-.178.225-.236a.77.77 0 0 1 .074-.065.065.065 0 0 1 .021-.01.48.48 0 0 1 .098.055l.175.129c.063.045.127.09.19.12.062.03.123.052.184.032a.08.08 0 0 0 .042-.037.09.09 0 0 0 .008-.044.281.281 0 0 0-.02-.087 2.626 2.626 0 0 0-.107-.244c-.091-.193-.212-.441-.286-.683a2.338 2.338 0 0 1 .002-.316c.02-.237.042-.473.065-.708.098.025.18.052.237.074.034.013.06.023.084.028.013.003.024.006.04.004a.068.068 0 0 0 .048-.029c.018-.028.012-.045.01-.066a.54.54 0 0 0-.017-.07 2.085 2.085 0 0 0-.07-.203 4.002 4.002 0 0 0-.253-.513c.041-.389.082-.772.118-1.15l.002.002c.035 0 .058-.013.088-.027.03-.014.068-.033.12-.053l.163-.066c.027-.012.05-.022.069-.032a.15.15 0 0 0 .025-.016.042.042 0 0 0 .015-.015.056.056 0 0 0 .005-.05c-.191-.445-.336-.633-.403-.705v-.001l.017-.017a.048.048 0 0 0 .011-.046c-.005-.02-.009-.04-.017-.064 0-.005 0-.01.002-.017a.048.048 0 0 0 .03-.052l-.002-.012-.002-.006-.012-.046-.003-.012.005-.058.029-.028a.048.048 0 0 0 .013-.047v-.002c-.006-.018-.009-.048-.029-.077l.007-.072.02-.016a.047.047 0 0 0 .017-.039c0-.005 0-.01-.002-.015a.756.756 0 0 0-.022-.067v-.01c.004-.031.006-.063.008-.094l.017-.012a.049.049 0 0 0 .02-.041l-.001-.012-.012-.048-.014-.056c0-.021 0-.042.002-.063l.019-.014a.047.047 0 0 0 .019-.04c0-.004 0-.01-.002-.014l-.015-.05a2.483 2.483 0 0 0-.018-.058l-.001-.006v-.034l.018-.015a.05.05 0 0 0 .018-.038l-.002-.015a.65.65 0 0 0-.016-.046.823.823 0 0 0-.018-.054l-.002-.007-.001-.066a.048.048 0 0 0 .037-.054.05.05 0 0 0-.012-.028.33.33 0 0 1-.026-.09l-.003-.006v-.06l.004-.003a.048.048 0 0 0 .034-.053c0-.01-.004-.02-.01-.027a.359.359 0 0 1-.03-.098v-.066h.001a.049.049 0 0 0 .035-.055.376.376 0 0 1-.033-.12l.002-.078.009-.008a.049.049 0 0 0 .034-.052.047.047 0 0 0-.01-.027.297.297 0 0 1-.025-.074l.004-.063h.001a.048.048 0 0 0 .036-.05.048.048 0 0 0-.01-.029.398.398 0 0 1-.021-.097v-.053a.049.049 0 0 0 .024-.044.052.052 0 0 0-.01-.03.19.19 0 0 1-.013-.048v-.077a.044.044 0 0 0 .007-.005l.002-.001a.047.047 0 0 0 .017-.051l-.005-.018.008.006a.07.07 0 0 0 .023.018c.002.002.002.005.005.007l-.007-.007.008.008a.052.052 0 0 0 .013.009.07.07 0 0 0 .021.02h.002a.142.142 0 0 0 .015.018l.006.004a.067.067 0 0 0 .02.02.051.051 0 0 0 .009.01l.002.004.012.01.004.005.012.012a.074.074 0 0 0 .01.008c.007.01.015.018.017.02l.006.006c.003.006.007.01.012.015a.045.045 0 0 0 .013.01l.004.006a.051.051 0 0 0 .014.011l.007.007.002.003.005.003h-.002c.075.075.142.146.23.15a.061.061 0 0 0 .042-.015c.01-.01.014-.02.016-.029a.11.11 0 0 0 .002-.04.927.927 0 0 0-.023-.101zm-.6 1.94l.006.004-.006-.004zm.002.247c-.012-.001-.015-.004-.015-.004l.015.004zm.02-.238a.023.023 0 0 1-.008-.003l.008.003zm.013-.233c-.011-.002-.015-.005-.015-.005l.016.004z" fill="#828FA2"/></svg>