<svg width="31" height="31" viewBox="0 0 31 31" fill="none" xmlns="http://www.w3.org/2000/svg"><mask id="a" maskUnits="userSpaceOnUse" x="0" y="0" width="31" height="31"><circle cx="15.5" cy="15.5" r="15.5" fill="#fff"/></mask><g mask="url(#a)"><circle cx="15.5" cy="15.5" r="15" fill="#033953" stroke="#828FA2"/><path d="M17.704 9.521c.354.292.733.612 1.12.923.353.284.712.561 1.073.836.142.109.283.265.442.294.565.1.45.555.496.927.007.056-.031.158-.07.17-.376.13-.758.34-1.136.336-.367-.004-.675-.025-.952.265-.093.098-.255.126-.517.247l.75.777c-.33.391-.154.77.09 1.146.108.166.221.335.289.52.26.716.505 1.438.788 2.253.497-.034 1.139-.058 1.775-.127.497-.054.818.116 1.065.574.168.31.418.603.696.812.622.47.452 1.906-.212 2.378-.116.083-.49.028-.512-.04-.082-.265-.177-.617-.073-.838.329-.692.34-.656-.16-1.273-.424-.522-.886-.833-1.58-.703-.368.07-.482.248-.45.611.045.51.133 1.034.07 1.534-.056.442-.289.86-.458 1.282a.384.384 0 0 1-.2.19c-.239.091-.486.16-.771.25l-.05-.892c-.953-.171-.89-1.298-1.57-1.8-.154.132-.325.236-.44.385-.742.97-1.722 1.514-2.878 1.773-.129.03-.268.223-.316.37-.103.314-.131.652-.221.97-.195.692-.53 1.27-1.17 1.642-.528.306-.497 1.195.032 1.525.15.093.323.152.492.2a4.981 4.981 0 0 1 2.064 1.144c.327.3.823.403 1.238.607.988.488 1.974.98 2.958 1.475.424.214.844.437 1.248.734h-.46L3.667 31c-.706 0-.785-.116-.54-.83.193-.567.24-1.23.905-1.506.055-.023.048-.209.07-.32.1-.515.195-1.03.3-1.545.084-.407.228-.805.264-1.214.14-1.536.982-2.76 1.636-4.07a.433.433 0 0 1 .136-.14c.515-.38.8-.89 1.1-1.479.373-.734 1.04-1.356 1.693-1.88.783-.629 1.096-1.42.946-2.347-.22-1.355.327-2.47.841-3.616.007-.015.014-.034.027-.041.763-.397.445-1.008.314-1.6a1.184 1.184 0 0 1 .986-1.408.457.457 0 0 1 .19.016c.495.154.885 1.387.554 1.795-.256.317-.225.537.103.77.269.193.486.464.759.648.094.063.38.02.417-.056.17-.358.276-.75.425-1.12a.758.758 0 0 1 .231-.297 3.38 3.38 0 0 1 1.625-.704c.377-.06.718-.356 1.056-.535zm-4.135 19.06l.025-.178c-.194-.088-.475-.121-.566-.275-.31-.529-.83-.678-1.308-.948-1.238-.7-1.322-.558-.526-1.808.218-.342.267-.734.022-.95-.242-.21-.622-.201-.954.096-.42.378-.92.663-1.376 1.002-.087.065-.188.188-.19.286-.022 1.055.607 1.93 1.582 2.229.277.085.552.198.835.239.816.119 1.637.207 2.456.307zm-6.053-5.388l-.126-.133c-.226.381-.511.74-.664 1.15-.204.554-.332 1.143-.437 1.728-.032.18.063.494.197.575.57.338 1.174.61 1.767.907l.11-.115c-.19-.332-.364-.677-.577-.994-.475-.707-.472-.85.117-1.426.105-.103.218-.197.327-.295.327-.295.28-.697-.085-.922-.222-.137-.42-.315-.63-.475zm11.013-3.14l-.034.172 1.326 1.12c.284-.637.239-1.168-.059-1.757l-1.233.465z" fill="#828FA2"/></g></svg>