<svg width="57" height="57" viewBox="0 0 57 57" fill="none" xmlns="http://www.w3.org/2000/svg"><mask id="a" maskUnits="userSpaceOnUse" x="0" y="0" width="57" height="57"><circle cx="28.331" cy="28.331" r="28.331" fill="#fff"/></mask><g mask="url(#a)"><circle cx="28.331" cy="28.331" r="27.831" fill="#033953" stroke="#828FA2"/><path d="M29.36 17.403c.648.534 1.341 1.118 2.047 1.687.646.52 1.302 1.026 1.962 1.529.259.198.517.483.808.536 1.032.183.821 1.015.906 1.696.013.1-.057.287-.127.31-.688.237-1.385.62-2.076.613-.672-.007-1.234-.045-1.741.485-.17.18-.466.23-.945.452l1.372 1.42c-.603.715-.282 1.406.165 2.094.197.304.402.613.526.95.477 1.31.924 2.63 1.442 4.119.907-.062 2.08-.106 3.244-.232.907-.1 1.494.212 1.946 1.05a4.705 4.705 0 0 0 1.273 1.483c1.136.858.826 3.485-.388 4.346-.213.152-.897.052-.936-.073-.151-.485-.325-1.127-.133-1.53.6-1.267.622-1.2-.293-2.328-.774-.954-1.62-1.522-2.887-1.284-.674.126-.881.452-.823 1.116.081.933.243 1.89.128 2.804-.103.807-.529 1.572-.837 2.344a.703.703 0 0 1-.367.345c-.436.169-.888.295-1.41.46-.026-.483-.058-1.041-.092-1.632-1.74-.313-1.623-2.373-2.868-3.291-.282.241-.594.432-.803.704-1.358 1.774-3.148 2.768-5.261 3.242-.236.053-.49.407-.578.676-.188.573-.24 1.191-.404 1.773-.357 1.264-.968 2.321-2.14 3-.964.56-.908 2.184.06 2.788.273.17.59.278.899.366a9.107 9.107 0 0 1 3.772 2.09c.6.55 1.505.738 2.264 1.11a824.65 824.65 0 0 1 5.407 2.697c.775.39 1.542.798 2.281 1.341h-.84l-30.212.004c-1.289 0-1.434-.212-.988-1.517.355-1.037.44-2.248 1.656-2.753.101-.042.087-.382.128-.583.182-.942.356-1.886.55-2.827.152-.742.414-1.47.481-2.218.254-2.806 1.794-5.046 2.99-7.44a.792.792 0 0 1 .25-.256c.94-.693 1.462-1.626 2.008-2.702.682-1.343 1.904-2.479 3.095-3.435 1.432-1.15 2.005-2.598 1.73-4.292-.4-2.477.597-4.514 1.537-6.609.012-.027.026-.062.05-.075 1.395-.726.813-1.842.574-2.925-.266-1.21.606-2.415 1.801-2.574a.836.836 0 0 1 .35.03c.903.281 1.616 2.535 1.01 3.281-.468.58-.412.98.19 1.409.49.351.887.847 1.386 1.183.172.116.695.037.762-.102.312-.655.505-1.37.776-2.049.084-.206.248-.404.424-.541a6.178 6.178 0 0 1 2.97-1.288c.689-.108 1.311-.65 1.93-.977zm-7.558 34.838l.046-.325c-.354-.161-.869-.222-1.034-.503-.569-.966-1.517-1.239-2.39-1.733-2.265-1.278-2.417-1.019-.962-3.305.397-.624.488-1.34.04-1.734-.442-.386-1.137-.37-1.743.174-.77.691-1.683 1.212-2.516 1.83-.16.12-.344.344-.347.524-.04 1.928 1.11 3.528 2.891 4.074.507.155 1.009.362 1.526.437 1.491.217 2.993.378 4.489.561zm-11.063-9.848l-.231-.244c-.413.697-.934 1.352-1.213 2.104-.374 1.011-.608 2.089-.799 3.157-.059.328.115.904.36 1.05 1.04.618 2.147 1.116 3.23 1.66.067-.07.134-.142.202-.211-.35-.607-.667-1.238-1.055-1.816-.869-1.294-.863-1.554.213-2.607.191-.188.399-.36.597-.54.6-.54.514-1.273-.154-1.684-.406-.251-.768-.577-1.15-.87zm20.129-5.739l-.06.315c.788.666 1.575 1.332 2.423 2.047.517-1.165.436-2.137-.108-3.212l-2.255.85z" fill="#828FA2"/></g></svg>