<svg width="44" height="44" viewBox="0 0 44 44" fill="none" xmlns="http://www.w3.org/2000/svg"><circle cx="21.57" cy="21.57" r="20.808" fill="#033953" stroke="#828FA2" stroke-width="1.523"/><mask id="a" maskUnits="userSpaceOnUse" x="0" y="0" width="44" height="44"><circle cx="21.57" cy="21.57" r="21.57" fill="#033953"/></mask><g mask="url(#a)"><path d="M26.104 13.19c.539.43 1.116.9 1.703 1.36a83.41 83.41 0 0 0 1.634 1.232c.216.16.431.39.673.432.86.147.684.818.755 1.367.01.08-.048.231-.107.25-.572.19-1.152.5-1.728.494-.56-.006-1.027-.037-1.45.391-.141.144-.388.186-.786.364l1.142 1.144c-.502.577-.234 1.134.137 1.688.164.245.336.494.439.766.397 1.055.769 2.12 1.2 3.32.755-.05 1.733-.086 2.7-.187.757-.08 1.245.17 1.622.846a3.83 3.83 0 0 0 1.06 1.196c.945.691.687 2.808-.324 3.503-.177.122-.747.041-.78-.06-.125-.39-.27-.907-.11-1.233.5-1.02.518-.967-.243-1.876-.645-.77-1.35-1.226-2.405-1.035-.56.102-.733.364-.685.9.068.752.203 1.523.107 2.26-.086.65-.44 1.266-.697 1.889a.578.578 0 0 1-.306.278c-.363.136-.74.238-1.173.37l-.077-1.315c-1.45-.252-1.352-1.912-2.388-2.652-.235.194-.494.348-.669.567-1.13 1.43-2.62 2.231-4.38 2.613-.197.043-.408.329-.481.546-.157.461-.2.96-.337 1.428-.297 1.019-.806 1.871-1.781 2.418-.803.451-.756 1.76.05 2.247.227.137.491.224.748.295 1.178.322 2.21.86 3.14 1.685.5.443 1.254.594 1.886.895a629.37 629.37 0 0 1 4.502 2.173c.645.314 1.284.643 1.9 1.081h-.7l-25.156.003c-1.073 0-1.194-.17-.822-1.222.295-.836.366-1.812 1.379-2.22.084-.033.072-.307.106-.47.152-.759.297-1.52.458-2.277.127-.599.345-1.186.401-1.789.211-2.261 1.494-4.066 2.489-5.996a.648.648 0 0 1 .208-.207c.783-.558 1.217-1.31 1.672-2.177.568-1.082 1.585-1.998 2.577-2.769 1.193-.927 1.67-2.094 1.44-3.459-.333-1.996.498-3.639 1.28-5.327.01-.022.022-.05.042-.06 1.161-.586.677-1.485.478-2.358-.222-.976.505-1.946 1.5-2.074a.717.717 0 0 1 .29.023c.753.227 1.346 2.044.841 2.645-.39.468-.342.79.158 1.136.41.283.74.682 1.155.954.143.093.578.03.634-.083.26-.528.421-1.104.647-1.651a1.13 1.13 0 0 1 .352-.437 5.23 5.23 0 0 1 2.473-1.038c.574-.087 1.092-.523 1.607-.787zm-6.293 28.08l.038-.263c-.295-.13-.723-.178-.86-.405-.474-.779-1.264-.998-1.992-1.397-1.884-1.03-2.011-.82-.8-2.664.331-.503.406-1.08.033-1.397-.368-.312-.946-.298-1.451.14-.64.557-1.4.977-2.094 1.475-.133.096-.287.278-.29.422-.034 1.554.924 2.844 2.408 3.284.422.125.84.291 1.27.352 1.242.175 2.492.305 3.738.453zm-9.212-7.939l-.192-.196c-.344.562-.778 1.09-1.01 1.696-.31.815-.506 1.684-.665 2.545-.049.264.096.728.3.846.866.498 1.787.9 2.689 1.337l.168-.17c-.29-.489-.555-.997-.878-1.463-.723-1.043-.719-1.252.177-2.101.16-.152.332-.29.497-.435.5-.435.428-1.026-.128-1.358-.338-.202-.64-.465-.958-.7zm16.76-4.625l-.05.254 2.017 1.65c.431-.94.363-1.722-.09-2.59l-1.877.686z" fill="#828FA2"/></g></svg>