<?xml version="1.0" standalone="no"?>
<!DOCTYPE svg PUBLIC "-//W3C//DTD SVG 20010904//EN"
 "http://www.w3.org/TR/2001/REC-SVG-20010904/DTD/svg10.dtd">
<svg version="1.0" xmlns="http://www.w3.org/2000/svg"
 width="142.000000pt" height="142.000000pt" viewBox="0 0 142.000000 142.000000"
 preserveAspectRatio="xMidYMid meet">
<metadata>
Created by potrace 1.11, written by Peter Selinger 2001-2013
</metadata>
<g transform="translate(0.000000,142.000000) scale(0.100000,-0.100000)"
fill="#000000" stroke="none">
<path d="M940 945 c-85 -28 -142 -101 -142 -183 0 -104 56 -158 219 -213 119
-39 158 -71 155 -124 -3 -48 -26 -81 -64 -94 -102 -36 -198 17 -265 145 -19
36 -33 52 -46 51 -17 -1 -18 -10 -15 -117 3 -101 6 -115 22 -118 9 -2 25 3 35
12 16 14 22 14 72 -5 113 -44 260 -29 342 34 63 48 91 145 62 214 -31 73 -64
96 -203 145 -113 39 -139 53 -155 86 -26 52 8 119 68 132 79 18 144 -23 196
-125 22 -42 40 -65 52 -65 15 0 17 12 17 109 0 118 -7 134 -49 104 -20 -13
-26 -13 -64 2 -58 24 -180 29 -237 10z"/>
<path d="M2 926 c2 -13 15 -23 35 -28 41 -11 70 -51 113 -158 19 -47 69 -168
110 -270 l76 -185 46 -3 46 -3 30 73 c90 216 117 282 182 432 32 74 40 83 83
106 28 15 46 31 45 40 -4 21 -255 22 -263 1 -7 -17 -9 -15 45 -32 42 -13 45
-16 44 -49 -1 -42 -143 -405 -154 -393 -9 11 -170 409 -170 422 0 6 20 16 43
22 26 6 44 16 44 25 0 17 19 16 -185 17 -166 2 -173 1 -170 -17z"/>
</g>
</svg>
